<?xml version="1.0" encoding="UTF-8" standalone="no"?>
<!DOCTYPE svg PUBLIC "-//W3C//DTD SVG 1.1//EN"
 "http://www.w3.org/Graphics/SVG/1.1/DTD/svg11.dtd">
<!-- Generated by graphviz version 2.40.1 (20161225.0304)
 -->
<!-- Title: Car.PIDController Pages: 1 -->
<svg width="196pt" height="215pt"
 viewBox="0.00 0.00 196.00 215.00" xmlns="http://www.w3.org/2000/svg" xmlns:xlink="http://www.w3.org/1999/xlink">
<g id="graph0" class="graph" transform="scale(1 1) rotate(0) translate(4 211)">
<title>Car.PIDController</title>
<!-- Node1 -->
<g id="node1" class="node">
<title>Node1</title>
<g id="a_node1"><a xlink:title=" ">
<polygon fill="#999999" stroke="#666666" points="33.5,-.5 33.5,-79.5 128.5,-79.5 128.5,-.5 33.5,-.5"/>
<text text-anchor="middle" x="81" y="-67.5" font-family="Helvetica,sans-Serif" font-size="10.00" fill="#000000">Car.PIDController</text>
<polyline fill="none" stroke="#666666" points="33.5,-60.5 128.5,-60.5 "/>
<text text-anchor="middle" x="81" y="-48.5" font-family="Helvetica,sans-Serif" font-size="10.00" fill="#000000"> </text>
<polyline fill="none" stroke="#666666" points="33.5,-41.5 128.5,-41.5 "/>
<text text-anchor="start" x="41.5" y="-29.5" font-family="Helvetica,sans-Serif" font-size="10.00" fill="#000000">+ PIDController()</text>
<text text-anchor="start" x="41.5" y="-18.5" font-family="Helvetica,sans-Serif" font-size="10.00" fill="#000000">+ PIDController()</text>
<text text-anchor="start" x="41.5" y="-7.5" font-family="Helvetica,sans-Serif" font-size="10.00" fill="#000000">+ calcPID()</text>
</a>
</g>
</g>
<!-- Node2 -->
<g id="node2" class="node">
<title>Node2</title>
<g id="a_node2"><a xlink:href="classMonoBehaviour.html" target="_top" xlink:title=" ">
<polygon fill="#ffffff" stroke="#666666" points="0,-149.5 0,-206.5 84,-206.5 84,-149.5 0,-149.5"/>
<text text-anchor="middle" x="42" y="-194.5" font-family="Helvetica,sans-Serif" font-size="10.00" fill="#000000">MonoBehaviour</text>
<polyline fill="none" stroke="#666666" points="0,-187.5 84,-187.5 "/>
<text text-anchor="middle" x="42" y="-175.5" font-family="Helvetica,sans-Serif" font-size="10.00" fill="#000000"> </text>
<polyline fill="none" stroke="#666666" points="0,-168.5 84,-168.5 "/>
<text text-anchor="middle" x="42" y="-156.5" font-family="Helvetica,sans-Serif" font-size="10.00" fill="#000000"> </text>
</a>
</g>
</g>
<!-- Node2&#45;&gt;Node1 -->
<g id="edge1" class="edge">
<title>Node2&#45;&gt;Node1</title>
<path fill="none" stroke="#63b8ff" d="M52.8196,-139.7154C58.1145,-120.9794 64.4823,-98.4471 69.8242,-79.5453"/>
<polygon fill="none" stroke="#63b8ff" points="49.4324,-138.8313 50.0808,-149.4063 56.1686,-140.7351 49.4324,-138.8313"/>
</g>
<!-- Node3 -->
<g id="node3" class="node">
<title>Node3</title>
<g id="a_node3"><a xlink:title=" ">
<polygon fill="#ffffff" stroke="#666666" points="102.5,-149.5 102.5,-206.5 137.5,-206.5 137.5,-149.5 102.5,-149.5"/>
<text text-anchor="middle" x="120" y="-194.5" font-family="Helvetica,sans-Serif" font-size="10.00" fill="#000000">float</text>
<polyline fill="none" stroke="#666666" points="102.5,-187.5 137.5,-187.5 "/>
<text text-anchor="middle" x="120" y="-175.5" font-family="Helvetica,sans-Serif" font-size="10.00" fill="#000000"> </text>
<polyline fill="none" stroke="#666666" points="102.5,-168.5 137.5,-168.5 "/>
<text text-anchor="middle" x="120" y="-156.5" font-family="Helvetica,sans-Serif" font-size="10.00" fill="#000000"> </text>
</a>
</g>
</g>
<!-- Node3&#45;&gt;Node1 -->
<g id="edge2" class="edge">
<title>Node3&#45;&gt;Node1</title>
<path fill="none" stroke="#404040" d="M111.9192,-149.4063C107.1669,-132.5905 101.0175,-110.8312 95.4559,-91.1517"/>
<polygon fill="none" stroke="#404040" points="95.4394,-91.093 89.9584,-86.407 92.1758,-79.5453 97.6569,-84.2313 95.4394,-91.093"/>
<text text-anchor="middle" x="147" y="-123" font-family="Helvetica,sans-Serif" font-size="10.00" fill="#000000"> +_derivativeGain</text>
<text text-anchor="middle" x="147" y="-112" font-family="Helvetica,sans-Serif" font-size="10.00" fill="#000000">+_integralGain</text>
<text text-anchor="middle" x="147" y="-101" font-family="Helvetica,sans-Serif" font-size="10.00" fill="#000000">+_proportionalGain</text>
</g>
</g>
</svg>
