<?xml version="1.0" encoding="UTF-8" standalone="no"?>
<!DOCTYPE svg PUBLIC "-//W3C//DTD SVG 1.1//EN"
 "http://www.w3.org/Graphics/SVG/1.1/DTD/svg11.dtd">
<!-- Generated by graphviz version 2.40.1 (20161225.0304)
 -->
<!-- Title: MonoBehaviour Pages: 1 -->
<!--zoomable 336 -->
<svg id="main" version="1.1" xmlns="http://www.w3.org/2000/svg" xmlns:xlink="http://www.w3.org/1999/xlink" xml:space="preserve" onload="init(evt)">
<style type="text/css"><![CDATA[
.edge:hover path { stroke: red; }
.edge:hover polygon { stroke: red; fill: red; }
]]></style>
<script type="text/javascript"><![CDATA[
var edges = document.getElementsByTagName('g');
if (edges && edges.length) {
  for (var i=0;i<edges.length;i++) {
    if (edges[i].id.substr(0,4)=='edge') {
      edges[i].setAttribute('class','edge');
    }
  }
}
]]></script>
        <defs>
                <circle id="rim" cx="0" cy="0" r="7"/>
                <circle id="rim2" cx="0" cy="0" r="3.5"/>
                <g id="zoomPlus">
                        <use xlink:href="#rim" fill="#404040">
                                <set attributeName="fill" to="#808080" begin="zoomplus.mouseover" end="zoomplus.mouseout"/>
                        </use>
                        <path d="M-4,0h8M0,-4v8" fill="none" stroke="white" stroke-width="1.5" pointer-events="none"/>
                </g>
                <g id="zoomMin">
                        <use xlink:href="#rim" fill="#404040">
                                <set attributeName="fill" to="#808080" begin="zoomminus.mouseover" end="zoomminus.mouseout"/>
                        </use>
                        <path d="M-4,0h8" fill="none" stroke="white" stroke-width="1.5" pointer-events="none"/>
                </g>
                <g id="dirArrow">
                        <path fill="none" stroke="white" stroke-width="1.5" d="M0,-3.0v7 M-2.5,-0.5L0,-3.0L2.5,-0.5"/>
                </g>
               <g id="resetDef">
                       <use xlink:href="#rim2" fill="#404040">
                               <set attributeName="fill" to="#808080" begin="reset.mouseover" end="reset.mouseout"/>
                       </use>
               </g>
        </defs>

<script type="text/javascript">
var viewWidth = 1920;
var viewHeight = 336;
var sectionId = 'dynsection-0';
</script>
<script xlink:href="svgpan.js"/>
<svg id="graph" class="graph">
<g id="viewport">
<title>MonoBehaviour</title>
<!-- Node1 -->
<g id="node1" class="node">
<title>Node1</title>
<g id="a_node1"><a xlink:title=" ">
<polygon fill="#999999" stroke="#666666" points="941.5,-270.5 941.5,-327.5 1025.5,-327.5 1025.5,-270.5 941.5,-270.5"/>
<text text-anchor="middle" x="983.5" y="-315.5" font-family="Helvetica,sans-Serif" font-size="10.00" fill="#000000">MonoBehaviour</text>
<polyline fill="none" stroke="#666666" points="941.5,-308.5 1025.5,-308.5 "/>
<text text-anchor="middle" x="983.5" y="-296.5" font-family="Helvetica,sans-Serif" font-size="10.00" fill="#000000"> </text>
<polyline fill="none" stroke="#666666" points="941.5,-289.5 1025.5,-289.5 "/>
<text text-anchor="middle" x="983.5" y="-277.5" font-family="Helvetica,sans-Serif" font-size="10.00" fill="#000000"> </text>
</a>
</g>
</g>
<!-- Node2 -->
<g id="node2" class="node">
<title>Node2</title>
<g id="a_node2"><a xlink:href="classAddTracks.html" target="_top" xlink:title="Helper class to add all tracks to the list of tracks when the simulator starts.">
<polygon fill="#ffffff" stroke="#666666" points="0,-83 0,-151 103,-151 103,-83 0,-83"/>
<text text-anchor="middle" x="51.5" y="-139" font-family="Helvetica,sans-Serif" font-size="10.00" fill="#000000">AddTracks</text>
<polyline fill="none" stroke="#666666" points="0,-132 103,-132 "/>
<text text-anchor="start" x="8" y="-120" font-family="Helvetica,sans-Serif" font-size="10.00" fill="#000000">+ trackManager</text>
<text text-anchor="start" x="8" y="-109" font-family="Helvetica,sans-Serif" font-size="10.00" fill="#000000">+ MainMenuManger</text>
<polyline fill="none" stroke="#666666" points="0,-102 103,-102 "/>
<text text-anchor="middle" x="51.5" y="-90" font-family="Helvetica,sans-Serif" font-size="10.00" fill="#000000"> </text>
</a>
</g>
</g>
<!-- Node1&#45;&gt;Node2 -->
<g id="edge1" class="edge">
<title>Node1&#45;&gt;Node2</title>
<path fill="none" stroke="#63b8ff" d="M931.1614,-298.0514C753.3624,-294.4277 179.7981,-279.3028 111.5,-234 83.0603,-215.1357 67.375,-178.4029 59.2464,-151.1049"/>
<polygon fill="none" stroke="#63b8ff" points="931.2405,-301.5536 941.3085,-298.2544 931.3806,-294.555 931.2405,-301.5536"/>
</g>
<!-- Node3 -->
<g id="node3" class="node">
<title>Node3</title>
<g id="a_node3"><a xlink:href="classCar_1_1Camera_1_1CameraExternalCalibration.html" target="_top" xlink:title=" ">
<polygon fill="#ffffff" stroke="#666666" points="121,-83 121,-151 264,-151 264,-83 121,-83"/>
<text text-anchor="start" x="129" y="-139" font-family="Helvetica,sans-Serif" font-size="10.00" fill="#000000">Car.Camera.CameraExternal</text>
<text text-anchor="middle" x="192.5" y="-128" font-family="Helvetica,sans-Serif" font-size="10.00" fill="#000000">Calibration</text>
<polyline fill="none" stroke="#666666" points="121,-121 264,-121 "/>
<text text-anchor="middle" x="192.5" y="-109" font-family="Helvetica,sans-Serif" font-size="10.00" fill="#000000"> </text>
<polyline fill="none" stroke="#666666" points="121,-102 264,-102 "/>
<text text-anchor="middle" x="192.5" y="-90" font-family="Helvetica,sans-Serif" font-size="10.00" fill="#000000"> </text>
</a>
</g>
</g>
<!-- Node1&#45;&gt;Node3 -->
<g id="edge2" class="edge">
<title>Node1&#45;&gt;Node3</title>
<path fill="none" stroke="#63b8ff" d="M930.8691,-296.7653C775.9569,-289.8314 328.9174,-267.1401 272.5,-234 240.7803,-215.3676 218.8252,-178.5958 206.0476,-151.2253"/>
<polygon fill="none" stroke="#63b8ff" points="930.931,-300.2714 941.0764,-297.2182 931.2414,-293.2782 930.931,-300.2714"/>
</g>
<!-- Node4 -->
<g id="node4" class="node">
<title>Node4</title>
<g id="a_node4"><a xlink:href="classCar_1_1Camera_1_1CarCameraController.html" target="_top" xlink:title=" ">
<polygon fill="#ffffff" stroke="#666666" points="282,-61 282,-173 447,-173 447,-61 282,-61"/>
<text text-anchor="middle" x="364.5" y="-161" font-family="Helvetica,sans-Serif" font-size="10.00" fill="#000000">Car.Camera.CarCameraController</text>
<polyline fill="none" stroke="#666666" points="282,-154 447,-154 "/>
<text text-anchor="start" x="290" y="-142" font-family="Helvetica,sans-Serif" font-size="10.00" fill="#000000">+ rayDuration</text>
<text text-anchor="start" x="290" y="-131" font-family="Helvetica,sans-Serif" font-size="10.00" fill="#000000">+ OnNewImage</text>
<text text-anchor="start" x="290" y="-120" font-family="Helvetica,sans-Serif" font-size="10.00" fill="#000000">+ carCamera</text>
<text text-anchor="start" x="290" y="-109" font-family="Helvetica,sans-Serif" font-size="10.00" fill="#000000">+ computeShader</text>
<text text-anchor="start" x="290" y="-98" font-family="Helvetica,sans-Serif" font-size="10.00" fill="#000000">+ renderTexture</text>
<text text-anchor="start" x="290" y="-87" font-family="Helvetica,sans-Serif" font-size="10.00" fill="#000000">+ Hz</text>
<polyline fill="none" stroke="#666666" points="282,-80 447,-80 "/>
<text text-anchor="start" x="290" y="-68" font-family="Helvetica,sans-Serif" font-size="10.00" fill="#000000">+ DrawConeRays()</text>
</a>
</g>
</g>
<!-- Node1&#45;&gt;Node4 -->
<g id="edge3" class="edge">
<title>Node1&#45;&gt;Node4</title>
<path fill="none" stroke="#63b8ff" d="M931.1944,-297.5587C814.5293,-293.5516 536.974,-279.3934 456.5,-234 431.4053,-219.8447 410.718,-195.825 395.3592,-173.219"/>
<polygon fill="none" stroke="#63b8ff" points="931.1975,-301.0606 941.3082,-297.8943 931.4298,-294.0645 931.1975,-301.0606"/>
</g>
<!-- Node5 -->
<g id="node5" class="node">
<title>Node5</title>
<g id="a_node5"><a xlink:href="classCar_1_1CarController.html" target="_top" xlink:title=" ">
<polygon fill="#ffffff" stroke="#666666" points="465.5,-.5 465.5,-233.5 581.5,-233.5 581.5,-.5 465.5,-.5"/>
<text text-anchor="middle" x="523.5" y="-221.5" font-family="Helvetica,sans-Serif" font-size="10.00" fill="#000000">Car.CarController</text>
<polyline fill="none" stroke="#666666" points="465.5,-214.5 581.5,-214.5 "/>
<text text-anchor="start" x="473.5" y="-202.5" font-family="Helvetica,sans-Serif" font-size="10.00" fill="#000000">+ _pidControllerTurn</text>
<text text-anchor="start" x="473.5" y="-191.5" font-family="Helvetica,sans-Serif" font-size="10.00" fill="#000000">+ _gssController</text>
<text text-anchor="start" x="473.5" y="-180.5" font-family="Helvetica,sans-Serif" font-size="10.00" fill="#000000">+ _ImuController</text>
<text text-anchor="start" x="473.5" y="-169.5" font-family="Helvetica,sans-Serif" font-size="10.00" fill="#000000">+ OnNewCarState</text>
<text text-anchor="start" x="473.5" y="-158.5" font-family="Helvetica,sans-Serif" font-size="10.00" fill="#000000">+ frontLeftWheel</text>
<text text-anchor="start" x="473.5" y="-147.5" font-family="Helvetica,sans-Serif" font-size="10.00" fill="#000000">+ frontRightWheel</text>
<text text-anchor="start" x="473.5" y="-136.5" font-family="Helvetica,sans-Serif" font-size="10.00" fill="#000000">+ rearRightWheel</text>
<text text-anchor="start" x="473.5" y="-125.5" font-family="Helvetica,sans-Serif" font-size="10.00" fill="#000000">+ rearLeftWheel</text>
<text text-anchor="start" x="473.5" y="-114.5" font-family="Helvetica,sans-Serif" font-size="10.00" fill="#000000">+ frontLeftCollider</text>
<text text-anchor="start" x="473.5" y="-103.5" font-family="Helvetica,sans-Serif" font-size="10.00" fill="#000000">+ frontRightCollider</text>
<text text-anchor="start" x="473.5" y="-92.5" font-family="Helvetica,sans-Serif" font-size="10.00" fill="#000000">+ rearLeftCollider</text>
<text text-anchor="start" x="473.5" y="-81.5" font-family="Helvetica,sans-Serif" font-size="10.00" fill="#000000">+ rearRightCollider</text>
<text text-anchor="start" x="473.5" y="-70.5" font-family="Helvetica,sans-Serif" font-size="10.00" fill="#000000">+ Automated</text>
<polyline fill="none" stroke="#666666" points="465.5,-63.5 581.5,-63.5 "/>
<text text-anchor="start" x="473.5" y="-51.5" font-family="Helvetica,sans-Serif" font-size="10.00" fill="#000000">+ ApplyControlResult()</text>
<text text-anchor="start" x="473.5" y="-40.5" font-family="Helvetica,sans-Serif" font-size="10.00" fill="#000000">+ ResetCar()</text>
<text text-anchor="start" x="473.5" y="-29.5" font-family="Helvetica,sans-Serif" font-size="10.00" fill="#000000">+ onReset()</text>
<text text-anchor="start" x="473.5" y="-18.5" font-family="Helvetica,sans-Serif" font-size="10.00" fill="#000000">+ OnMove()</text>
<text text-anchor="start" x="473.5" y="-7.5" font-family="Helvetica,sans-Serif" font-size="10.00" fill="#000000">+ onBrake()</text>
</a>
</g>
</g>
<!-- Node1&#45;&gt;Node5 -->
<g id="edge4" class="edge">
<title>Node1&#45;&gt;Node5</title>
<path fill="none" stroke="#63b8ff" d="M931.33,-295.8794C837.4659,-289.3822 644.8271,-271.754 590.5,-234 587.4245,-231.8628 584.4718,-229.5356 581.6385,-227.0507"/>
<polygon fill="none" stroke="#63b8ff" points="931.244,-299.3815 941.4572,-296.5636 931.7159,-292.3974 931.244,-299.3815"/>
</g>
<!-- Node6 -->
<g id="node6" class="node">
<title>Node6</title>
<g id="a_node6"><a xlink:href="classCar_1_1Lidar_1_1LidarController.html" target="_top" xlink:title=" ">
<polygon fill="#ffffff" stroke="#666666" points="599.5,-61 599.5,-173 721.5,-173 721.5,-61 599.5,-61"/>
<text text-anchor="middle" x="660.5" y="-161" font-family="Helvetica,sans-Serif" font-size="10.00" fill="#000000">Car.Lidar.LidarController</text>
<polyline fill="none" stroke="#666666" points="599.5,-154 721.5,-154 "/>
<text text-anchor="start" x="607.5" y="-142" font-family="Helvetica,sans-Serif" font-size="10.00" fill="#000000">+ layers</text>
<text text-anchor="start" x="607.5" y="-131" font-family="Helvetica,sans-Serif" font-size="10.00" fill="#000000">+ verticalAngleRange</text>
<text text-anchor="start" x="607.5" y="-120" font-family="Helvetica,sans-Serif" font-size="10.00" fill="#000000">+ horizontalResolution</text>
<text text-anchor="start" x="607.5" y="-109" font-family="Helvetica,sans-Serif" font-size="10.00" fill="#000000">+ rangeAccuracy</text>
<text text-anchor="start" x="607.5" y="-98" font-family="Helvetica,sans-Serif" font-size="10.00" fill="#000000">+ OnNewPointCloud</text>
<text text-anchor="start" x="607.5" y="-87" font-family="Helvetica,sans-Serif" font-size="10.00" fill="#000000">+ Hz</text>
<polyline fill="none" stroke="#666666" points="599.5,-80 721.5,-80 "/>
<text text-anchor="middle" x="660.5" y="-68" font-family="Helvetica,sans-Serif" font-size="10.00" fill="#000000"> </text>
</a>
</g>
</g>
<!-- Node1&#45;&gt;Node6 -->
<g id="edge5" class="edge">
<title>Node1&#45;&gt;Node6</title>
<path fill="none" stroke="#63b8ff" d="M931.3957,-290.4286C866.9871,-279.023 762.0133,-257.5394 730.5,-234 709.8293,-218.5597 694.0708,-195.0569 682.7887,-173.1565"/>
<polygon fill="none" stroke="#63b8ff" points="930.9138,-293.8973 941.3671,-292.1713 932.119,-287.0018 930.9138,-293.8973"/>
</g>
<!-- Node7 -->
<g id="node7" class="node">
<title>Node7</title>
<g id="a_node7"><a xlink:href="classCar_1_1PIDController.html" target="_top" xlink:title=" ">
<polygon fill="#ffffff" stroke="#666666" points="740,-66.5 740,-167.5 841,-167.5 841,-66.5 740,-66.5"/>
<text text-anchor="middle" x="790.5" y="-155.5" font-family="Helvetica,sans-Serif" font-size="10.00" fill="#000000">Car.PIDController</text>
<polyline fill="none" stroke="#666666" points="740,-148.5 841,-148.5 "/>
<text text-anchor="start" x="748" y="-136.5" font-family="Helvetica,sans-Serif" font-size="10.00" fill="#000000">+ _proportionalGain</text>
<text text-anchor="start" x="748" y="-125.5" font-family="Helvetica,sans-Serif" font-size="10.00" fill="#000000">+ _integralGain</text>
<text text-anchor="start" x="748" y="-114.5" font-family="Helvetica,sans-Serif" font-size="10.00" fill="#000000">+ _derivativeGain</text>
<polyline fill="none" stroke="#666666" points="740,-107.5 841,-107.5 "/>
<text text-anchor="start" x="748" y="-95.5" font-family="Helvetica,sans-Serif" font-size="10.00" fill="#000000">+ PIDController()</text>
<text text-anchor="start" x="748" y="-84.5" font-family="Helvetica,sans-Serif" font-size="10.00" fill="#000000">+ PIDController()</text>
<text text-anchor="start" x="748" y="-73.5" font-family="Helvetica,sans-Serif" font-size="10.00" fill="#000000">+ calcPID()</text>
</a>
</g>
</g>
<!-- Node1&#45;&gt;Node7 -->
<g id="edge6" class="edge">
<title>Node1&#45;&gt;Node7</title>
<path fill="none" stroke="#63b8ff" d="M931.6078,-282.6113C904.8321,-272.0969 873.1314,-256.1995 850.5,-234 831.7592,-215.6168 817.7479,-190.1395 807.9989,-167.6513"/>
<polygon fill="none" stroke="#63b8ff" points="930.6322,-285.984 941.2238,-286.2431 933.1055,-279.4355 930.6322,-285.984"/>
</g>
<!-- Node8 -->
<g id="node8" class="node">
<title>Node8</title>
<g id="a_node8"><a xlink:href="classCar_1_1gss_1_1GssController.html" target="_top" xlink:title=" ">
<polygon fill="#ffffff" stroke="#666666" points="859.5,-61 859.5,-173 973.5,-173 973.5,-61 859.5,-61"/>
<text text-anchor="middle" x="916.5" y="-161" font-family="Helvetica,sans-Serif" font-size="10.00" fill="#000000">Car.gss.GssController</text>
<polyline fill="none" stroke="#666666" points="859.5,-154 973.5,-154 "/>
<text text-anchor="start" x="867.5" y="-142" font-family="Helvetica,sans-Serif" font-size="10.00" fill="#000000">+ Speed</text>
<text text-anchor="start" x="867.5" y="-131" font-family="Helvetica,sans-Serif" font-size="10.00" fill="#000000">+ GSSoffset</text>
<text text-anchor="start" x="867.5" y="-120" font-family="Helvetica,sans-Serif" font-size="10.00" fill="#000000">+ SpeedKmH</text>
<text text-anchor="start" x="867.5" y="-109" font-family="Helvetica,sans-Serif" font-size="10.00" fill="#000000">+ ErrorRate</text>
<text text-anchor="start" x="867.5" y="-98" font-family="Helvetica,sans-Serif" font-size="10.00" fill="#000000">+ SamplingRate</text>
<text text-anchor="start" x="867.5" y="-87" font-family="Helvetica,sans-Serif" font-size="10.00" fill="#000000">+ Velocity</text>
<polyline fill="none" stroke="#666666" points="859.5,-80 973.5,-80 "/>
<text text-anchor="middle" x="916.5" y="-68" font-family="Helvetica,sans-Serif" font-size="10.00" fill="#000000"> </text>
</a>
</g>
</g>
<!-- Node1&#45;&gt;Node8 -->
<g id="edge7" class="edge">
<title>Node1&#45;&gt;Node8</title>
<path fill="none" stroke="#63b8ff" d="M969.3394,-260.534C960.0058,-235.1801 947.6261,-201.5514 937.1957,-173.2182"/>
<polygon fill="none" stroke="#63b8ff" points="966.1444,-261.9864 972.8837,-270.1616 972.7134,-259.5681 966.1444,-261.9864"/>
</g>
<!-- Node9 -->
<g id="node9" class="node">
<title>Node9</title>
<g id="a_node9"><a xlink:href="classCar_1_1imu_1_1Imu__Controller.html" target="_top" xlink:title=" ">
<polygon fill="#ffffff" stroke="#666666" points="991.5,-66.5 991.5,-167.5 1109.5,-167.5 1109.5,-66.5 991.5,-66.5"/>
<text text-anchor="middle" x="1050.5" y="-155.5" font-family="Helvetica,sans-Serif" font-size="10.00" fill="#000000">Car.imu.Imu_Controller</text>
<polyline fill="none" stroke="#666666" points="991.5,-148.5 1109.5,-148.5 "/>
<text text-anchor="start" x="999.5" y="-136.5" font-family="Helvetica,sans-Serif" font-size="10.00" fill="#000000">+ IMUOffset</text>
<text text-anchor="start" x="999.5" y="-125.5" font-family="Helvetica,sans-Serif" font-size="10.00" fill="#000000">+ Offset</text>
<text text-anchor="start" x="999.5" y="-114.5" font-family="Helvetica,sans-Serif" font-size="10.00" fill="#000000">+ ErrorRate</text>
<text text-anchor="start" x="999.5" y="-103.5" font-family="Helvetica,sans-Serif" font-size="10.00" fill="#000000">+ Acceleration</text>
<text text-anchor="start" x="999.5" y="-92.5" font-family="Helvetica,sans-Serif" font-size="10.00" fill="#000000">+ SamplingRate</text>
<polyline fill="none" stroke="#666666" points="991.5,-85.5 1109.5,-85.5 "/>
<text text-anchor="middle" x="1050.5" y="-73.5" font-family="Helvetica,sans-Serif" font-size="10.00" fill="#000000"> </text>
</a>
</g>
</g>
<!-- Node1&#45;&gt;Node9 -->
<g id="edge8" class="edge">
<title>Node1&#45;&gt;Node9</title>
<path fill="none" stroke="#63b8ff" d="M997.6137,-260.6613C1007.5643,-233.6312 1020.9943,-197.1497 1031.8305,-167.7142"/>
<polygon fill="none" stroke="#63b8ff" points="994.2866,-259.5681 994.1163,-270.1616 1000.8556,-261.9864 994.2866,-259.5681"/>
</g>
<!-- Node10 -->
<g id="node10" class="node">
<title>Node10</title>
<g id="a_node10"><a xlink:href="classCommunication_1_1InterfaceController.html" target="_top" xlink:title=" ">
<polygon fill="#ffffff" stroke="#666666" points="1127.5,-72 1127.5,-162 1295.5,-162 1295.5,-72 1127.5,-72"/>
<text text-anchor="middle" x="1211.5" y="-150" font-family="Helvetica,sans-Serif" font-size="10.00" fill="#000000">Communication.InterfaceController</text>
<polyline fill="none" stroke="#666666" points="1127.5,-143 1295.5,-143 "/>
<text text-anchor="start" x="1135.5" y="-131" font-family="Helvetica,sans-Serif" font-size="10.00" fill="#000000">+ carController</text>
<text text-anchor="start" x="1135.5" y="-120" font-family="Helvetica,sans-Serif" font-size="10.00" fill="#000000">+ carCameraController</text>
<text text-anchor="start" x="1135.5" y="-109" font-family="Helvetica,sans-Serif" font-size="10.00" fill="#000000">+ lidarController</text>
<text text-anchor="start" x="1135.5" y="-98" font-family="Helvetica,sans-Serif" font-size="10.00" fill="#000000">+ gssController</text>
<polyline fill="none" stroke="#666666" points="1127.5,-91 1295.5,-91 "/>
<text text-anchor="middle" x="1211.5" y="-79" font-family="Helvetica,sans-Serif" font-size="10.00" fill="#000000"> </text>
</a>
</g>
</g>
<!-- Node1&#45;&gt;Node10 -->
<g id="edge9" class="edge">
<title>Node1&#45;&gt;Node10</title>
<path fill="none" stroke="#63b8ff" d="M1035.0603,-280.6204C1061.6402,-269.6147 1093.6095,-253.8804 1118.5,-234 1143.6404,-213.92 1166.2456,-185.8421 1182.8732,-162.2254"/>
<polygon fill="none" stroke="#63b8ff" points="1033.5009,-277.4752 1025.5346,-284.4601 1036.118,-283.9676 1033.5009,-277.4752"/>
</g>
<!-- Node11 -->
<g id="node11" class="node">
<title>Node11</title>
<g id="a_node11"><a xlink:href="classFollowCar.html" target="_top" xlink:title=" ">
<polygon fill="#ffffff" stroke="#666666" points="1314,-55.5 1314,-178.5 1409,-178.5 1409,-55.5 1314,-55.5"/>
<text text-anchor="middle" x="1361.5" y="-166.5" font-family="Helvetica,sans-Serif" font-size="10.00" fill="#000000">FollowCar</text>
<polyline fill="none" stroke="#666666" points="1314,-159.5 1409,-159.5 "/>
<text text-anchor="start" x="1322" y="-147.5" font-family="Helvetica,sans-Serif" font-size="10.00" fill="#000000">+ Target</text>
<text text-anchor="start" x="1322" y="-136.5" font-family="Helvetica,sans-Serif" font-size="10.00" fill="#000000">+ camTransform</text>
<text text-anchor="start" x="1322" y="-125.5" font-family="Helvetica,sans-Serif" font-size="10.00" fill="#000000">+ Offset</text>
<text text-anchor="start" x="1322" y="-114.5" font-family="Helvetica,sans-Serif" font-size="10.00" fill="#000000">+ SmoothTime</text>
<text text-anchor="start" x="1322" y="-103.5" font-family="Helvetica,sans-Serif" font-size="10.00" fill="#000000">+ horizontalSpeed</text>
<text text-anchor="start" x="1322" y="-92.5" font-family="Helvetica,sans-Serif" font-size="10.00" fill="#000000">+ verticalSpeed</text>
<text text-anchor="start" x="1322" y="-81.5" font-family="Helvetica,sans-Serif" font-size="10.00" fill="#000000">+ zoomSpeed</text>
<polyline fill="none" stroke="#666666" points="1314,-74.5 1409,-74.5 "/>
<text text-anchor="middle" x="1361.5" y="-62.5" font-family="Helvetica,sans-Serif" font-size="10.00" fill="#000000"> </text>
</a>
</g>
</g>
<!-- Node1&#45;&gt;Node11 -->
<g id="edge10" class="edge">
<title>Node1&#45;&gt;Node11</title>
<path fill="none" stroke="#63b8ff" d="M1035.9006,-294.0303C1115.8017,-285.535 1263.1865,-265.9726 1304.5,-234 1322.4581,-220.1022 1335.101,-199.0846 1343.8343,-178.6792"/>
<polygon fill="none" stroke="#63b8ff" points="1035.1455,-290.59 1025.5622,-295.1078 1035.8711,-297.5522 1035.1455,-290.59"/>
</g>
<!-- Node12 -->
<g id="node12" class="node">
<title>Node12</title>
<g id="a_node12"><a xlink:href="classMiniMapCameraController.html" target="_top" xlink:title=" ">
<polygon fill="#ffffff" stroke="#666666" points="1427.5,-88.5 1427.5,-145.5 1557.5,-145.5 1557.5,-88.5 1427.5,-88.5"/>
<text text-anchor="middle" x="1492.5" y="-133.5" font-family="Helvetica,sans-Serif" font-size="10.00" fill="#000000">MiniMapCameraController</text>
<polyline fill="none" stroke="#666666" points="1427.5,-126.5 1557.5,-126.5 "/>
<text text-anchor="start" x="1435.5" y="-114.5" font-family="Helvetica,sans-Serif" font-size="10.00" fill="#000000">+ car</text>
<polyline fill="none" stroke="#666666" points="1427.5,-107.5 1557.5,-107.5 "/>
<text text-anchor="middle" x="1492.5" y="-95.5" font-family="Helvetica,sans-Serif" font-size="10.00" fill="#000000"> </text>
</a>
</g>
</g>
<!-- Node1&#45;&gt;Node12 -->
<g id="edge11" class="edge">
<title>Node1&#45;&gt;Node12</title>
<path fill="none" stroke="#63b8ff" d="M1035.875,-296.5742C1137.3546,-291.0132 1356.2649,-274.5598 1418.5,-234 1450.5156,-213.1348 1471.3079,-173.0545 1482.468,-145.6767"/>
<polygon fill="none" stroke="#63b8ff" points="1035.6455,-293.0814 1025.8462,-297.1092 1036.0184,-300.0715 1035.6455,-293.0814"/>
</g>
<!-- Node13 -->
<g id="node13" class="node">
<title>Node13</title>
<g id="a_node13"><a xlink:href="classTrack_1_1AutoPathFollower.html" target="_top" xlink:title=" ">
<polygon fill="#ffffff" stroke="#666666" points="1575.5,-72 1575.5,-162 1697.5,-162 1697.5,-72 1575.5,-72"/>
<text text-anchor="middle" x="1636.5" y="-150" font-family="Helvetica,sans-Serif" font-size="10.00" fill="#000000">Track.AutoPathFollower</text>
<polyline fill="none" stroke="#666666" points="1575.5,-143 1697.5,-143 "/>
<text text-anchor="start" x="1583.5" y="-131" font-family="Helvetica,sans-Serif" font-size="10.00" fill="#000000">+ pathCreator</text>
<text text-anchor="start" x="1583.5" y="-120" font-family="Helvetica,sans-Serif" font-size="10.00" fill="#000000">+ endOfPathInstruction</text>
<text text-anchor="start" x="1583.5" y="-109" font-family="Helvetica,sans-Serif" font-size="10.00" fill="#000000">+ speed</text>
<text text-anchor="start" x="1583.5" y="-98" font-family="Helvetica,sans-Serif" font-size="10.00" fill="#000000">+ manager</text>
<polyline fill="none" stroke="#666666" points="1575.5,-91 1697.5,-91 "/>
<text text-anchor="middle" x="1636.5" y="-79" font-family="Helvetica,sans-Serif" font-size="10.00" fill="#000000"> </text>
</a>
</g>
</g>
<!-- Node1&#45;&gt;Node13 -->
<g id="edge12" class="edge">
<title>Node1&#45;&gt;Node13</title>
<path fill="none" stroke="#63b8ff" d="M1035.7489,-295.8224C1170.4882,-287.2578 1522.3011,-262.4134 1566.5,-234 1592.3844,-217.3602 1610.0311,-187.4489 1621.1316,-162.0361"/>
<polygon fill="none" stroke="#63b8ff" points="1035.4292,-292.3355 1025.6694,-296.4584 1035.87,-299.3216 1035.4292,-292.3355"/>
</g>
<!-- Node14 -->
<g id="node14" class="node">
<title>Node14</title>
<g id="a_node14"><a xlink:href="classTrackManager.html" target="_top" xlink:title="This Class is Responsible for changing the Track.">
<polygon fill="#ffffff" stroke="#666666" points="1716,-72 1716,-162 1799,-162 1799,-72 1716,-72"/>
<text text-anchor="middle" x="1757.5" y="-150" font-family="Helvetica,sans-Serif" font-size="10.00" fill="#000000">TrackManager</text>
<polyline fill="none" stroke="#666666" points="1716,-143 1799,-143 "/>
<text text-anchor="start" x="1724" y="-131" font-family="Helvetica,sans-Serif" font-size="10.00" fill="#000000">+ Tracks</text>
<text text-anchor="start" x="1724" y="-120" font-family="Helvetica,sans-Serif" font-size="10.00" fill="#000000">+ TrackImgs</text>
<text text-anchor="start" x="1724" y="-109" font-family="Helvetica,sans-Serif" font-size="10.00" fill="#000000">+ CurrentTrack</text>
<text text-anchor="start" x="1724" y="-98" font-family="Helvetica,sans-Serif" font-size="10.00" fill="#000000">+ currentImg</text>
<polyline fill="none" stroke="#666666" points="1716,-91 1799,-91 "/>
<text text-anchor="start" x="1724" y="-79" font-family="Helvetica,sans-Serif" font-size="10.00" fill="#000000">+ SetTrack()</text>
</a>
</g>
</g>
<!-- Node1&#45;&gt;Node14 -->
<g id="edge13" class="edge">
<title>Node1&#45;&gt;Node14</title>
<path fill="none" stroke="#63b8ff" d="M1035.9654,-297.3433C1193.0931,-291.9619 1652.3819,-273.0204 1706.5,-234 1729.7758,-217.2176 1742.5536,-187.4747 1749.4983,-162.1782"/>
<polygon fill="none" stroke="#63b8ff" points="1035.4977,-293.857 1025.6216,-297.6929 1035.7342,-300.853 1035.4977,-293.857"/>
</g>
<!-- Node15 -->
<g id="node15" class="node">
<title>Node15</title>
<g id="a_node15"><a xlink:href="classgetRenderTexture.html" target="_top" xlink:title=" ">
<polygon fill="#ffffff" stroke="#666666" points="1817,-88.5 1817,-145.5 1912,-145.5 1912,-88.5 1817,-88.5"/>
<text text-anchor="middle" x="1864.5" y="-133.5" font-family="Helvetica,sans-Serif" font-size="10.00" fill="#000000">getRenderTexture</text>
<polyline fill="none" stroke="#666666" points="1817,-126.5 1912,-126.5 "/>
<text text-anchor="start" x="1825" y="-114.5" font-family="Helvetica,sans-Serif" font-size="10.00" fill="#000000">+ CarCamera</text>
<polyline fill="none" stroke="#666666" points="1817,-107.5 1912,-107.5 "/>
<text text-anchor="middle" x="1864.5" y="-95.5" font-family="Helvetica,sans-Serif" font-size="10.00" fill="#000000"> </text>
</a>
</g>
</g>
<!-- Node1&#45;&gt;Node15 -->
<g id="edge14" class="edge">
<title>Node1&#45;&gt;Node15</title>
<path fill="none" stroke="#63b8ff" d="M1035.6388,-297.8871C1206.8999,-293.8237 1744.8711,-277.6718 1808.5,-234 1838.1141,-213.6744 1852.5647,-173.2584 1859.2512,-145.6768"/>
<polygon fill="none" stroke="#63b8ff" points="1035.5248,-294.3887 1025.6092,-298.1212 1035.6882,-301.3868 1035.5248,-294.3887"/>
</g>
</g>
</svg>
        <g id="navigator" transform="translate(0 0)" fill="#404254">
                <rect fill="#f2f5e9" fill-opacity="0.5" stroke="#606060" stroke-width=".5" x="0" y="0" width="60" height="60"/>
                <use id="zoomplus" xlink:href="#zoomPlus" x="17" y="9" onmousedown="handleZoom(evt,'in')"/>
                <use id="zoomminus" xlink:href="#zoomMin" x="42" y="9" onmousedown="handleZoom(evt,'out')"/>
                <use id="reset" xlink:href="#resetDef" x="30" y="36" onmousedown="handleReset()"/>
                <g id="arrowUp" xlink:href="#dirArrow" transform="translate(30 24)" onmousedown="handlePan(0,-1)">
                  <use xlink:href="#rim" fill="#404040">
                        <set attributeName="fill" to="#808080" begin="arrowUp.mouseover" end="arrowUp.mouseout"/>
                  </use>
                  <path fill="none" stroke="white" stroke-width="1.5" d="M0,-3.0v7 M-2.5,-0.5L0,-3.0L2.5,-0.5"/>
                </g>
                <g id="arrowRight" xlink:href="#dirArrow" transform="rotate(90) translate(36 -43)" onmousedown="handlePan(1,0)">
                  <use xlink:href="#rim" fill="#404040">
                        <set attributeName="fill" to="#808080" begin="arrowRight.mouseover" end="arrowRight.mouseout"/>
                  </use>
                  <path fill="none" stroke="white" stroke-width="1.5" d="M0,-3.0v7 M-2.5,-0.5L0,-3.0L2.5,-0.5"/>
                </g>
                <g id="arrowDown" xlink:href="#dirArrow" transform="rotate(180) translate(-30 -48)" onmousedown="handlePan(0,1)">
                  <use xlink:href="#rim" fill="#404040">
                        <set attributeName="fill" to="#808080" begin="arrowDown.mouseover" end="arrowDown.mouseout"/>
                  </use>
                  <path fill="none" stroke="white" stroke-width="1.5" d="M0,-3.0v7 M-2.5,-0.5L0,-3.0L2.5,-0.5"/>
                </g>
                <g id="arrowLeft" xlink:href="#dirArrow" transform="rotate(270) translate(-36 17)" onmousedown="handlePan(-1,0)">
                  <use xlink:href="#rim" fill="#404040">
                        <set attributeName="fill" to="#808080" begin="arrowLeft.mouseover" end="arrowLeft.mouseout"/>
                  </use>
                  <path fill="none" stroke="white" stroke-width="1.5" d="M0,-3.0v7 M-2.5,-0.5L0,-3.0L2.5,-0.5"/>
                </g>
        </g>
        <svg viewBox="0 0 15 15" width="100%" height="30px" preserveAspectRatio="xMaxYMin meet">
         <g id="arrow_out" transform="scale(0.3 0.3)">
          <a xlink:href="classMonoBehaviour__inherit__graph_org.svg" target="_base">
           <rect id="button" ry="5" rx="5" y="6" x="6" height="38" width="38"
                fill="#f2f5e9" fill-opacity="0.5" stroke="#606060" stroke-width="1.0"/>
           <path id="arrow"
             d="M 11.500037,31.436501 C 11.940474,20.09759 22.043105,11.32322 32.158766,21.979434 L 37.068811,17.246167 C 37.068811,17.246167 37.088388,32 37.088388,32 L 22.160133,31.978069 C 22.160133,31.978069 26.997745,27.140456 26.997745,27.140456 C 18.528582,18.264221 13.291696,25.230495 11.500037,31.436501 z"
             style="fill:#404040;"/>
          </a>
         </g>
        </svg>
</svg>
