<?xml version="1.0" encoding="UTF-8" standalone="no"?>
<!DOCTYPE svg PUBLIC "-//W3C//DTD SVG 1.1//EN"
 "http://www.w3.org/Graphics/SVG/1.1/DTD/svg11.dtd">
<!-- Generated by graphviz version 2.40.1 (20161225.0304)
 -->
<!-- Title: Track.AutoPathFollower Pages: 1 -->
<svg width="482pt" height="171pt"
 viewBox="0.00 0.00 482.00 171.00" xmlns="http://www.w3.org/2000/svg" xmlns:xlink="http://www.w3.org/1999/xlink">
<g id="graph0" class="graph" transform="scale(1 1) rotate(0) translate(4 167)">
<title>Track.AutoPathFollower</title>
<!-- Node1 -->
<g id="node1" class="node">
<title>Node1</title>
<g id="a_node1"><a xlink:title=" ">
<polygon fill="#999999" stroke="#666666" points="172,-.5 172,-57.5 294,-57.5 294,-.5 172,-.5"/>
<text text-anchor="middle" x="233" y="-45.5" font-family="Helvetica,sans-Serif" font-size="10.00" fill="#000000">Track.AutoPathFollower</text>
<polyline fill="none" stroke="#666666" points="172,-38.5 294,-38.5 "/>
<text text-anchor="middle" x="233" y="-26.5" font-family="Helvetica,sans-Serif" font-size="10.00" fill="#000000"> </text>
<polyline fill="none" stroke="#666666" points="172,-19.5 294,-19.5 "/>
<text text-anchor="middle" x="233" y="-7.5" font-family="Helvetica,sans-Serif" font-size="10.00" fill="#000000"> </text>
</a>
</g>
</g>
<!-- Node2 -->
<g id="node2" class="node">
<title>Node2</title>
<g id="a_node2"><a xlink:href="classMonoBehaviour.html" target="_top" xlink:title=" ">
<polygon fill="#ffffff" stroke="#666666" points="0,-105.5 0,-162.5 84,-162.5 84,-105.5 0,-105.5"/>
<text text-anchor="middle" x="42" y="-150.5" font-family="Helvetica,sans-Serif" font-size="10.00" fill="#000000">MonoBehaviour</text>
<polyline fill="none" stroke="#666666" points="0,-143.5 84,-143.5 "/>
<text text-anchor="middle" x="42" y="-131.5" font-family="Helvetica,sans-Serif" font-size="10.00" fill="#000000"> </text>
<polyline fill="none" stroke="#666666" points="0,-124.5 84,-124.5 "/>
<text text-anchor="middle" x="42" y="-112.5" font-family="Helvetica,sans-Serif" font-size="10.00" fill="#000000"> </text>
</a>
</g>
</g>
<!-- Node2&#45;&gt;Node1 -->
<g id="edge1" class="edge">
<title>Node2&#45;&gt;Node1</title>
<path fill="none" stroke="#63b8ff" d="M92.7327,-105.1486C92.8219,-105.099 92.911,-105.0495 93,-105 121.5259,-89.149 153.4994,-71.7634 179.6814,-57.6257"/>
<polygon fill="none" stroke="#63b8ff" points="91.2855,-101.9477 84.2647,-109.8824 94.7012,-108.0578 91.2855,-101.9477"/>
</g>
<!-- Node3 -->
<g id="node3" class="node">
<title>Node3</title>
<g id="a_node3"><a xlink:title=" ">
<polygon fill="#ffffff" stroke="#666666" points="102.5,-105.5 102.5,-162.5 171.5,-162.5 171.5,-105.5 102.5,-105.5"/>
<text text-anchor="middle" x="137" y="-150.5" font-family="Helvetica,sans-Serif" font-size="10.00" fill="#000000">PathCreator</text>
<polyline fill="none" stroke="#666666" points="102.5,-143.5 171.5,-143.5 "/>
<text text-anchor="middle" x="137" y="-131.5" font-family="Helvetica,sans-Serif" font-size="10.00" fill="#000000"> </text>
<polyline fill="none" stroke="#666666" points="102.5,-124.5 171.5,-124.5 "/>
<text text-anchor="middle" x="137" y="-112.5" font-family="Helvetica,sans-Serif" font-size="10.00" fill="#000000"> </text>
</a>
</g>
</g>
<!-- Node3&#45;&gt;Node1 -->
<g id="edge2" class="edge">
<title>Node3&#45;&gt;Node1</title>
<path fill="none" stroke="#404040" d="M149.139,-105.217C154.1174,-95.3317 160.4904,-84.6003 168,-76 171.1557,-72.386 174.6393,-68.8935 178.3054,-65.5552"/>
<polygon fill="none" stroke="#404040" points="178.552,-65.3464 180.5474,-58.4168 187.7114,-57.5935 185.716,-64.523 178.552,-65.3464"/>
<text text-anchor="middle" x="198.5" y="-79" font-family="Helvetica,sans-Serif" font-size="10.00" fill="#000000"> +pathCreator</text>
</g>
<!-- Node4 -->
<g id="node4" class="node">
<title>Node4</title>
<g id="a_node4"><a xlink:title=" ">
<polygon fill="#ffffff" stroke="#666666" points="190,-105.5 190,-162.5 300,-162.5 300,-105.5 190,-105.5"/>
<text text-anchor="middle" x="245" y="-150.5" font-family="Helvetica,sans-Serif" font-size="10.00" fill="#000000">EndOfPathInstruction</text>
<polyline fill="none" stroke="#666666" points="190,-143.5 300,-143.5 "/>
<text text-anchor="middle" x="245" y="-131.5" font-family="Helvetica,sans-Serif" font-size="10.00" fill="#000000"> </text>
<polyline fill="none" stroke="#666666" points="190,-124.5 300,-124.5 "/>
<text text-anchor="middle" x="245" y="-112.5" font-family="Helvetica,sans-Serif" font-size="10.00" fill="#000000"> </text>
</a>
</g>
</g>
<!-- Node4&#45;&gt;Node1 -->
<g id="edge3" class="edge">
<title>Node4&#45;&gt;Node1</title>
<path fill="none" stroke="#404040" d="M237.2735,-105.3419C235.9392,-99.3252 234.7437,-92.9877 234,-87 233.3182,-81.511 232.883,-75.7077 232.6198,-69.9775"/>
<polygon fill="none" stroke="#404040" points="232.6124,-69.6962 228.4525,-63.8059 232.2898,-57.7006 236.4496,-63.5909 232.6124,-69.6962"/>
<text text-anchor="middle" x="285" y="-79" font-family="Helvetica,sans-Serif" font-size="10.00" fill="#000000"> +endOfPathInstruction</text>
</g>
<!-- Node5 -->
<g id="node5" class="node">
<title>Node5</title>
<g id="a_node5"><a xlink:title=" ">
<polygon fill="#ffffff" stroke="#666666" points="340.5,-105.5 340.5,-162.5 375.5,-162.5 375.5,-105.5 340.5,-105.5"/>
<text text-anchor="middle" x="358" y="-150.5" font-family="Helvetica,sans-Serif" font-size="10.00" fill="#000000">float</text>
<polyline fill="none" stroke="#666666" points="340.5,-143.5 375.5,-143.5 "/>
<text text-anchor="middle" x="358" y="-131.5" font-family="Helvetica,sans-Serif" font-size="10.00" fill="#000000"> </text>
<polyline fill="none" stroke="#666666" points="340.5,-124.5 375.5,-124.5 "/>
<text text-anchor="middle" x="358" y="-112.5" font-family="Helvetica,sans-Serif" font-size="10.00" fill="#000000"> </text>
</a>
</g>
</g>
<!-- Node5&#45;&gt;Node1 -->
<g id="edge4" class="edge">
<title>Node5&#45;&gt;Node1</title>
<path fill="none" stroke="#404040" d="M351.9435,-105.2879C348.6247,-95.0668 343.5824,-84.0964 336,-76 327.3455,-66.7588 316.5251,-59.1924 305.1768,-53.0432"/>
<polygon fill="none" stroke="#404040" points="304.9309,-52.9208 297.777,-53.8279 294.1882,-47.5733 301.342,-46.6661 304.9309,-52.9208"/>
<text text-anchor="middle" x="361" y="-79" font-family="Helvetica,sans-Serif" font-size="10.00" fill="#000000"> +speed</text>
</g>
<!-- Node6 -->
<g id="node6" class="node">
<title>Node6</title>
<g id="a_node6"><a xlink:title=" ">
<polygon fill="#ffffff" stroke="#666666" points="394,-105.5 394,-162.5 474,-162.5 474,-105.5 394,-105.5"/>
<text text-anchor="middle" x="434" y="-150.5" font-family="Helvetica,sans-Serif" font-size="10.00" fill="#000000">GameManager</text>
<polyline fill="none" stroke="#666666" points="394,-143.5 474,-143.5 "/>
<text text-anchor="middle" x="434" y="-131.5" font-family="Helvetica,sans-Serif" font-size="10.00" fill="#000000"> </text>
<polyline fill="none" stroke="#666666" points="394,-124.5 474,-124.5 "/>
<text text-anchor="middle" x="434" y="-112.5" font-family="Helvetica,sans-Serif" font-size="10.00" fill="#000000"> </text>
</a>
</g>
</g>
<!-- Node6&#45;&gt;Node1 -->
<g id="edge5" class="edge">
<title>Node6&#45;&gt;Node1</title>
<path fill="none" stroke="#404040" d="M414.0201,-105.2789C405.5033,-94.8118 394.8028,-83.6754 383,-76 359.8869,-60.9695 331.6555,-50.4825 305.9453,-43.2937"/>
<polygon fill="none" stroke="#404040" points="305.9371,-43.2916 299.1128,-45.6216 294.3373,-40.2184 301.1616,-37.8884 305.9371,-43.2916"/>
<text text-anchor="middle" x="419.5" y="-79" font-family="Helvetica,sans-Serif" font-size="10.00" fill="#000000"> +manager</text>
</g>
</g>
</svg>
