<?xml version="1.0" encoding="UTF-8" standalone="no"?>
<!DOCTYPE svg PUBLIC "-//W3C//DTD SVG 1.1//EN"
 "http://www.w3.org/Graphics/SVG/1.1/DTD/svg11.dtd">
<!-- Generated by graphviz version 2.40.1 (20161225.0304)
 -->
<!-- Title: Track.ConePathPlacer Pages: 1 -->
<svg width="327pt" height="215pt"
 viewBox="0.00 0.00 326.50 215.00" xmlns="http://www.w3.org/2000/svg" xmlns:xlink="http://www.w3.org/1999/xlink">
<g id="graph0" class="graph" transform="scale(1 1) rotate(0) translate(4 211)">
<title>Track.ConePathPlacer</title>
<!-- Node1 -->
<g id="node1" class="node">
<title>Node1</title>
<g id="a_node1"><a xlink:title=" ">
<polygon fill="#999999" stroke="#666666" points="78.5,-.5 78.5,-57.5 194.5,-57.5 194.5,-.5 78.5,-.5"/>
<text text-anchor="middle" x="136.5" y="-45.5" font-family="Helvetica,sans-Serif" font-size="10.00" fill="#000000">Track.ConePathPlacer</text>
<polyline fill="none" stroke="#666666" points="78.5,-38.5 194.5,-38.5 "/>
<text text-anchor="middle" x="136.5" y="-26.5" font-family="Helvetica,sans-Serif" font-size="10.00" fill="#000000"> </text>
<polyline fill="none" stroke="#666666" points="78.5,-19.5 194.5,-19.5 "/>
<text text-anchor="start" x="86.5" y="-7.5" font-family="Helvetica,sans-Serif" font-size="10.00" fill="#000000"># PathUpdated()</text>
</a>
</g>
</g>
<!-- Node2 -->
<g id="node2" class="node">
<title>Node2</title>
<g id="a_node2"><a xlink:href="classPathSceneTool.html" target="_top" xlink:title=" ">
<polygon fill="#ffffff" stroke="#666666" points="0,-149.5 0,-206.5 83,-206.5 83,-149.5 0,-149.5"/>
<text text-anchor="middle" x="41.5" y="-194.5" font-family="Helvetica,sans-Serif" font-size="10.00" fill="#000000">PathSceneTool</text>
<polyline fill="none" stroke="#666666" points="0,-187.5 83,-187.5 "/>
<text text-anchor="middle" x="41.5" y="-175.5" font-family="Helvetica,sans-Serif" font-size="10.00" fill="#000000"> </text>
<polyline fill="none" stroke="#666666" points="0,-168.5 83,-168.5 "/>
<text text-anchor="middle" x="41.5" y="-156.5" font-family="Helvetica,sans-Serif" font-size="10.00" fill="#000000"> </text>
</a>
</g>
</g>
<!-- Node2&#45;&gt;Node1 -->
<g id="edge1" class="edge">
<title>Node2&#45;&gt;Node1</title>
<path fill="none" stroke="#63b8ff" d="M65.387,-140.5351C81.7807,-114.8229 103.2071,-81.2173 118.2393,-57.6405"/>
<polygon fill="none" stroke="#63b8ff" points="62.2419,-138.9577 59.817,-149.2713 68.1443,-142.721 62.2419,-138.9577"/>
</g>
<!-- Node3 -->
<g id="node3" class="node">
<title>Node3</title>
<g id="a_node3"><a xlink:title=" ">
<polygon fill="#ffffff" stroke="#666666" points="101,-149.5 101,-206.5 172,-206.5 172,-149.5 101,-149.5"/>
<text text-anchor="middle" x="136.5" y="-194.5" font-family="Helvetica,sans-Serif" font-size="10.00" fill="#000000">GameObject</text>
<polyline fill="none" stroke="#666666" points="101,-187.5 172,-187.5 "/>
<text text-anchor="middle" x="136.5" y="-175.5" font-family="Helvetica,sans-Serif" font-size="10.00" fill="#000000"> </text>
<polyline fill="none" stroke="#666666" points="101,-168.5 172,-168.5 "/>
<text text-anchor="middle" x="136.5" y="-156.5" font-family="Helvetica,sans-Serif" font-size="10.00" fill="#000000"> </text>
</a>
</g>
</g>
<!-- Node3&#45;&gt;Node1 -->
<g id="edge2" class="edge">
<title>Node3&#45;&gt;Node1</title>
<path fill="none" stroke="#404040" d="M136.5,-149.2713C136.5,-126.7002 136.5,-94.9774 136.5,-69.7784"/>
<polygon fill="none" stroke="#404040" points="136.5001,-69.6405 132.5,-63.6405 136.5,-57.6405 140.5,-63.6405 136.5001,-69.6405"/>
<text text-anchor="middle" x="191" y="-123" font-family="Helvetica,sans-Serif" font-size="10.00" fill="#000000"> +holder</text>
<text text-anchor="middle" x="191" y="-112" font-family="Helvetica,sans-Serif" font-size="10.00" fill="#000000">+leftConeprefab</text>
<text text-anchor="middle" x="191" y="-101" font-family="Helvetica,sans-Serif" font-size="10.00" fill="#000000">+leftStartingConeprefab</text>
<text text-anchor="middle" x="191" y="-90" font-family="Helvetica,sans-Serif" font-size="10.00" fill="#000000">+rightConeprefab</text>
<text text-anchor="middle" x="191" y="-79" font-family="Helvetica,sans-Serif" font-size="10.00" fill="#000000">+rightStartingConeprefab</text>
</g>
<!-- Node4 -->
<g id="node4" class="node">
<title>Node4</title>
<g id="a_node4"><a xlink:title=" ">
<polygon fill="#ffffff" stroke="#666666" points="251,-149.5 251,-206.5 286,-206.5 286,-149.5 251,-149.5"/>
<text text-anchor="middle" x="268.5" y="-194.5" font-family="Helvetica,sans-Serif" font-size="10.00" fill="#000000">float</text>
<polyline fill="none" stroke="#666666" points="251,-187.5 286,-187.5 "/>
<text text-anchor="middle" x="268.5" y="-175.5" font-family="Helvetica,sans-Serif" font-size="10.00" fill="#000000"> </text>
<polyline fill="none" stroke="#666666" points="251,-168.5 286,-168.5 "/>
<text text-anchor="middle" x="268.5" y="-156.5" font-family="Helvetica,sans-Serif" font-size="10.00" fill="#000000"> </text>
</a>
</g>
</g>
<!-- Node4&#45;&gt;Node1 -->
<g id="edge3" class="edge">
<title>Node4&#45;&gt;Node1</title>
<path fill="none" stroke="#404040" d="M269.1471,-149.4448C268.1838,-127.1258 263.4451,-96.543 246.5,-76 235.8663,-63.1085 221.0492,-53.6776 205.7292,-46.8055"/>
<polygon fill="none" stroke="#404040" points="205.649,-46.7728 198.5827,-48.2106 194.5377,-42.2409 201.604,-40.8031 205.649,-46.7728"/>
<text text-anchor="middle" x="292.5" y="-106.5" font-family="Helvetica,sans-Serif" font-size="10.00" fill="#000000"> +spacing</text>
<text text-anchor="middle" x="292.5" y="-95.5" font-family="Helvetica,sans-Serif" font-size="10.00" fill="#000000">+trackwidth</text>
</g>
</g>
</svg>
