<?xml version="1.0" encoding="UTF-8" standalone="no"?>
<!DOCTYPE svg PUBLIC "-//W3C//DTD SVG 1.1//EN"
 "http://www.w3.org/Graphics/SVG/1.1/DTD/svg11.dtd">
<!-- Generated by graphviz version 2.40.1 (20161225.0304)
 -->
<!-- Title: Car.Camera.CarCameraController Pages: 1 -->
<!--zoomable 171 -->
<svg id="main" version="1.1" xmlns="http://www.w3.org/2000/svg" xmlns:xlink="http://www.w3.org/1999/xlink" xml:space="preserve" onload="init(evt)">
<style type="text/css"><![CDATA[
.edge:hover path { stroke: red; }
.edge:hover polygon { stroke: red; fill: red; }
]]></style>
<script type="text/javascript"><![CDATA[
var edges = document.getElementsByTagName('g');
if (edges && edges.length) {
  for (var i=0;i<edges.length;i++) {
    if (edges[i].id.substr(0,4)=='edge') {
      edges[i].setAttribute('class','edge');
    }
  }
}
]]></script>
        <defs>
                <circle id="rim" cx="0" cy="0" r="7"/>
                <circle id="rim2" cx="0" cy="0" r="3.5"/>
                <g id="zoomPlus">
                        <use xlink:href="#rim" fill="#404040">
                                <set attributeName="fill" to="#808080" begin="zoomplus.mouseover" end="zoomplus.mouseout"/>
                        </use>
                        <path d="M-4,0h8M0,-4v8" fill="none" stroke="white" stroke-width="1.5" pointer-events="none"/>
                </g>
                <g id="zoomMin">
                        <use xlink:href="#rim" fill="#404040">
                                <set attributeName="fill" to="#808080" begin="zoomminus.mouseover" end="zoomminus.mouseout"/>
                        </use>
                        <path d="M-4,0h8" fill="none" stroke="white" stroke-width="1.5" pointer-events="none"/>
                </g>
                <g id="dirArrow">
                        <path fill="none" stroke="white" stroke-width="1.5" d="M0,-3.0v7 M-2.5,-0.5L0,-3.0L2.5,-0.5"/>
                </g>
               <g id="resetDef">
                       <use xlink:href="#rim2" fill="#404040">
                               <set attributeName="fill" to="#808080" begin="reset.mouseover" end="reset.mouseout"/>
                       </use>
               </g>
        </defs>

<script type="text/javascript">
var viewWidth = 544;
var viewHeight = 171;
var sectionId = 'dynsection-1';
</script>
<script xlink:href="svgpan.js"/>
<svg id="graph" class="graph">
<g id="viewport">
<title>Car.Camera.CarCameraController</title>
<!-- Node1 -->
<g id="node1" class="node">
<title>Node1</title>
<g id="a_node1"><a xlink:title=" ">
<polygon fill="#999999" stroke="#666666" points="166.5,-.5 166.5,-57.5 331.5,-57.5 331.5,-.5 166.5,-.5"/>
<text text-anchor="middle" x="249" y="-45.5" font-family="Helvetica,sans-Serif" font-size="10.00" fill="#000000">Car.Camera.CarCameraController</text>
<polyline fill="none" stroke="#666666" points="166.5,-38.5 331.5,-38.5 "/>
<text text-anchor="start" x="174.5" y="-26.5" font-family="Helvetica,sans-Serif" font-size="10.00" fill="#000000">+ Hz</text>
<polyline fill="none" stroke="#666666" points="166.5,-19.5 331.5,-19.5 "/>
<text text-anchor="start" x="174.5" y="-7.5" font-family="Helvetica,sans-Serif" font-size="10.00" fill="#000000">+ DrawConeRays()</text>
</a>
</g>
</g>
<!-- Node2 -->
<g id="node2" class="node">
<title>Node2</title>
<g id="a_node2"><a xlink:href="classMonoBehaviour.html" target="_top" xlink:title=" ">
<polygon fill="#ffffff" stroke="#666666" points="0,-105.5 0,-162.5 84,-162.5 84,-105.5 0,-105.5"/>
<text text-anchor="middle" x="42" y="-150.5" font-family="Helvetica,sans-Serif" font-size="10.00" fill="#000000">MonoBehaviour</text>
<polyline fill="none" stroke="#666666" points="0,-143.5 84,-143.5 "/>
<text text-anchor="middle" x="42" y="-131.5" font-family="Helvetica,sans-Serif" font-size="10.00" fill="#000000"> </text>
<polyline fill="none" stroke="#666666" points="0,-124.5 84,-124.5 "/>
<text text-anchor="middle" x="42" y="-112.5" font-family="Helvetica,sans-Serif" font-size="10.00" fill="#000000"> </text>
</a>
</g>
</g>
<!-- Node2&#45;&gt;Node1 -->
<g id="edge1" class="edge">
<title>Node2&#45;&gt;Node1</title>
<path fill="none" stroke="#63b8ff" d="M84.4727,-99.4517C95.9137,-91.0996 108.5744,-82.6693 121,-76 135.1837,-68.3871 150.8635,-61.5025 166.244,-55.4962"/>
<polygon fill="none" stroke="#63b8ff" points="82.2987,-96.7069 76.3783,-105.4932 86.4857,-102.3167 82.2987,-96.7069"/>
</g>
<!-- Node3 -->
<g id="node3" class="node">
<title>Node3</title>
<g id="a_node3"><a xlink:title=" ">
<polygon fill="#ffffff" stroke="#666666" points="102.5,-105.5 102.5,-162.5 137.5,-162.5 137.5,-105.5 102.5,-105.5"/>
<text text-anchor="middle" x="120" y="-150.5" font-family="Helvetica,sans-Serif" font-size="10.00" fill="#000000">float</text>
<polyline fill="none" stroke="#666666" points="102.5,-143.5 137.5,-143.5 "/>
<text text-anchor="middle" x="120" y="-131.5" font-family="Helvetica,sans-Serif" font-size="10.00" fill="#000000"> </text>
<polyline fill="none" stroke="#666666" points="102.5,-124.5 137.5,-124.5 "/>
<text text-anchor="middle" x="120" y="-112.5" font-family="Helvetica,sans-Serif" font-size="10.00" fill="#000000"> </text>
</a>
</g>
</g>
<!-- Node3&#45;&gt;Node1 -->
<g id="edge2" class="edge">
<title>Node3&#45;&gt;Node1</title>
<path fill="none" stroke="#404040" d="M120.4552,-105.3185C121.9365,-95.101 125.206,-84.125 132,-76 138.6107,-68.0942 146.7468,-61.5067 155.6237,-56.0199"/>
<polygon fill="none" stroke="#404040" points="155.8462,-55.8964 159.1503,-49.4868 166.3377,-50.0715 163.0335,-56.4811 155.8462,-55.8964"/>
<text text-anchor="middle" x="162" y="-79" font-family="Helvetica,sans-Serif" font-size="10.00" fill="#000000"> +rayDuration</text>
</g>
<!-- Node4 -->
<g id="node4" class="node">
<title>Node4</title>
<g id="a_node4"><a xlink:title=" ">
<polygon fill="#ffffff" stroke="#666666" points="159,-105.5 159,-162.5 243,-162.5 243,-105.5 159,-105.5"/>
<text text-anchor="middle" x="201" y="-150.5" font-family="Helvetica,sans-Serif" font-size="10.00" fill="#000000">Action&lt; byte[]&gt;</text>
<polyline fill="none" stroke="#666666" points="159,-143.5 243,-143.5 "/>
<text text-anchor="middle" x="201" y="-131.5" font-family="Helvetica,sans-Serif" font-size="10.00" fill="#000000"> </text>
<polyline fill="none" stroke="#666666" points="159,-124.5 243,-124.5 "/>
<text text-anchor="middle" x="201" y="-112.5" font-family="Helvetica,sans-Serif" font-size="10.00" fill="#000000"> </text>
</a>
</g>
</g>
<!-- Node4&#45;&gt;Node1 -->
<g id="edge3" class="edge">
<title>Node4&#45;&gt;Node1</title>
<path fill="none" stroke="#404040" d="M195.903,-105.3658C195.3675,-95.7058 196.1283,-85.0784 200,-76 201.2781,-73.003 202.8515,-70.1052 204.6414,-67.3202"/>
<polygon fill="none" stroke="#404040" points="204.658,-67.2985 205.1124,-60.1017 211.9304,-57.7532 211.4759,-64.95 204.658,-67.2985"/>
<text text-anchor="middle" x="235" y="-79" font-family="Helvetica,sans-Serif" font-size="10.00" fill="#000000"> +OnNewImage</text>
</g>
<!-- Node5 -->
<g id="node5" class="node">
<title>Node5</title>
<g id="a_node5"><a xlink:title=" ">
<polygon fill="#ffffff" stroke="#666666" points="261,-105.5 261,-162.5 331,-162.5 331,-105.5 261,-105.5"/>
<text text-anchor="middle" x="296" y="-150.5" font-family="Helvetica,sans-Serif" font-size="10.00" fill="#000000">UnityEngine</text>
<polyline fill="none" stroke="#666666" points="261,-143.5 331,-143.5 "/>
<text text-anchor="middle" x="296" y="-131.5" font-family="Helvetica,sans-Serif" font-size="10.00" fill="#000000"> </text>
<polyline fill="none" stroke="#666666" points="261,-124.5 331,-124.5 "/>
<text text-anchor="middle" x="296" y="-112.5" font-family="Helvetica,sans-Serif" font-size="10.00" fill="#000000"> </text>
</a>
</g>
</g>
<!-- Node5&#45;&gt;Node1 -->
<g id="edge4" class="edge">
<title>Node5&#45;&gt;Node1</title>
<path fill="none" stroke="#404040" d="M285.9642,-105.3859C282.4306,-95.9262 278.2694,-85.416 274,-76 272.8836,-73.5379 271.696,-71.0249 270.468,-68.5047"/>
<polygon fill="none" stroke="#404040" points="270.3401,-68.252 264.0616,-64.7051 264.9209,-57.5453 271.1994,-61.0923 270.3401,-68.252"/>
<text text-anchor="middle" x="307" y="-79" font-family="Helvetica,sans-Serif" font-size="10.00" fill="#000000"> +carCamera</text>
</g>
<!-- Node6 -->
<g id="node6" class="node">
<title>Node6</title>
<g id="a_node6"><a xlink:title=" ">
<polygon fill="#ffffff" stroke="#666666" points="349.5,-105.5 349.5,-162.5 436.5,-162.5 436.5,-105.5 349.5,-105.5"/>
<text text-anchor="middle" x="393" y="-150.5" font-family="Helvetica,sans-Serif" font-size="10.00" fill="#000000">ComputeShader</text>
<polyline fill="none" stroke="#666666" points="349.5,-143.5 436.5,-143.5 "/>
<text text-anchor="middle" x="393" y="-131.5" font-family="Helvetica,sans-Serif" font-size="10.00" fill="#000000"> </text>
<polyline fill="none" stroke="#666666" points="349.5,-124.5 436.5,-124.5 "/>
<text text-anchor="middle" x="393" y="-112.5" font-family="Helvetica,sans-Serif" font-size="10.00" fill="#000000"> </text>
</a>
</g>
</g>
<!-- Node6&#45;&gt;Node1 -->
<g id="edge5" class="edge">
<title>Node6&#45;&gt;Node1</title>
<path fill="none" stroke="#404040" d="M370.5285,-105.4697C361.7034,-95.3857 351.0458,-84.4597 340,-76 334.393,-71.7057 328.3353,-67.6126 322.1017,-63.7616"/>
<polygon fill="none" stroke="#404040" points="321.8346,-63.6044 314.6348,-64.0074 311.4936,-57.5164 318.6934,-57.1134 321.8346,-63.6044"/>
<text text-anchor="middle" x="390" y="-79" font-family="Helvetica,sans-Serif" font-size="10.00" fill="#000000"> +computeShader</text>
</g>
<!-- Node7 -->
<g id="node7" class="node">
<title>Node7</title>
<g id="a_node7"><a xlink:title=" ">
<polygon fill="#ffffff" stroke="#666666" points="454.5,-105.5 454.5,-162.5 535.5,-162.5 535.5,-105.5 454.5,-105.5"/>
<text text-anchor="middle" x="495" y="-150.5" font-family="Helvetica,sans-Serif" font-size="10.00" fill="#000000">RenderTexture</text>
<polyline fill="none" stroke="#666666" points="454.5,-143.5 535.5,-143.5 "/>
<text text-anchor="middle" x="495" y="-131.5" font-family="Helvetica,sans-Serif" font-size="10.00" fill="#000000"> </text>
<polyline fill="none" stroke="#666666" points="454.5,-124.5 535.5,-124.5 "/>
<text text-anchor="middle" x="495" y="-112.5" font-family="Helvetica,sans-Serif" font-size="10.00" fill="#000000"> </text>
</a>
</g>
</g>
<!-- Node7&#45;&gt;Node1 -->
<g id="edge6" class="edge">
<title>Node7&#45;&gt;Node1</title>
<path fill="none" stroke="#404040" d="M470.2004,-105.3273C459.6882,-94.7393 446.7032,-83.5054 433,-76 405.5572,-60.9693 373.1745,-50.6237 343.2858,-43.5551"/>
<polygon fill="none" stroke="#404040" points="343.2397,-43.5448 336.5079,-46.1299 331.5325,-40.9101 338.2643,-38.325 343.2397,-43.5448"/>
<text text-anchor="middle" x="483" y="-79" font-family="Helvetica,sans-Serif" font-size="10.00" fill="#000000"> +renderTexture</text>
</g>
</g>
</svg>
        <g id="navigator" transform="translate(0 0)" fill="#404254">
                <rect fill="#f2f5e9" fill-opacity="0.5" stroke="#606060" stroke-width=".5" x="0" y="0" width="60" height="60"/>
                <use id="zoomplus" xlink:href="#zoomPlus" x="17" y="9" onmousedown="handleZoom(evt,'in')"/>
                <use id="zoomminus" xlink:href="#zoomMin" x="42" y="9" onmousedown="handleZoom(evt,'out')"/>
                <use id="reset" xlink:href="#resetDef" x="30" y="36" onmousedown="handleReset()"/>
                <g id="arrowUp" xlink:href="#dirArrow" transform="translate(30 24)" onmousedown="handlePan(0,-1)">
                  <use xlink:href="#rim" fill="#404040">
                        <set attributeName="fill" to="#808080" begin="arrowUp.mouseover" end="arrowUp.mouseout"/>
                  </use>
                  <path fill="none" stroke="white" stroke-width="1.5" d="M0,-3.0v7 M-2.5,-0.5L0,-3.0L2.5,-0.5"/>
                </g>
                <g id="arrowRight" xlink:href="#dirArrow" transform="rotate(90) translate(36 -43)" onmousedown="handlePan(1,0)">
                  <use xlink:href="#rim" fill="#404040">
                        <set attributeName="fill" to="#808080" begin="arrowRight.mouseover" end="arrowRight.mouseout"/>
                  </use>
                  <path fill="none" stroke="white" stroke-width="1.5" d="M0,-3.0v7 M-2.5,-0.5L0,-3.0L2.5,-0.5"/>
                </g>
                <g id="arrowDown" xlink:href="#dirArrow" transform="rotate(180) translate(-30 -48)" onmousedown="handlePan(0,1)">
                  <use xlink:href="#rim" fill="#404040">
                        <set attributeName="fill" to="#808080" begin="arrowDown.mouseover" end="arrowDown.mouseout"/>
                  </use>
                  <path fill="none" stroke="white" stroke-width="1.5" d="M0,-3.0v7 M-2.5,-0.5L0,-3.0L2.5,-0.5"/>
                </g>
                <g id="arrowLeft" xlink:href="#dirArrow" transform="rotate(270) translate(-36 17)" onmousedown="handlePan(-1,0)">
                  <use xlink:href="#rim" fill="#404040">
                        <set attributeName="fill" to="#808080" begin="arrowLeft.mouseover" end="arrowLeft.mouseout"/>
                  </use>
                  <path fill="none" stroke="white" stroke-width="1.5" d="M0,-3.0v7 M-2.5,-0.5L0,-3.0L2.5,-0.5"/>
                </g>
        </g>
        <svg viewBox="0 0 15 15" width="100%" height="30px" preserveAspectRatio="xMaxYMin meet">
         <g id="arrow_out" transform="scale(0.3 0.3)">
          <a xlink:href="classCar_1_1Camera_1_1CarCameraController__coll__graph_org.svg" target="_base">
           <rect id="button" ry="5" rx="5" y="6" x="6" height="38" width="38"
                fill="#f2f5e9" fill-opacity="0.5" stroke="#606060" stroke-width="1.0"/>
           <path id="arrow"
             d="M 11.500037,31.436501 C 11.940474,20.09759 22.043105,11.32322 32.158766,21.979434 L 37.068811,17.246167 C 37.068811,17.246167 37.088388,32 37.088388,32 L 22.160133,31.978069 C 22.160133,31.978069 26.997745,27.140456 26.997745,27.140456 C 18.528582,18.264221 13.291696,25.230495 11.500037,31.436501 z"
             style="fill:#404040;"/>
          </a>
         </g>
        </svg>
</svg>
