<?xml version="1.0" encoding="UTF-8" standalone="no"?>
<!DOCTYPE svg PUBLIC "-//W3C//DTD SVG 1.1//EN"
 "http://www.w3.org/Graphics/SVG/1.1/DTD/svg11.dtd">
<!-- Generated by graphviz version 2.40.1 (20161225.0304)
 -->
<!-- Title: Communication.Messages.CarStateMessage Pages: 1 -->
<svg width="160pt" height="182pt"
 viewBox="0.00 0.00 160.00 182.00" xmlns="http://www.w3.org/2000/svg" xmlns:xlink="http://www.w3.org/1999/xlink">
<g id="graph0" class="graph" transform="scale(1 1) rotate(0) translate(4 178)">
<title>Communication.Messages.CarStateMessage</title>
<!-- Node1 -->
<g id="node1" class="node">
<title>Node1</title>
<g id="a_node1"><a xlink:title=" ">
<polygon fill="#999999" stroke="#666666" points="0,-.5 0,-79.5 152,-79.5 152,-.5 0,-.5"/>
<text text-anchor="start" x="8" y="-67.5" font-family="Helvetica,sans-Serif" font-size="10.00" fill="#000000">Communication.Messages.Car</text>
<text text-anchor="middle" x="76" y="-56.5" font-family="Helvetica,sans-Serif" font-size="10.00" fill="#000000">StateMessage</text>
<polyline fill="none" stroke="#666666" points="0,-49.5 152,-49.5 "/>
<text text-anchor="start" x="8" y="-37.5" font-family="Helvetica,sans-Serif" font-size="10.00" fill="#000000">+ speed_actual</text>
<text text-anchor="start" x="8" y="-26.5" font-family="Helvetica,sans-Serif" font-size="10.00" fill="#000000">+ yaw_rate</text>
<polyline fill="none" stroke="#666666" points="0,-19.5 152,-19.5 "/>
<text text-anchor="middle" x="76" y="-7.5" font-family="Helvetica,sans-Serif" font-size="10.00" fill="#000000"> </text>
</a>
</g>
</g>
<!-- Node2 -->
<g id="node2" class="node">
<title>Node2</title>
<g id="a_node2"><a xlink:href="classCommunication_1_1Messages_1_1BaseMessage.html" target="_top" xlink:title=" ">
<polygon fill="#ffffff" stroke="#666666" points="29,-116.5 29,-173.5 123,-173.5 123,-116.5 29,-116.5"/>
<text text-anchor="middle" x="76" y="-161.5" font-family="Helvetica,sans-Serif" font-size="10.00" fill="#000000">BaseMessage</text>
<polyline fill="none" stroke="#666666" points="29,-154.5 123,-154.5 "/>
<text text-anchor="start" x="37" y="-142.5" font-family="Helvetica,sans-Serif" font-size="10.00" fill="#000000">+ time_stamp</text>
<polyline fill="none" stroke="#666666" points="29,-135.5 123,-135.5 "/>
<text text-anchor="start" x="37" y="-123.5" font-family="Helvetica,sans-Serif" font-size="10.00" fill="#000000">+ BaseMessage()</text>
</a>
</g>
</g>
<!-- Node2&#45;&gt;Node1 -->
<g id="edge1" class="edge">
<title>Node2&#45;&gt;Node1</title>
<path fill="none" stroke="#63b8ff" d="M76,-106.1156C76,-97.4889 76,-88.3353 76,-79.6773"/>
<polygon fill="none" stroke="#63b8ff" points="72.5001,-106.3083 76,-116.3083 79.5001,-106.3083 72.5001,-106.3083"/>
</g>
</g>
</svg>
