<?xml version="1.0" encoding="UTF-8" standalone="no"?>
<!DOCTYPE svg PUBLIC "-//W3C//DTD SVG 1.1//EN"
 "http://www.w3.org/Graphics/SVG/1.1/DTD/svg11.dtd">
<!-- Generated by graphviz version 2.40.1 (20161225.0304)
 -->
<!-- Title: Communication.Messages.BaseMessage Pages: 1 -->
<svg width="543pt" height="248pt"
 viewBox="0.00 0.00 542.50 248.00" xmlns="http://www.w3.org/2000/svg" xmlns:xlink="http://www.w3.org/1999/xlink">
<g id="graph0" class="graph" transform="scale(1 1) rotate(0) translate(4 244)">
<title>Communication.Messages.BaseMessage</title>
<!-- Node1 -->
<g id="node1" class="node">
<title>Node1</title>
<g id="a_node1"><a xlink:title=" ">
<polygon fill="#999999" stroke="#666666" points="175,-171.5 175,-239.5 333,-239.5 333,-171.5 175,-171.5"/>
<text text-anchor="start" x="183" y="-227.5" font-family="Helvetica,sans-Serif" font-size="10.00" fill="#000000">Communication.Messages.Base</text>
<text text-anchor="middle" x="254" y="-216.5" font-family="Helvetica,sans-Serif" font-size="10.00" fill="#000000">Message</text>
<polyline fill="none" stroke="#666666" points="175,-209.5 333,-209.5 "/>
<text text-anchor="start" x="183" y="-197.5" font-family="Helvetica,sans-Serif" font-size="10.00" fill="#000000">+ time_stamp</text>
<polyline fill="none" stroke="#666666" points="175,-190.5 333,-190.5 "/>
<text text-anchor="start" x="183" y="-178.5" font-family="Helvetica,sans-Serif" font-size="10.00" fill="#000000">+ BaseMessage()</text>
</a>
</g>
</g>
<!-- Node2 -->
<g id="node2" class="node">
<title>Node2</title>
<g id="a_node2"><a xlink:href="classCommunication_1_1Messages_1_1CarStateMessage.html" target="_top" xlink:title=" ">
<polygon fill="#ffffff" stroke="#666666" points="0,-28 0,-107 152,-107 152,-28 0,-28"/>
<text text-anchor="start" x="8" y="-95" font-family="Helvetica,sans-Serif" font-size="10.00" fill="#000000">Communication.Messages.Car</text>
<text text-anchor="middle" x="76" y="-84" font-family="Helvetica,sans-Serif" font-size="10.00" fill="#000000">StateMessage</text>
<polyline fill="none" stroke="#666666" points="0,-77 152,-77 "/>
<text text-anchor="start" x="8" y="-65" font-family="Helvetica,sans-Serif" font-size="10.00" fill="#000000">+ speed_actual</text>
<text text-anchor="start" x="8" y="-54" font-family="Helvetica,sans-Serif" font-size="10.00" fill="#000000">+ yaw_rate</text>
<polyline fill="none" stroke="#666666" points="0,-47 152,-47 "/>
<text text-anchor="middle" x="76" y="-35" font-family="Helvetica,sans-Serif" font-size="10.00" fill="#000000"> </text>
</a>
</g>
</g>
<!-- Node1&#45;&gt;Node2 -->
<g id="edge1" class="edge">
<title>Node1&#45;&gt;Node2</title>
<path fill="none" stroke="#63b8ff" d="M200.7702,-164.8763C188.0458,-155.1194 174.522,-144.7115 162,-135 150.4513,-126.0434 138.0695,-116.3681 126.4006,-107.2167"/>
<polygon fill="none" stroke="#63b8ff" points="198.9313,-167.8766 208.998,-171.1802 203.1886,-162.32 198.9313,-167.8766"/>
</g>
<!-- Node3 -->
<g id="node3" class="node">
<title>Node3</title>
<g id="a_node3"><a xlink:href="classCommunication_1_1Messages_1_1ControlResultMessage.html" target="_top" xlink:title=" ">
<polygon fill="#ffffff" stroke="#666666" points="170.5,-.5 170.5,-134.5 337.5,-134.5 337.5,-.5 170.5,-.5"/>
<text text-anchor="start" x="178.5" y="-122.5" font-family="Helvetica,sans-Serif" font-size="10.00" fill="#000000">Communication.Messages.Control</text>
<text text-anchor="middle" x="254" y="-111.5" font-family="Helvetica,sans-Serif" font-size="10.00" fill="#000000">ResultMessage</text>
<polyline fill="none" stroke="#666666" points="170.5,-104.5 337.5,-104.5 "/>
<text text-anchor="start" x="178.5" y="-92.5" font-family="Helvetica,sans-Serif" font-size="10.00" fill="#000000">+ speed_target</text>
<text text-anchor="start" x="178.5" y="-81.5" font-family="Helvetica,sans-Serif" font-size="10.00" fill="#000000">+ steering_angle_target</text>
<text text-anchor="start" x="178.5" y="-70.5" font-family="Helvetica,sans-Serif" font-size="10.00" fill="#000000">+ brake_hydr_target</text>
<text text-anchor="start" x="178.5" y="-59.5" font-family="Helvetica,sans-Serif" font-size="10.00" fill="#000000">+ motor_moment_target</text>
<text text-anchor="start" x="178.5" y="-48.5" font-family="Helvetica,sans-Serif" font-size="10.00" fill="#000000">+ lap_counter</text>
<text text-anchor="start" x="178.5" y="-37.5" font-family="Helvetica,sans-Serif" font-size="10.00" fill="#000000">+ cones_count_actual</text>
<text text-anchor="start" x="178.5" y="-26.5" font-family="Helvetica,sans-Serif" font-size="10.00" fill="#000000">+ cones_count_all</text>
<polyline fill="none" stroke="#666666" points="170.5,-19.5 337.5,-19.5 "/>
<text text-anchor="middle" x="254" y="-7.5" font-family="Helvetica,sans-Serif" font-size="10.00" fill="#000000"> </text>
</a>
</g>
</g>
<!-- Node1&#45;&gt;Node3 -->
<g id="edge2" class="edge">
<title>Node1&#45;&gt;Node3</title>
<path fill="none" stroke="#63b8ff" d="M254,-161.3243C254,-152.8027 254,-143.6982 254,-134.6366"/>
<polygon fill="none" stroke="#63b8ff" points="250.5001,-161.3876 254,-171.3876 257.5001,-161.3877 250.5001,-161.3876"/>
</g>
<!-- Node4 -->
<g id="node4" class="node">
<title>Node4</title>
<g id="a_node4"><a xlink:href="classCommunication_1_1Messages_1_1PerceivedConesMessage.html" target="_top" xlink:title=" ">
<polygon fill="#ffffff" stroke="#666666" points="355.5,-33.5 355.5,-101.5 534.5,-101.5 534.5,-33.5 355.5,-33.5"/>
<text text-anchor="start" x="363.5" y="-89.5" font-family="Helvetica,sans-Serif" font-size="10.00" fill="#000000">Communication.Messages.Perceived</text>
<text text-anchor="middle" x="445" y="-78.5" font-family="Helvetica,sans-Serif" font-size="10.00" fill="#000000">ConesMessage</text>
<polyline fill="none" stroke="#666666" points="355.5,-71.5 534.5,-71.5 "/>
<text text-anchor="start" x="363.5" y="-59.5" font-family="Helvetica,sans-Serif" font-size="10.00" fill="#000000">+ cones</text>
<polyline fill="none" stroke="#666666" points="355.5,-52.5 534.5,-52.5 "/>
<text text-anchor="middle" x="445" y="-40.5" font-family="Helvetica,sans-Serif" font-size="10.00" fill="#000000"> </text>
</a>
</g>
</g>
<!-- Node1&#45;&gt;Node4 -->
<g id="edge3" class="edge">
<title>Node1&#45;&gt;Node4</title>
<path fill="none" stroke="#63b8ff" d="M309.3221,-165.5291C337.2992,-145.3152 370.9025,-121.0364 397.6677,-101.6982"/>
<polygon fill="none" stroke="#63b8ff" points="307.2694,-162.6941 301.2135,-171.3876 311.369,-168.3681 307.2694,-162.6941"/>
</g>
</g>
</svg>
