<?xml version="1.0" encoding="UTF-8" standalone="no"?>
<!DOCTYPE svg PUBLIC "-//W3C//DTD SVG 1.1//EN"
 "http://www.w3.org/Graphics/SVG/1.1/DTD/svg11.dtd">
<!-- Generated by graphviz version 2.40.1 (20161225.0304)
 -->
<!-- Title: TrackManager Pages: 1 -->
<svg width="307pt" height="182pt"
 viewBox="0.00 0.00 307.00 182.00" xmlns="http://www.w3.org/2000/svg" xmlns:xlink="http://www.w3.org/1999/xlink">
<g id="graph0" class="graph" transform="scale(1 1) rotate(0) translate(4 178)">
<title>TrackManager</title>
<!-- Node1 -->
<g id="node1" class="node">
<title>Node1</title>
<g id="a_node1"><a xlink:title="This Class is Responsible for changing the Track.">
<polygon fill="#999999" stroke="#666666" points="115.5,-.5 115.5,-57.5 194.5,-57.5 194.5,-.5 115.5,-.5"/>
<text text-anchor="middle" x="155" y="-45.5" font-family="Helvetica,sans-Serif" font-size="10.00" fill="#000000">TrackManager</text>
<polyline fill="none" stroke="#666666" points="115.5,-38.5 194.5,-38.5 "/>
<text text-anchor="middle" x="155" y="-26.5" font-family="Helvetica,sans-Serif" font-size="10.00" fill="#000000"> </text>
<polyline fill="none" stroke="#666666" points="115.5,-19.5 194.5,-19.5 "/>
<text text-anchor="start" x="123.5" y="-7.5" font-family="Helvetica,sans-Serif" font-size="10.00" fill="#000000">+ SetTrack()</text>
</a>
</g>
</g>
<!-- Node2 -->
<g id="node2" class="node">
<title>Node2</title>
<g id="a_node2"><a xlink:href="classMonoBehaviour.html" target="_top" xlink:title=" ">
<polygon fill="#ffffff" stroke="#666666" points="0,-116.5 0,-173.5 84,-173.5 84,-116.5 0,-116.5"/>
<text text-anchor="middle" x="42" y="-161.5" font-family="Helvetica,sans-Serif" font-size="10.00" fill="#000000">MonoBehaviour</text>
<polyline fill="none" stroke="#666666" points="0,-154.5 84,-154.5 "/>
<text text-anchor="middle" x="42" y="-142.5" font-family="Helvetica,sans-Serif" font-size="10.00" fill="#000000"> </text>
<polyline fill="none" stroke="#666666" points="0,-135.5 84,-135.5 "/>
<text text-anchor="middle" x="42" y="-123.5" font-family="Helvetica,sans-Serif" font-size="10.00" fill="#000000"> </text>
</a>
</g>
</g>
<!-- Node2&#45;&gt;Node1 -->
<g id="edge1" class="edge">
<title>Node2&#45;&gt;Node1</title>
<path fill="none" stroke="#63b8ff" d="M77.0956,-108.9727C93.1499,-92.4922 111.9098,-73.2342 126.9971,-57.7463"/>
<polygon fill="none" stroke="#63b8ff" points="74.4034,-106.7205 69.9326,-116.3258 79.4175,-111.605 74.4034,-106.7205"/>
</g>
<!-- Node3 -->
<g id="node3" class="node">
<title>Node3</title>
<g id="a_node3"><a xlink:title=" ">
<polygon fill="#ffffff" stroke="#666666" points="102.5,-116.5 102.5,-173.5 207.5,-173.5 207.5,-116.5 102.5,-116.5"/>
<text text-anchor="middle" x="155" y="-161.5" font-family="Helvetica,sans-Serif" font-size="10.00" fill="#000000">List&lt; GameObject &gt;</text>
<polyline fill="none" stroke="#666666" points="102.5,-154.5 207.5,-154.5 "/>
<text text-anchor="middle" x="155" y="-142.5" font-family="Helvetica,sans-Serif" font-size="10.00" fill="#000000"> </text>
<polyline fill="none" stroke="#666666" points="102.5,-135.5 207.5,-135.5 "/>
<text text-anchor="middle" x="155" y="-123.5" font-family="Helvetica,sans-Serif" font-size="10.00" fill="#000000"> </text>
</a>
</g>
</g>
<!-- Node3&#45;&gt;Node1 -->
<g id="edge2" class="edge">
<title>Node3&#45;&gt;Node1</title>
<path fill="none" stroke="#404040" d="M155,-116.3258C155,-102.3834 155,-85.3727 155,-70.0815"/>
<polygon fill="none" stroke="#404040" points="155.0001,-69.7463 151,-63.7464 155,-57.7463 159,-63.7463 155.0001,-69.7463"/>
<text text-anchor="middle" x="183" y="-90" font-family="Helvetica,sans-Serif" font-size="10.00" fill="#000000"> +TrackImgs</text>
<text text-anchor="middle" x="183" y="-79" font-family="Helvetica,sans-Serif" font-size="10.00" fill="#000000">+Tracks</text>
</g>
<!-- Node4 -->
<g id="node4" class="node">
<title>Node4</title>
<g id="a_node4"><a xlink:title=" ">
<polygon fill="#ffffff" stroke="#666666" points="225.5,-116.5 225.5,-173.5 296.5,-173.5 296.5,-116.5 225.5,-116.5"/>
<text text-anchor="middle" x="261" y="-161.5" font-family="Helvetica,sans-Serif" font-size="10.00" fill="#000000">GameObject</text>
<polyline fill="none" stroke="#666666" points="225.5,-154.5 296.5,-154.5 "/>
<text text-anchor="middle" x="261" y="-142.5" font-family="Helvetica,sans-Serif" font-size="10.00" fill="#000000"> </text>
<polyline fill="none" stroke="#666666" points="225.5,-135.5 296.5,-135.5 "/>
<text text-anchor="middle" x="261" y="-123.5" font-family="Helvetica,sans-Serif" font-size="10.00" fill="#000000"> </text>
</a>
</g>
</g>
<!-- Node4&#45;&gt;Node1 -->
<g id="edge3" class="edge">
<title>Node4&#45;&gt;Node1</title>
<path fill="none" stroke="#404040" d="M244.7476,-116.3165C236.6765,-103.3041 226.2512,-88.1465 215,-76 211.5606,-72.2869 207.8095,-68.6341 203.9167,-65.1066"/>
<polygon fill="none" stroke="#404040" points="203.7498,-64.9629 196.5931,-64.0794 194.6561,-57.1333 201.8128,-58.0168 203.7498,-64.9629"/>
<text text-anchor="middle" x="265.5" y="-90" font-family="Helvetica,sans-Serif" font-size="10.00" fill="#000000"> +CurrentTrack</text>
<text text-anchor="middle" x="265.5" y="-79" font-family="Helvetica,sans-Serif" font-size="10.00" fill="#000000">+currentImg</text>
</g>
</g>
</svg>
