<?xml version="1.0" encoding="UTF-8" standalone="no"?>
<!DOCTYPE svg PUBLIC "-//W3C//DTD SVG 1.1//EN"
 "http://www.w3.org/Graphics/SVG/1.1/DTD/svg11.dtd">
<!-- Generated by graphviz version 2.40.1 (20161225.0304)
 -->
<!-- Title: getRenderTexture Pages: 1 -->
<svg width="103pt" height="160pt"
 viewBox="0.00 0.00 103.00 160.00" xmlns="http://www.w3.org/2000/svg" xmlns:xlink="http://www.w3.org/1999/xlink">
<g id="graph0" class="graph" transform="scale(1 1) rotate(0) translate(4 156)">
<title>getRenderTexture</title>
<!-- Node1 -->
<g id="node1" class="node">
<title>Node1</title>
<g id="a_node1"><a xlink:title=" ">
<polygon fill="#999999" stroke="#666666" points="0,-.5 0,-57.5 95,-57.5 95,-.5 0,-.5"/>
<text text-anchor="middle" x="47.5" y="-45.5" font-family="Helvetica,sans-Serif" font-size="10.00" fill="#000000">getRenderTexture</text>
<polyline fill="none" stroke="#666666" points="0,-38.5 95,-38.5 "/>
<text text-anchor="start" x="8" y="-26.5" font-family="Helvetica,sans-Serif" font-size="10.00" fill="#000000">+ CarCamera</text>
<polyline fill="none" stroke="#666666" points="0,-19.5 95,-19.5 "/>
<text text-anchor="middle" x="47.5" y="-7.5" font-family="Helvetica,sans-Serif" font-size="10.00" fill="#000000"> </text>
</a>
</g>
</g>
<!-- Node2 -->
<g id="node2" class="node">
<title>Node2</title>
<g id="a_node2"><a xlink:href="classMonoBehaviour.html" target="_top" xlink:title=" ">
<polygon fill="#ffffff" stroke="#666666" points="5.5,-94.5 5.5,-151.5 89.5,-151.5 89.5,-94.5 5.5,-94.5"/>
<text text-anchor="middle" x="47.5" y="-139.5" font-family="Helvetica,sans-Serif" font-size="10.00" fill="#000000">MonoBehaviour</text>
<polyline fill="none" stroke="#666666" points="5.5,-132.5 89.5,-132.5 "/>
<text text-anchor="middle" x="47.5" y="-120.5" font-family="Helvetica,sans-Serif" font-size="10.00" fill="#000000"> </text>
<polyline fill="none" stroke="#666666" points="5.5,-113.5 89.5,-113.5 "/>
<text text-anchor="middle" x="47.5" y="-101.5" font-family="Helvetica,sans-Serif" font-size="10.00" fill="#000000"> </text>
</a>
</g>
</g>
<!-- Node2&#45;&gt;Node1 -->
<g id="edge1" class="edge">
<title>Node2&#45;&gt;Node1</title>
<path fill="none" stroke="#63b8ff" d="M47.5,-84.1035C47.5,-75.2052 47.5,-65.9073 47.5,-57.538"/>
<polygon fill="none" stroke="#63b8ff" points="44.0001,-84.2861 47.5,-94.2861 51.0001,-84.2862 44.0001,-84.2861"/>
</g>
</g>
</svg>
