<?xml version="1.0" encoding="UTF-8" standalone="no"?>
<!DOCTYPE svg PUBLIC "-//W3C//DTD SVG 1.1//EN"
 "http://www.w3.org/Graphics/SVG/1.1/DTD/svg11.dtd">
<!-- Generated by graphviz version 2.40.1 (20161225.0304)
 -->
<!-- Title: Communication.Messages.Cone Pages: 1 -->
<svg width="169pt" height="193pt"
 viewBox="0.00 0.00 168.50 193.00" xmlns="http://www.w3.org/2000/svg" xmlns:xlink="http://www.w3.org/1999/xlink">
<g id="graph0" class="graph" transform="scale(1 1) rotate(0) translate(4 189)">
<title>Communication.Messages.Cone</title>
<!-- Node1 -->
<g id="node1" class="node">
<title>Node1</title>
<g id="a_node1"><a xlink:title=" ">
<polygon fill="#999999" stroke="#666666" points="0,-.5 0,-57.5 159,-57.5 159,-.5 0,-.5"/>
<text text-anchor="middle" x="79.5" y="-45.5" font-family="Helvetica,sans-Serif" font-size="10.00" fill="#000000">Communication.Messages.Cone</text>
<polyline fill="none" stroke="#666666" points="0,-38.5 159,-38.5 "/>
<text text-anchor="middle" x="79.5" y="-26.5" font-family="Helvetica,sans-Serif" font-size="10.00" fill="#000000"> </text>
<polyline fill="none" stroke="#666666" points="0,-19.5 159,-19.5 "/>
<text text-anchor="middle" x="79.5" y="-7.5" font-family="Helvetica,sans-Serif" font-size="10.00" fill="#000000"> </text>
</a>
</g>
</g>
<!-- Node2 -->
<g id="node2" class="node">
<title>Node2</title>
<g id="a_node2"><a xlink:title=" ">
<polygon fill="#ffffff" stroke="#666666" points="19,-127.5 19,-184.5 64,-184.5 64,-127.5 19,-127.5"/>
<text text-anchor="middle" x="41.5" y="-172.5" font-family="Helvetica,sans-Serif" font-size="10.00" fill="#000000">double</text>
<polyline fill="none" stroke="#666666" points="19,-165.5 64,-165.5 "/>
<text text-anchor="middle" x="41.5" y="-153.5" font-family="Helvetica,sans-Serif" font-size="10.00" fill="#000000"> </text>
<polyline fill="none" stroke="#666666" points="19,-146.5 64,-146.5 "/>
<text text-anchor="middle" x="41.5" y="-134.5" font-family="Helvetica,sans-Serif" font-size="10.00" fill="#000000"> </text>
</a>
</g>
</g>
<!-- Node2&#45;&gt;Node1 -->
<g id="edge1" class="edge">
<title>Node2&#45;&gt;Node1</title>
<path fill="none" stroke="#404040" d="M37.4728,-127.454C36.3407,-111.8274 36.7147,-92.3703 42.5,-76 43.4635,-73.2737 44.6551,-70.5845 46.0138,-67.9565"/>
<polygon fill="none" stroke="#404040" points="46.1145,-67.792 45.8385,-60.5861 52.3838,-57.5598 52.6599,-64.7657 46.1145,-67.792"/>
<text text-anchor="middle" x="69.5" y="-101" font-family="Helvetica,sans-Serif" font-size="10.00" fill="#000000"> +probability</text>
<text text-anchor="middle" x="69.5" y="-90" font-family="Helvetica,sans-Serif" font-size="10.00" fill="#000000">+x</text>
<text text-anchor="middle" x="69.5" y="-79" font-family="Helvetica,sans-Serif" font-size="10.00" fill="#000000">+y</text>
</g>
<!-- Node3 -->
<g id="node3" class="node">
<title>Node3</title>
<g id="a_node3"><a xlink:title=" ">
<polygon fill="#ffffff" stroke="#666666" points="98,-127.5 98,-184.5 139,-184.5 139,-127.5 98,-127.5"/>
<text text-anchor="middle" x="118.5" y="-172.5" font-family="Helvetica,sans-Serif" font-size="10.00" fill="#000000">string</text>
<polyline fill="none" stroke="#666666" points="98,-165.5 139,-165.5 "/>
<text text-anchor="middle" x="118.5" y="-153.5" font-family="Helvetica,sans-Serif" font-size="10.00" fill="#000000"> </text>
<polyline fill="none" stroke="#666666" points="98,-146.5 139,-146.5 "/>
<text text-anchor="middle" x="118.5" y="-134.5" font-family="Helvetica,sans-Serif" font-size="10.00" fill="#000000"> </text>
</a>
</g>
</g>
<!-- Node3&#45;&gt;Node1 -->
<g id="edge2" class="edge">
<title>Node3&#45;&gt;Node1</title>
<path fill="none" stroke="#404040" d="M111.2011,-127.3301C107.1546,-112.0129 101.8663,-92.8853 96.5,-76 95.7904,-73.7672 95.0414,-71.4826 94.2692,-69.182"/>
<polygon fill="none" stroke="#404040" points="94.2226,-69.0475 88.477,-64.6899 90.2896,-57.7103 96.0352,-62.0679 94.2226,-69.0475"/>
<text text-anchor="middle" x="133" y="-90" font-family="Helvetica,sans-Serif" font-size="10.00" fill="#000000"> +cone_type</text>
</g>
</g>
</svg>
