<?xml version="1.0" encoding="UTF-8" standalone="no"?>
<!DOCTYPE svg PUBLIC "-//W3C//DTD SVG 1.1//EN"
 "http://www.w3.org/Graphics/SVG/1.1/DTD/svg11.dtd">
<!-- Generated by graphviz version 2.40.1 (20161225.0304)
 -->
<!-- Title: AddTracks Pages: 1 -->
<svg width="319pt" height="287pt"
 viewBox="0.00 0.00 319.00 287.00" xmlns="http://www.w3.org/2000/svg" xmlns:xlink="http://www.w3.org/1999/xlink">
<g id="graph0" class="graph" transform="scale(1 1) rotate(0) translate(4 283)">
<title>AddTracks</title>
<!-- Node1 -->
<g id="node1" class="node">
<title>Node1</title>
<g id="a_node1"><a xlink:title="Helper class to add all tracks to the list of tracks when the simulator starts.">
<polygon fill="#999999" stroke="#666666" points="112,-.5 112,-57.5 176,-57.5 176,-.5 112,-.5"/>
<text text-anchor="middle" x="144" y="-45.5" font-family="Helvetica,sans-Serif" font-size="10.00" fill="#000000">AddTracks</text>
<polyline fill="none" stroke="#666666" points="112,-38.5 176,-38.5 "/>
<text text-anchor="middle" x="144" y="-26.5" font-family="Helvetica,sans-Serif" font-size="10.00" fill="#000000"> </text>
<polyline fill="none" stroke="#666666" points="112,-19.5 176,-19.5 "/>
<text text-anchor="middle" x="144" y="-7.5" font-family="Helvetica,sans-Serif" font-size="10.00" fill="#000000"> </text>
</a>
</g>
</g>
<!-- Node2 -->
<g id="node2" class="node">
<title>Node2</title>
<g id="a_node2"><a xlink:href="classMonoBehaviour.html" target="_top" xlink:title=" ">
<polygon fill="#ffffff" stroke="#666666" points="0,-221.5 0,-278.5 84,-278.5 84,-221.5 0,-221.5"/>
<text text-anchor="middle" x="42" y="-266.5" font-family="Helvetica,sans-Serif" font-size="10.00" fill="#000000">MonoBehaviour</text>
<polyline fill="none" stroke="#666666" points="0,-259.5 84,-259.5 "/>
<text text-anchor="middle" x="42" y="-247.5" font-family="Helvetica,sans-Serif" font-size="10.00" fill="#000000"> </text>
<polyline fill="none" stroke="#666666" points="0,-240.5 84,-240.5 "/>
<text text-anchor="middle" x="42" y="-228.5" font-family="Helvetica,sans-Serif" font-size="10.00" fill="#000000"> </text>
</a>
</g>
</g>
<!-- Node2&#45;&gt;Node1 -->
<g id="edge1" class="edge">
<title>Node2&#45;&gt;Node1</title>
<path fill="none" stroke="#63b8ff" d="M53.7911,-211.8806C63.5698,-182.1023 78.6458,-140.0352 96,-105 104.0351,-88.7784 114.6439,-71.6531 123.8442,-57.7738"/>
<polygon fill="none" stroke="#63b8ff" points="50.4335,-210.8884 50.6823,-221.4803 57.093,-213.0451 50.4335,-210.8884"/>
</g>
<!-- Node3 -->
<g id="node3" class="node">
<title>Node3</title>
<g id="a_node3"><a xlink:href="classTrackManager.html" target="_top" xlink:title="This Class is Responsible for changing the Track.">
<polygon fill="#ffffff" stroke="#666666" points="104.5,-105.5 104.5,-162.5 183.5,-162.5 183.5,-105.5 104.5,-105.5"/>
<text text-anchor="middle" x="144" y="-150.5" font-family="Helvetica,sans-Serif" font-size="10.00" fill="#000000">TrackManager</text>
<polyline fill="none" stroke="#666666" points="104.5,-143.5 183.5,-143.5 "/>
<text text-anchor="middle" x="144" y="-131.5" font-family="Helvetica,sans-Serif" font-size="10.00" fill="#000000"> </text>
<polyline fill="none" stroke="#666666" points="104.5,-124.5 183.5,-124.5 "/>
<text text-anchor="start" x="112.5" y="-112.5" font-family="Helvetica,sans-Serif" font-size="10.00" fill="#000000">+ SetTrack()</text>
</a>
</g>
</g>
<!-- Node2&#45;&gt;Node3 -->
<g id="edge3" class="edge">
<title>Node2&#45;&gt;Node3</title>
<path fill="none" stroke="#63b8ff" d="M74.0714,-213.5266C88.4755,-197.1455 105.2271,-178.0947 118.7231,-162.7463"/>
<polygon fill="none" stroke="#63b8ff" points="71.1885,-211.5049 67.2135,-221.3258 76.4453,-216.1273 71.1885,-211.5049"/>
</g>
<!-- Node3&#45;&gt;Node1 -->
<g id="edge2" class="edge">
<title>Node3&#45;&gt;Node1</title>
<path fill="none" stroke="#404040" d="M144,-105.3083C144,-94.4281 144,-81.817 144,-70.0192"/>
<polygon fill="none" stroke="#404040" points="144.0001,-69.657 140,-63.6571 144,-57.657 148,-63.657 144.0001,-69.657"/>
<text text-anchor="middle" x="178.5" y="-79" font-family="Helvetica,sans-Serif" font-size="10.00" fill="#000000"> +trackManager</text>
</g>
<!-- Node4 -->
<g id="node4" class="node">
<title>Node4</title>
<g id="a_node4"><a xlink:title=" ">
<polygon fill="#ffffff" stroke="#666666" points="102.5,-221.5 102.5,-278.5 207.5,-278.5 207.5,-221.5 102.5,-221.5"/>
<text text-anchor="middle" x="155" y="-266.5" font-family="Helvetica,sans-Serif" font-size="10.00" fill="#000000">List&lt; GameObject &gt;</text>
<polyline fill="none" stroke="#666666" points="102.5,-259.5 207.5,-259.5 "/>
<text text-anchor="middle" x="155" y="-247.5" font-family="Helvetica,sans-Serif" font-size="10.00" fill="#000000"> </text>
<polyline fill="none" stroke="#666666" points="102.5,-240.5 207.5,-240.5 "/>
<text text-anchor="middle" x="155" y="-228.5" font-family="Helvetica,sans-Serif" font-size="10.00" fill="#000000"> </text>
</a>
</g>
</g>
<!-- Node4&#45;&gt;Node3 -->
<g id="edge4" class="edge">
<title>Node4&#45;&gt;Node3</title>
<path fill="none" stroke="#404040" d="M152.2809,-221.3258C150.9588,-207.3834 149.3457,-190.3727 147.8957,-175.0815"/>
<polygon fill="none" stroke="#404040" points="147.8589,-174.6927 143.3103,-169.0972 146.7259,-162.7463 151.2745,-168.3419 147.8589,-174.6927"/>
<text text-anchor="middle" x="178" y="-195" font-family="Helvetica,sans-Serif" font-size="10.00" fill="#000000"> +TrackImgs</text>
<text text-anchor="middle" x="178" y="-184" font-family="Helvetica,sans-Serif" font-size="10.00" fill="#000000">+Tracks</text>
</g>
<!-- Node5 -->
<g id="node5" class="node">
<title>Node5</title>
<g id="a_node5"><a xlink:title=" ">
<polygon fill="#ffffff" stroke="#666666" points="225.5,-221.5 225.5,-278.5 296.5,-278.5 296.5,-221.5 225.5,-221.5"/>
<text text-anchor="middle" x="261" y="-266.5" font-family="Helvetica,sans-Serif" font-size="10.00" fill="#000000">GameObject</text>
<polyline fill="none" stroke="#666666" points="225.5,-259.5 296.5,-259.5 "/>
<text text-anchor="middle" x="261" y="-247.5" font-family="Helvetica,sans-Serif" font-size="10.00" fill="#000000"> </text>
<polyline fill="none" stroke="#666666" points="225.5,-240.5 296.5,-240.5 "/>
<text text-anchor="middle" x="261" y="-228.5" font-family="Helvetica,sans-Serif" font-size="10.00" fill="#000000"> </text>
</a>
</g>
</g>
<!-- Node5&#45;&gt;Node3 -->
<g id="edge5" class="edge">
<title>Node5&#45;&gt;Node3</title>
<path fill="none" stroke="#404040" d="M242.7496,-221.1882C233.7526,-208.1489 222.2199,-193.0055 210,-181 204.9217,-176.0108 199.2718,-171.1573 193.4749,-166.581"/>
<polygon fill="none" stroke="#404040" points="193.2315,-166.3972 186.0328,-165.9737 183.6551,-159.1659 190.8538,-159.5894 193.2315,-166.3972"/>
<text text-anchor="middle" x="261.5" y="-195" font-family="Helvetica,sans-Serif" font-size="10.00" fill="#000000"> +CurrentTrack</text>
<text text-anchor="middle" x="261.5" y="-184" font-family="Helvetica,sans-Serif" font-size="10.00" fill="#000000">+currentImg</text>
</g>
<!-- Node6 -->
<g id="node6" class="node">
<title>Node6</title>
<g id="a_node6"><a xlink:title=" ">
<polygon fill="#ffffff" stroke="#666666" points="202,-105.5 202,-162.5 296,-162.5 296,-105.5 202,-105.5"/>
<text text-anchor="middle" x="249" y="-150.5" font-family="Helvetica,sans-Serif" font-size="10.00" fill="#000000">MainMenuManger</text>
<polyline fill="none" stroke="#666666" points="202,-143.5 296,-143.5 "/>
<text text-anchor="middle" x="249" y="-131.5" font-family="Helvetica,sans-Serif" font-size="10.00" fill="#000000"> </text>
<polyline fill="none" stroke="#666666" points="202,-124.5 296,-124.5 "/>
<text text-anchor="middle" x="249" y="-112.5" font-family="Helvetica,sans-Serif" font-size="10.00" fill="#000000"> </text>
</a>
</g>
</g>
<!-- Node6&#45;&gt;Node1 -->
<g id="edge6" class="edge">
<title>Node6&#45;&gt;Node1</title>
<path fill="none" stroke="#404040" d="M236.7337,-105.2943C231.5836,-95.3055 224.9299,-84.4872 217,-76 208.1878,-66.5686 197.1029,-58.1879 186.2518,-51.2103"/>
<polygon fill="none" stroke="#404040" points="186.2478,-51.2079 179.0426,-51.5003 176.0015,-44.9618 183.2067,-44.6694 186.2478,-51.2079"/>
<text text-anchor="middle" x="267.5" y="-79" font-family="Helvetica,sans-Serif" font-size="10.00" fill="#000000"> +MainMenuManger</text>
</g>
</g>
</svg>
