<?xml version="1.0" encoding="UTF-8" standalone="no"?>
<!DOCTYPE svg PUBLIC "-//W3C//DTD SVG 1.1//EN"
 "http://www.w3.org/Graphics/SVG/1.1/DTD/svg11.dtd">
<!-- Generated by graphviz version 2.40.1 (20161225.0304)
 -->
<!-- Title: Communication.Messages.ControlResultMessage Pages: 1 -->
<svg width="356pt" height="320pt"
 viewBox="0.00 0.00 356.00 320.00" xmlns="http://www.w3.org/2000/svg" xmlns:xlink="http://www.w3.org/1999/xlink">
<g id="graph0" class="graph" transform="scale(1 1) rotate(0) translate(4 316)">
<title>Communication.Messages.ControlResultMessage</title>
<!-- Node1 -->
<g id="node1" class="node">
<title>Node1</title>
<g id="a_node1"><a xlink:title=" ">
<polygon fill="#999999" stroke="#666666" points="46.5,-.5 46.5,-68.5 213.5,-68.5 213.5,-.5 46.5,-.5"/>
<text text-anchor="start" x="54.5" y="-56.5" font-family="Helvetica,sans-Serif" font-size="10.00" fill="#000000">Communication.Messages.Control</text>
<text text-anchor="middle" x="130" y="-45.5" font-family="Helvetica,sans-Serif" font-size="10.00" fill="#000000">ResultMessage</text>
<polyline fill="none" stroke="#666666" points="46.5,-38.5 213.5,-38.5 "/>
<text text-anchor="middle" x="130" y="-26.5" font-family="Helvetica,sans-Serif" font-size="10.00" fill="#000000"> </text>
<polyline fill="none" stroke="#666666" points="46.5,-19.5 213.5,-19.5 "/>
<text text-anchor="middle" x="130" y="-7.5" font-family="Helvetica,sans-Serif" font-size="10.00" fill="#000000"> </text>
</a>
</g>
</g>
<!-- Node2 -->
<g id="node2" class="node">
<title>Node2</title>
<g id="a_node2"><a xlink:href="classCommunication_1_1Messages_1_1BaseMessage.html" target="_top" xlink:title=" ">
<polygon fill="#ffffff" stroke="#666666" points="0,-149.5 0,-206.5 94,-206.5 94,-149.5 0,-149.5"/>
<text text-anchor="middle" x="47" y="-194.5" font-family="Helvetica,sans-Serif" font-size="10.00" fill="#000000">BaseMessage</text>
<polyline fill="none" stroke="#666666" points="0,-187.5 94,-187.5 "/>
<text text-anchor="middle" x="47" y="-175.5" font-family="Helvetica,sans-Serif" font-size="10.00" fill="#000000"> </text>
<polyline fill="none" stroke="#666666" points="0,-168.5 94,-168.5 "/>
<text text-anchor="start" x="8" y="-156.5" font-family="Helvetica,sans-Serif" font-size="10.00" fill="#000000">+ BaseMessage()</text>
</a>
</g>
</g>
<!-- Node2&#45;&gt;Node1 -->
<g id="edge1" class="edge">
<title>Node2&#45;&gt;Node1</title>
<path fill="none" stroke="#63b8ff" d="M68.7025,-140.4782C81.5549,-118.2575 97.7158,-90.3166 110.2166,-68.7037"/>
<polygon fill="none" stroke="#63b8ff" points="65.5739,-138.8968 63.5968,-149.3055 71.6334,-142.4016 65.5739,-138.8968"/>
</g>
<!-- Node3 -->
<g id="node3" class="node">
<title>Node3</title>
<g id="a_node3"><a xlink:title=" ">
<polygon fill="#ffffff" stroke="#666666" points="29.5,-254.5 29.5,-311.5 64.5,-311.5 64.5,-254.5 29.5,-254.5"/>
<text text-anchor="middle" x="47" y="-299.5" font-family="Helvetica,sans-Serif" font-size="10.00" fill="#000000">long</text>
<polyline fill="none" stroke="#666666" points="29.5,-292.5 64.5,-292.5 "/>
<text text-anchor="middle" x="47" y="-280.5" font-family="Helvetica,sans-Serif" font-size="10.00" fill="#000000"> </text>
<polyline fill="none" stroke="#666666" points="29.5,-273.5 64.5,-273.5 "/>
<text text-anchor="middle" x="47" y="-261.5" font-family="Helvetica,sans-Serif" font-size="10.00" fill="#000000"> </text>
</a>
</g>
</g>
<!-- Node3&#45;&gt;Node2 -->
<g id="edge2" class="edge">
<title>Node3&#45;&gt;Node2</title>
<path fill="none" stroke="#404040" d="M47,-254.3083C47,-243.4281 47,-230.817 47,-219.0192"/>
<polygon fill="none" stroke="#404040" points="47.0001,-218.657 43,-212.6571 47,-206.657 51,-212.657 47.0001,-218.657"/>
<text text-anchor="middle" x="77.5" y="-228" font-family="Helvetica,sans-Serif" font-size="10.00" fill="#000000"> +time_stamp</text>
</g>
<!-- Node4 -->
<g id="node4" class="node">
<title>Node4</title>
<g id="a_node4"><a xlink:title=" ">
<polygon fill="#ffffff" stroke="#666666" points="112.5,-149.5 112.5,-206.5 147.5,-206.5 147.5,-149.5 112.5,-149.5"/>
<text text-anchor="middle" x="130" y="-194.5" font-family="Helvetica,sans-Serif" font-size="10.00" fill="#000000">float</text>
<polyline fill="none" stroke="#666666" points="112.5,-187.5 147.5,-187.5 "/>
<text text-anchor="middle" x="130" y="-175.5" font-family="Helvetica,sans-Serif" font-size="10.00" fill="#000000"> </text>
<polyline fill="none" stroke="#666666" points="112.5,-168.5 147.5,-168.5 "/>
<text text-anchor="middle" x="130" y="-156.5" font-family="Helvetica,sans-Serif" font-size="10.00" fill="#000000"> </text>
</a>
</g>
</g>
<!-- Node4&#45;&gt;Node1 -->
<g id="edge3" class="edge">
<title>Node4&#45;&gt;Node1</title>
<path fill="none" stroke="#404040" d="M130,-149.3055C130,-129.7064 130,-103.3057 130,-80.7629"/>
<polygon fill="none" stroke="#404040" points="130.0001,-80.7037 126,-74.7038 130,-68.7037 134,-74.7037 130.0001,-80.7037"/>
<text text-anchor="middle" x="181" y="-123" font-family="Helvetica,sans-Serif" font-size="10.00" fill="#000000"> +brake_hydr_target</text>
<text text-anchor="middle" x="181" y="-112" font-family="Helvetica,sans-Serif" font-size="10.00" fill="#000000">+motor_moment_target</text>
<text text-anchor="middle" x="181" y="-101" font-family="Helvetica,sans-Serif" font-size="10.00" fill="#000000">+speed_target</text>
<text text-anchor="middle" x="181" y="-90" font-family="Helvetica,sans-Serif" font-size="10.00" fill="#000000">+steering_angle_target</text>
</g>
<!-- Node5 -->
<g id="node5" class="node">
<title>Node5</title>
<g id="a_node5"><a xlink:title=" ">
<polygon fill="#ffffff" stroke="#666666" points="240.5,-149.5 240.5,-206.5 269.5,-206.5 269.5,-149.5 240.5,-149.5"/>
<text text-anchor="middle" x="255" y="-194.5" font-family="Helvetica,sans-Serif" font-size="10.00" fill="#000000">int</text>
<polyline fill="none" stroke="#666666" points="240.5,-187.5 269.5,-187.5 "/>
<text text-anchor="middle" x="255" y="-175.5" font-family="Helvetica,sans-Serif" font-size="10.00" fill="#000000"> </text>
<polyline fill="none" stroke="#666666" points="240.5,-168.5 269.5,-168.5 "/>
<text text-anchor="middle" x="255" y="-156.5" font-family="Helvetica,sans-Serif" font-size="10.00" fill="#000000"> </text>
</a>
</g>
</g>
<!-- Node5&#45;&gt;Node1 -->
<g id="edge4" class="edge">
<title>Node5&#45;&gt;Node1</title>
<path fill="none" stroke="#404040" d="M254.1872,-149.4625C252.2826,-130.0366 246.9998,-104.7323 233,-87 230.0073,-83.2094 226.6672,-79.6676 223.0715,-76.3613"/>
<polygon fill="none" stroke="#404040" points="222.9272,-76.2426 215.7523,-75.5207 213.6591,-68.6201 220.834,-69.342 222.9272,-76.2426"/>
<text text-anchor="middle" x="299.5" y="-117.5" font-family="Helvetica,sans-Serif" font-size="10.00" fill="#000000"> +cones_count_actual</text>
<text text-anchor="middle" x="299.5" y="-106.5" font-family="Helvetica,sans-Serif" font-size="10.00" fill="#000000">+cones_count_all</text>
<text text-anchor="middle" x="299.5" y="-95.5" font-family="Helvetica,sans-Serif" font-size="10.00" fill="#000000">+lap_counter</text>
</g>
</g>
</svg>
