<?xml version="1.0" encoding="UTF-8" standalone="no"?>
<!DOCTYPE svg PUBLIC "-//W3C//DTD SVG 1.1//EN"
 "http://www.w3.org/Graphics/SVG/1.1/DTD/svg11.dtd">
<!-- Generated by graphviz version 2.40.1 (20161225.0304)
 -->
<!-- Title: Communication.Messages.BaseMessage Pages: 1 -->
<!--zoomable 248 -->
<svg id="main" version="1.1" xmlns="http://www.w3.org/2000/svg" xmlns:xlink="http://www.w3.org/1999/xlink" xml:space="preserve" onload="init(evt)">
<style type="text/css"><![CDATA[
.edge:hover path { stroke: red; }
.edge:hover polygon { stroke: red; fill: red; }
]]></style>
<script type="text/javascript"><![CDATA[
var edges = document.getElementsByTagName('g');
if (edges && edges.length) {
  for (var i=0;i<edges.length;i++) {
    if (edges[i].id.substr(0,4)=='edge') {
      edges[i].setAttribute('class','edge');
    }
  }
}
]]></script>
        <defs>
                <circle id="rim" cx="0" cy="0" r="7"/>
                <circle id="rim2" cx="0" cy="0" r="3.5"/>
                <g id="zoomPlus">
                        <use xlink:href="#rim" fill="#404040">
                                <set attributeName="fill" to="#808080" begin="zoomplus.mouseover" end="zoomplus.mouseout"/>
                        </use>
                        <path d="M-4,0h8M0,-4v8" fill="none" stroke="white" stroke-width="1.5" pointer-events="none"/>
                </g>
                <g id="zoomMin">
                        <use xlink:href="#rim" fill="#404040">
                                <set attributeName="fill" to="#808080" begin="zoomminus.mouseover" end="zoomminus.mouseout"/>
                        </use>
                        <path d="M-4,0h8" fill="none" stroke="white" stroke-width="1.5" pointer-events="none"/>
                </g>
                <g id="dirArrow">
                        <path fill="none" stroke="white" stroke-width="1.5" d="M0,-3.0v7 M-2.5,-0.5L0,-3.0L2.5,-0.5"/>
                </g>
               <g id="resetDef">
                       <use xlink:href="#rim2" fill="#404040">
                               <set attributeName="fill" to="#808080" begin="reset.mouseover" end="reset.mouseout"/>
                       </use>
               </g>
        </defs>

<script type="text/javascript">
var viewWidth = 543;
var viewHeight = 248;
var sectionId = 'dynsection-0';
</script>
<script xlink:href="svgpan.js"/>
<svg id="graph" class="graph">
<g id="viewport">
<title>Communication.Messages.BaseMessage</title>
<!-- Node1 -->
<g id="node1" class="node">
<title>Node1</title>
<g id="a_node1"><a xlink:title=" ">
<polygon fill="#999999" stroke="#666666" points="175,-171.5 175,-239.5 333,-239.5 333,-171.5 175,-171.5"/>
<text text-anchor="start" x="183" y="-227.5" font-family="Helvetica,sans-Serif" font-size="10.00" fill="#000000">Communication.Messages.Base</text>
<text text-anchor="middle" x="254" y="-216.5" font-family="Helvetica,sans-Serif" font-size="10.00" fill="#000000">Message</text>
<polyline fill="none" stroke="#666666" points="175,-209.5 333,-209.5 "/>
<text text-anchor="start" x="183" y="-197.5" font-family="Helvetica,sans-Serif" font-size="10.00" fill="#000000">+ time_stamp</text>
<polyline fill="none" stroke="#666666" points="175,-190.5 333,-190.5 "/>
<text text-anchor="start" x="183" y="-178.5" font-family="Helvetica,sans-Serif" font-size="10.00" fill="#000000">+ BaseMessage()</text>
</a>
</g>
</g>
<!-- Node2 -->
<g id="node2" class="node">
<title>Node2</title>
<g id="a_node2"><a xlink:href="classCommunication_1_1Messages_1_1CarStateMessage.html" target="_top" xlink:title=" ">
<polygon fill="#ffffff" stroke="#666666" points="0,-28 0,-107 152,-107 152,-28 0,-28"/>
<text text-anchor="start" x="8" y="-95" font-family="Helvetica,sans-Serif" font-size="10.00" fill="#000000">Communication.Messages.Car</text>
<text text-anchor="middle" x="76" y="-84" font-family="Helvetica,sans-Serif" font-size="10.00" fill="#000000">StateMessage</text>
<polyline fill="none" stroke="#666666" points="0,-77 152,-77 "/>
<text text-anchor="start" x="8" y="-65" font-family="Helvetica,sans-Serif" font-size="10.00" fill="#000000">+ speed_actual</text>
<text text-anchor="start" x="8" y="-54" font-family="Helvetica,sans-Serif" font-size="10.00" fill="#000000">+ yaw_rate</text>
<polyline fill="none" stroke="#666666" points="0,-47 152,-47 "/>
<text text-anchor="middle" x="76" y="-35" font-family="Helvetica,sans-Serif" font-size="10.00" fill="#000000"> </text>
</a>
</g>
</g>
<!-- Node1&#45;&gt;Node2 -->
<g id="edge1" class="edge">
<title>Node1&#45;&gt;Node2</title>
<path fill="none" stroke="#63b8ff" d="M200.7702,-164.8763C188.0458,-155.1194 174.522,-144.7115 162,-135 150.4513,-126.0434 138.0695,-116.3681 126.4006,-107.2167"/>
<polygon fill="none" stroke="#63b8ff" points="198.9313,-167.8766 208.998,-171.1802 203.1886,-162.32 198.9313,-167.8766"/>
</g>
<!-- Node3 -->
<g id="node3" class="node">
<title>Node3</title>
<g id="a_node3"><a xlink:href="classCommunication_1_1Messages_1_1ControlResultMessage.html" target="_top" xlink:title=" ">
<polygon fill="#ffffff" stroke="#666666" points="170.5,-.5 170.5,-134.5 337.5,-134.5 337.5,-.5 170.5,-.5"/>
<text text-anchor="start" x="178.5" y="-122.5" font-family="Helvetica,sans-Serif" font-size="10.00" fill="#000000">Communication.Messages.Control</text>
<text text-anchor="middle" x="254" y="-111.5" font-family="Helvetica,sans-Serif" font-size="10.00" fill="#000000">ResultMessage</text>
<polyline fill="none" stroke="#666666" points="170.5,-104.5 337.5,-104.5 "/>
<text text-anchor="start" x="178.5" y="-92.5" font-family="Helvetica,sans-Serif" font-size="10.00" fill="#000000">+ speed_target</text>
<text text-anchor="start" x="178.5" y="-81.5" font-family="Helvetica,sans-Serif" font-size="10.00" fill="#000000">+ steering_angle_target</text>
<text text-anchor="start" x="178.5" y="-70.5" font-family="Helvetica,sans-Serif" font-size="10.00" fill="#000000">+ brake_hydr_target</text>
<text text-anchor="start" x="178.5" y="-59.5" font-family="Helvetica,sans-Serif" font-size="10.00" fill="#000000">+ motor_moment_target</text>
<text text-anchor="start" x="178.5" y="-48.5" font-family="Helvetica,sans-Serif" font-size="10.00" fill="#000000">+ lap_counter</text>
<text text-anchor="start" x="178.5" y="-37.5" font-family="Helvetica,sans-Serif" font-size="10.00" fill="#000000">+ cones_count_actual</text>
<text text-anchor="start" x="178.5" y="-26.5" font-family="Helvetica,sans-Serif" font-size="10.00" fill="#000000">+ cones_count_all</text>
<polyline fill="none" stroke="#666666" points="170.5,-19.5 337.5,-19.5 "/>
<text text-anchor="middle" x="254" y="-7.5" font-family="Helvetica,sans-Serif" font-size="10.00" fill="#000000"> </text>
</a>
</g>
</g>
<!-- Node1&#45;&gt;Node3 -->
<g id="edge2" class="edge">
<title>Node1&#45;&gt;Node3</title>
<path fill="none" stroke="#63b8ff" d="M254,-161.3243C254,-152.8027 254,-143.6982 254,-134.6366"/>
<polygon fill="none" stroke="#63b8ff" points="250.5001,-161.3876 254,-171.3876 257.5001,-161.3877 250.5001,-161.3876"/>
</g>
<!-- Node4 -->
<g id="node4" class="node">
<title>Node4</title>
<g id="a_node4"><a xlink:href="classCommunication_1_1Messages_1_1PerceivedConesMessage.html" target="_top" xlink:title=" ">
<polygon fill="#ffffff" stroke="#666666" points="355.5,-33.5 355.5,-101.5 534.5,-101.5 534.5,-33.5 355.5,-33.5"/>
<text text-anchor="start" x="363.5" y="-89.5" font-family="Helvetica,sans-Serif" font-size="10.00" fill="#000000">Communication.Messages.Perceived</text>
<text text-anchor="middle" x="445" y="-78.5" font-family="Helvetica,sans-Serif" font-size="10.00" fill="#000000">ConesMessage</text>
<polyline fill="none" stroke="#666666" points="355.5,-71.5 534.5,-71.5 "/>
<text text-anchor="start" x="363.5" y="-59.5" font-family="Helvetica,sans-Serif" font-size="10.00" fill="#000000">+ cones</text>
<polyline fill="none" stroke="#666666" points="355.5,-52.5 534.5,-52.5 "/>
<text text-anchor="middle" x="445" y="-40.5" font-family="Helvetica,sans-Serif" font-size="10.00" fill="#000000"> </text>
</a>
</g>
</g>
<!-- Node1&#45;&gt;Node4 -->
<g id="edge3" class="edge">
<title>Node1&#45;&gt;Node4</title>
<path fill="none" stroke="#63b8ff" d="M309.3221,-165.5291C337.2992,-145.3152 370.9025,-121.0364 397.6677,-101.6982"/>
<polygon fill="none" stroke="#63b8ff" points="307.2694,-162.6941 301.2135,-171.3876 311.369,-168.3681 307.2694,-162.6941"/>
</g>
</g>
</svg>
        <g id="navigator" transform="translate(0 0)" fill="#404254">
                <rect fill="#f2f5e9" fill-opacity="0.5" stroke="#606060" stroke-width=".5" x="0" y="0" width="60" height="60"/>
                <use id="zoomplus" xlink:href="#zoomPlus" x="17" y="9" onmousedown="handleZoom(evt,'in')"/>
                <use id="zoomminus" xlink:href="#zoomMin" x="42" y="9" onmousedown="handleZoom(evt,'out')"/>
                <use id="reset" xlink:href="#resetDef" x="30" y="36" onmousedown="handleReset()"/>
                <g id="arrowUp" xlink:href="#dirArrow" transform="translate(30 24)" onmousedown="handlePan(0,-1)">
                  <use xlink:href="#rim" fill="#404040">
                        <set attributeName="fill" to="#808080" begin="arrowUp.mouseover" end="arrowUp.mouseout"/>
                  </use>
                  <path fill="none" stroke="white" stroke-width="1.5" d="M0,-3.0v7 M-2.5,-0.5L0,-3.0L2.5,-0.5"/>
                </g>
                <g id="arrowRight" xlink:href="#dirArrow" transform="rotate(90) translate(36 -43)" onmousedown="handlePan(1,0)">
                  <use xlink:href="#rim" fill="#404040">
                        <set attributeName="fill" to="#808080" begin="arrowRight.mouseover" end="arrowRight.mouseout"/>
                  </use>
                  <path fill="none" stroke="white" stroke-width="1.5" d="M0,-3.0v7 M-2.5,-0.5L0,-3.0L2.5,-0.5"/>
                </g>
                <g id="arrowDown" xlink:href="#dirArrow" transform="rotate(180) translate(-30 -48)" onmousedown="handlePan(0,1)">
                  <use xlink:href="#rim" fill="#404040">
                        <set attributeName="fill" to="#808080" begin="arrowDown.mouseover" end="arrowDown.mouseout"/>
                  </use>
                  <path fill="none" stroke="white" stroke-width="1.5" d="M0,-3.0v7 M-2.5,-0.5L0,-3.0L2.5,-0.5"/>
                </g>
                <g id="arrowLeft" xlink:href="#dirArrow" transform="rotate(270) translate(-36 17)" onmousedown="handlePan(-1,0)">
                  <use xlink:href="#rim" fill="#404040">
                        <set attributeName="fill" to="#808080" begin="arrowLeft.mouseover" end="arrowLeft.mouseout"/>
                  </use>
                  <path fill="none" stroke="white" stroke-width="1.5" d="M0,-3.0v7 M-2.5,-0.5L0,-3.0L2.5,-0.5"/>
                </g>
        </g>
        <svg viewBox="0 0 15 15" width="100%" height="30px" preserveAspectRatio="xMaxYMin meet">
         <g id="arrow_out" transform="scale(0.3 0.3)">
          <a xlink:href="classCommunication_1_1Messages_1_1BaseMessage__inherit__graph_org.svg" target="_base">
           <rect id="button" ry="5" rx="5" y="6" x="6" height="38" width="38"
                fill="#f2f5e9" fill-opacity="0.5" stroke="#606060" stroke-width="1.0"/>
           <path id="arrow"
             d="M 11.500037,31.436501 C 11.940474,20.09759 22.043105,11.32322 32.158766,21.979434 L 37.068811,17.246167 C 37.068811,17.246167 37.088388,32 37.088388,32 L 22.160133,31.978069 C 22.160133,31.978069 26.997745,27.140456 26.997745,27.140456 C 18.528582,18.264221 13.291696,25.230495 11.500037,31.436501 z"
             style="fill:#404040;"/>
          </a>
         </g>
        </svg>
</svg>
