<?xml version="1.0" encoding="UTF-8" standalone="no"?>
<!DOCTYPE svg PUBLIC "-//W3C//DTD SVG 1.1//EN"
 "http://www.w3.org/Graphics/SVG/1.1/DTD/svg11.dtd">
<!-- Generated by graphviz version 2.40.1 (20161225.0304)
 -->
<!-- Title: Communication.Messages.CarStateMessage Pages: 1 -->
<svg width="187pt" height="298pt"
 viewBox="0.00 0.00 187.00 298.00" xmlns="http://www.w3.org/2000/svg" xmlns:xlink="http://www.w3.org/1999/xlink">
<g id="graph0" class="graph" transform="scale(1 1) rotate(0) translate(4 294)">
<title>Communication.Messages.CarStateMessage</title>
<!-- Node1 -->
<g id="node1" class="node">
<title>Node1</title>
<g id="a_node1"><a xlink:title=" ">
<polygon fill="#999999" stroke="#666666" points="12,-.5 12,-68.5 164,-68.5 164,-.5 12,-.5"/>
<text text-anchor="start" x="20" y="-56.5" font-family="Helvetica,sans-Serif" font-size="10.00" fill="#000000">Communication.Messages.Car</text>
<text text-anchor="middle" x="88" y="-45.5" font-family="Helvetica,sans-Serif" font-size="10.00" fill="#000000">StateMessage</text>
<polyline fill="none" stroke="#666666" points="12,-38.5 164,-38.5 "/>
<text text-anchor="middle" x="88" y="-26.5" font-family="Helvetica,sans-Serif" font-size="10.00" fill="#000000"> </text>
<polyline fill="none" stroke="#666666" points="12,-19.5 164,-19.5 "/>
<text text-anchor="middle" x="88" y="-7.5" font-family="Helvetica,sans-Serif" font-size="10.00" fill="#000000"> </text>
</a>
</g>
</g>
<!-- Node2 -->
<g id="node2" class="node">
<title>Node2</title>
<g id="a_node2"><a xlink:href="classCommunication_1_1Messages_1_1BaseMessage.html" target="_top" xlink:title=" ">
<polygon fill="#ffffff" stroke="#666666" points="0,-127.5 0,-184.5 94,-184.5 94,-127.5 0,-127.5"/>
<text text-anchor="middle" x="47" y="-172.5" font-family="Helvetica,sans-Serif" font-size="10.00" fill="#000000">BaseMessage</text>
<polyline fill="none" stroke="#666666" points="0,-165.5 94,-165.5 "/>
<text text-anchor="middle" x="47" y="-153.5" font-family="Helvetica,sans-Serif" font-size="10.00" fill="#000000"> </text>
<polyline fill="none" stroke="#666666" points="0,-146.5 94,-146.5 "/>
<text text-anchor="start" x="8" y="-134.5" font-family="Helvetica,sans-Serif" font-size="10.00" fill="#000000">+ BaseMessage()</text>
</a>
</g>
</g>
<!-- Node2&#45;&gt;Node1 -->
<g id="edge1" class="edge">
<title>Node2&#45;&gt;Node1</title>
<path fill="none" stroke="#63b8ff" d="M60.0525,-117.3201C65.3225,-101.7029 71.3524,-83.8337 76.459,-68.7007"/>
<polygon fill="none" stroke="#63b8ff" points="56.5976,-116.612 56.7164,-127.2062 63.2301,-118.8502 56.5976,-116.612"/>
</g>
<!-- Node3 -->
<g id="node3" class="node">
<title>Node3</title>
<g id="a_node3"><a xlink:title=" ">
<polygon fill="#ffffff" stroke="#666666" points="29.5,-232.5 29.5,-289.5 64.5,-289.5 64.5,-232.5 29.5,-232.5"/>
<text text-anchor="middle" x="47" y="-277.5" font-family="Helvetica,sans-Serif" font-size="10.00" fill="#000000">long</text>
<polyline fill="none" stroke="#666666" points="29.5,-270.5 64.5,-270.5 "/>
<text text-anchor="middle" x="47" y="-258.5" font-family="Helvetica,sans-Serif" font-size="10.00" fill="#000000"> </text>
<polyline fill="none" stroke="#666666" points="29.5,-251.5 64.5,-251.5 "/>
<text text-anchor="middle" x="47" y="-239.5" font-family="Helvetica,sans-Serif" font-size="10.00" fill="#000000"> </text>
</a>
</g>
</g>
<!-- Node3&#45;&gt;Node2 -->
<g id="edge2" class="edge">
<title>Node3&#45;&gt;Node2</title>
<path fill="none" stroke="#404040" d="M47,-232.3083C47,-221.4281 47,-208.817 47,-197.0192"/>
<polygon fill="none" stroke="#404040" points="47.0001,-196.657 43,-190.6571 47,-184.657 51,-190.657 47.0001,-196.657"/>
<text text-anchor="middle" x="77.5" y="-206" font-family="Helvetica,sans-Serif" font-size="10.00" fill="#000000"> +time_stamp</text>
</g>
<!-- Node4 -->
<g id="node4" class="node">
<title>Node4</title>
<g id="a_node4"><a xlink:title=" ">
<polygon fill="#ffffff" stroke="#666666" points="112.5,-127.5 112.5,-184.5 147.5,-184.5 147.5,-127.5 112.5,-127.5"/>
<text text-anchor="middle" x="130" y="-172.5" font-family="Helvetica,sans-Serif" font-size="10.00" fill="#000000">float</text>
<polyline fill="none" stroke="#666666" points="112.5,-165.5 147.5,-165.5 "/>
<text text-anchor="middle" x="130" y="-153.5" font-family="Helvetica,sans-Serif" font-size="10.00" fill="#000000"> </text>
<polyline fill="none" stroke="#666666" points="112.5,-146.5 147.5,-146.5 "/>
<text text-anchor="middle" x="130" y="-134.5" font-family="Helvetica,sans-Serif" font-size="10.00" fill="#000000"> </text>
</a>
</g>
</g>
<!-- Node4&#45;&gt;Node1 -->
<g id="edge3" class="edge">
<title>Node4&#45;&gt;Node1</title>
<path fill="none" stroke="#404040" d="M120.0466,-127.2062C115.214,-113.2262 109.2903,-96.0898 103.8563,-80.37"/>
<polygon fill="none" stroke="#404040" points="103.7431,-80.0422 98.0023,-75.6784 99.8225,-68.7007 105.5633,-73.0646 103.7431,-80.0422"/>
<text text-anchor="middle" x="145.5" y="-101" font-family="Helvetica,sans-Serif" font-size="10.00" fill="#000000"> +speed_actual</text>
<text text-anchor="middle" x="145.5" y="-90" font-family="Helvetica,sans-Serif" font-size="10.00" fill="#000000">+yaw_rate</text>
</g>
</g>
</svg>
