<?xml version="1.0" encoding="UTF-8" standalone="no"?>
<!DOCTYPE svg PUBLIC "-//W3C//DTD SVG 1.1//EN"
 "http://www.w3.org/Graphics/SVG/1.1/DTD/svg11.dtd">
<!-- Generated by graphviz version 2.40.1 (20161225.0304)
 -->
<!-- Title: Car.CarController Pages: 1 -->
<svg width="773pt" height="430pt"
 viewBox="0.00 0.00 773.00 430.00" xmlns="http://www.w3.org/2000/svg" xmlns:xlink="http://www.w3.org/1999/xlink">
<g id="graph0" class="graph" transform="scale(1 1) rotate(0) translate(4 426)">
<title>Car.CarController</title>
<!-- Node1 -->
<g id="node1" class="node">
<title>Node1</title>
<g id="a_node1"><a xlink:title=" ">
<polygon fill="#999999" stroke="#666666" points="287,-.5 287,-101.5 403,-101.5 403,-.5 287,-.5"/>
<text text-anchor="middle" x="345" y="-89.5" font-family="Helvetica,sans-Serif" font-size="10.00" fill="#000000">Car.CarController</text>
<polyline fill="none" stroke="#666666" points="287,-82.5 403,-82.5 "/>
<text text-anchor="start" x="295" y="-70.5" font-family="Helvetica,sans-Serif" font-size="10.00" fill="#000000">+ Automated</text>
<polyline fill="none" stroke="#666666" points="287,-63.5 403,-63.5 "/>
<text text-anchor="start" x="295" y="-51.5" font-family="Helvetica,sans-Serif" font-size="10.00" fill="#000000">+ ApplyControlResult()</text>
<text text-anchor="start" x="295" y="-40.5" font-family="Helvetica,sans-Serif" font-size="10.00" fill="#000000">+ ResetCar()</text>
<text text-anchor="start" x="295" y="-29.5" font-family="Helvetica,sans-Serif" font-size="10.00" fill="#000000">+ onReset()</text>
<text text-anchor="start" x="295" y="-18.5" font-family="Helvetica,sans-Serif" font-size="10.00" fill="#000000">+ OnMove()</text>
<text text-anchor="start" x="295" y="-7.5" font-family="Helvetica,sans-Serif" font-size="10.00" fill="#000000">+ onBrake()</text>
</a>
</g>
</g>
<!-- Node2 -->
<g id="node2" class="node">
<title>Node2</title>
<g id="a_node2"><a xlink:href="classMonoBehaviour.html" target="_top" xlink:title=" ">
<polygon fill="#ffffff" stroke="#666666" points="107,-364.5 107,-421.5 191,-421.5 191,-364.5 107,-364.5"/>
<text text-anchor="middle" x="149" y="-409.5" font-family="Helvetica,sans-Serif" font-size="10.00" fill="#000000">MonoBehaviour</text>
<polyline fill="none" stroke="#666666" points="107,-402.5 191,-402.5 "/>
<text text-anchor="middle" x="149" y="-390.5" font-family="Helvetica,sans-Serif" font-size="10.00" fill="#000000"> </text>
<polyline fill="none" stroke="#666666" points="107,-383.5 191,-383.5 "/>
<text text-anchor="middle" x="149" y="-371.5" font-family="Helvetica,sans-Serif" font-size="10.00" fill="#000000"> </text>
</a>
</g>
</g>
<!-- Node2&#45;&gt;Node1 -->
<g id="edge1" class="edge">
<title>Node2&#45;&gt;Node1</title>
<path fill="none" stroke="#63b8ff" d="M144.0196,-354.4475C140.0816,-310.5045 138.9366,-237.5816 165,-182 188.8754,-131.0844 243.757,-95.7283 286.687,-74.6923"/>
<polygon fill="none" stroke="#63b8ff" points="140.54,-354.8269 145.008,-364.4335 147.5059,-354.1373 140.54,-354.8269"/>
</g>
<!-- Node3 -->
<g id="node3" class="node">
<title>Node3</title>
<g id="a_node3"><a xlink:href="classCar_1_1PIDController.html" target="_top" xlink:title=" ">
<polygon fill="#ffffff" stroke="#666666" points="174.5,-199 174.5,-278 269.5,-278 269.5,-199 174.5,-199"/>
<text text-anchor="middle" x="222" y="-266" font-family="Helvetica,sans-Serif" font-size="10.00" fill="#000000">Car.PIDController</text>
<polyline fill="none" stroke="#666666" points="174.5,-259 269.5,-259 "/>
<text text-anchor="middle" x="222" y="-247" font-family="Helvetica,sans-Serif" font-size="10.00" fill="#000000"> </text>
<polyline fill="none" stroke="#666666" points="174.5,-240 269.5,-240 "/>
<text text-anchor="start" x="182.5" y="-228" font-family="Helvetica,sans-Serif" font-size="10.00" fill="#000000">+ PIDController()</text>
<text text-anchor="start" x="182.5" y="-217" font-family="Helvetica,sans-Serif" font-size="10.00" fill="#000000">+ PIDController()</text>
<text text-anchor="start" x="182.5" y="-206" font-family="Helvetica,sans-Serif" font-size="10.00" fill="#000000">+ calcPID()</text>
</a>
</g>
</g>
<!-- Node2&#45;&gt;Node3 -->
<g id="edge3" class="edge">
<title>Node2&#45;&gt;Node3</title>
<path fill="none" stroke="#63b8ff" d="M165.7408,-355.0082C171.7101,-341.6746 178.5532,-326.6264 185,-313 190.3731,-301.643 196.3675,-289.4009 201.9403,-278.187"/>
<polygon fill="none" stroke="#63b8ff" points="162.4426,-353.8108 161.5669,-364.3694 168.8359,-356.6615 162.4426,-353.8108"/>
</g>
<!-- Node5 -->
<g id="node5" class="node">
<title>Node5</title>
<g id="a_node5"><a xlink:href="classCar_1_1gss_1_1GssController.html" target="_top" xlink:title=" ">
<polygon fill="#ffffff" stroke="#666666" points="288,-182.5 288,-294.5 402,-294.5 402,-182.5 288,-182.5"/>
<text text-anchor="middle" x="345" y="-282.5" font-family="Helvetica,sans-Serif" font-size="10.00" fill="#000000">Car.gss.GssController</text>
<polyline fill="none" stroke="#666666" points="288,-275.5 402,-275.5 "/>
<text text-anchor="start" x="296" y="-263.5" font-family="Helvetica,sans-Serif" font-size="10.00" fill="#000000">+ Speed</text>
<text text-anchor="start" x="296" y="-252.5" font-family="Helvetica,sans-Serif" font-size="10.00" fill="#000000">+ GSSoffset</text>
<text text-anchor="start" x="296" y="-241.5" font-family="Helvetica,sans-Serif" font-size="10.00" fill="#000000">+ SpeedKmH</text>
<text text-anchor="start" x="296" y="-230.5" font-family="Helvetica,sans-Serif" font-size="10.00" fill="#000000">+ ErrorRate</text>
<text text-anchor="start" x="296" y="-219.5" font-family="Helvetica,sans-Serif" font-size="10.00" fill="#000000">+ SamplingRate</text>
<text text-anchor="start" x="296" y="-208.5" font-family="Helvetica,sans-Serif" font-size="10.00" fill="#000000">+ Velocity</text>
<polyline fill="none" stroke="#666666" points="288,-201.5 402,-201.5 "/>
<text text-anchor="middle" x="345" y="-189.5" font-family="Helvetica,sans-Serif" font-size="10.00" fill="#000000"> </text>
</a>
</g>
</g>
<!-- Node2&#45;&gt;Node5 -->
<g id="edge6" class="edge">
<title>Node2&#45;&gt;Node5</title>
<path fill="none" stroke="#63b8ff" d="M175.1925,-355.9944C187.5686,-340.8202 203.473,-324.2207 221,-313 243.7314,-298.4475 255.3715,-308.0455 279,-295 281.905,-293.3961 284.7981,-291.6506 287.66,-289.7997"/>
<polygon fill="none" stroke="#63b8ff" points="172.1376,-354.2158 168.692,-364.2347 177.6334,-358.5513 172.1376,-354.2158"/>
</g>
<!-- Node6 -->
<g id="node6" class="node">
<title>Node6</title>
<g id="a_node6"><a xlink:href="classCar_1_1imu_1_1Imu__Controller.html" target="_top" xlink:title=" ">
<polygon fill="#ffffff" stroke="#666666" points="0,-188 0,-289 118,-289 118,-188 0,-188"/>
<text text-anchor="middle" x="59" y="-277" font-family="Helvetica,sans-Serif" font-size="10.00" fill="#000000">Car.imu.Imu_Controller</text>
<polyline fill="none" stroke="#666666" points="0,-270 118,-270 "/>
<text text-anchor="start" x="8" y="-258" font-family="Helvetica,sans-Serif" font-size="10.00" fill="#000000">+ IMUOffset</text>
<text text-anchor="start" x="8" y="-247" font-family="Helvetica,sans-Serif" font-size="10.00" fill="#000000">+ Offset</text>
<text text-anchor="start" x="8" y="-236" font-family="Helvetica,sans-Serif" font-size="10.00" fill="#000000">+ ErrorRate</text>
<text text-anchor="start" x="8" y="-225" font-family="Helvetica,sans-Serif" font-size="10.00" fill="#000000">+ Acceleration</text>
<text text-anchor="start" x="8" y="-214" font-family="Helvetica,sans-Serif" font-size="10.00" fill="#000000">+ SamplingRate</text>
<polyline fill="none" stroke="#666666" points="0,-207 118,-207 "/>
<text text-anchor="middle" x="59" y="-195" font-family="Helvetica,sans-Serif" font-size="10.00" fill="#000000"> </text>
</a>
</g>
</g>
<!-- Node2&#45;&gt;Node6 -->
<g id="edge8" class="edge">
<title>Node2&#45;&gt;Node6</title>
<path fill="none" stroke="#63b8ff" d="M127.1691,-355.5237C115.571,-335.6135 101.1492,-310.8561 88.5614,-289.247"/>
<polygon fill="none" stroke="#63b8ff" points="124.2248,-357.4227 132.2826,-364.3018 130.2734,-353.8992 124.2248,-357.4227"/>
</g>
<!-- Node3&#45;&gt;Node1 -->
<g id="edge2" class="edge">
<title>Node3&#45;&gt;Node1</title>
<path fill="none" stroke="#404040" d="M225.2426,-198.9603C228.8078,-174.5187 236.2915,-143.4501 252,-120 258.8681,-109.7471 267.7894,-100.444 277.3844,-92.2247"/>
<polygon fill="none" stroke="#404040" points="277.4017,-92.2108 279.5635,-85.3313 286.7452,-84.6808 284.5834,-91.5603 277.4017,-92.2108"/>
<text text-anchor="middle" x="296.5" y="-139.5" font-family="Helvetica,sans-Serif" font-size="10.00" fill="#000000"> +_pidControllerTurn</text>
</g>
<!-- Node4 -->
<g id="node4" class="node">
<title>Node4</title>
<g id="a_node4"><a xlink:title=" ">
<polygon fill="#ffffff" stroke="#666666" points="211.5,-364.5 211.5,-421.5 246.5,-421.5 246.5,-364.5 211.5,-364.5"/>
<text text-anchor="middle" x="229" y="-409.5" font-family="Helvetica,sans-Serif" font-size="10.00" fill="#000000">float</text>
<polyline fill="none" stroke="#666666" points="211.5,-402.5 246.5,-402.5 "/>
<text text-anchor="middle" x="229" y="-390.5" font-family="Helvetica,sans-Serif" font-size="10.00" fill="#000000"> </text>
<polyline fill="none" stroke="#666666" points="211.5,-383.5 246.5,-383.5 "/>
<text text-anchor="middle" x="229" y="-371.5" font-family="Helvetica,sans-Serif" font-size="10.00" fill="#000000"> </text>
</a>
</g>
</g>
<!-- Node4&#45;&gt;Node3 -->
<g id="edge4" class="edge">
<title>Node4&#45;&gt;Node3</title>
<path fill="none" stroke="#404040" d="M227.6998,-364.3018C226.7595,-343.5482 225.4629,-314.9322 224.344,-290.2355"/>
<polygon fill="none" stroke="#404040" points="224.3379,-290.0982 220.0704,-284.2854 223.7946,-278.1105 228.0622,-283.9232 224.3379,-290.0982"/>
<text text-anchor="middle" x="267" y="-338" font-family="Helvetica,sans-Serif" font-size="10.00" fill="#000000"> +_derivativeGain</text>
<text text-anchor="middle" x="267" y="-327" font-family="Helvetica,sans-Serif" font-size="10.00" fill="#000000">+_integralGain</text>
<text text-anchor="middle" x="267" y="-316" font-family="Helvetica,sans-Serif" font-size="10.00" fill="#000000">+_proportionalGain</text>
</g>
<!-- Node5&#45;&gt;Node1 -->
<g id="edge5" class="edge">
<title>Node5&#45;&gt;Node1</title>
<path fill="none" stroke="#404040" d="M345,-182.4978C345,-160.8281 345,-135.9283 345,-113.6656"/>
<polygon fill="none" stroke="#404040" points="345.0001,-113.606 341,-107.6061 345,-101.606 349,-107.606 345.0001,-113.606"/>
<text text-anchor="middle" x="381.5" y="-139.5" font-family="Helvetica,sans-Serif" font-size="10.00" fill="#000000"> +_gssController</text>
</g>
<!-- Node6&#45;&gt;Node1 -->
<g id="edge7" class="edge">
<title>Node6&#45;&gt;Node1</title>
<path fill="none" stroke="#404040" d="M45.7535,-187.7647C42.8519,-164.838 44.236,-138.7495 59,-120 85.341,-86.5482 198.6715,-67.4028 274.5167,-58.1174"/>
<polygon fill="none" stroke="#404040" points="274.8974,-58.0723 280.3839,-53.3928 286.8137,-56.6575 281.3271,-61.337 274.8974,-58.0723"/>
<text text-anchor="middle" x="95.5" y="-139.5" font-family="Helvetica,sans-Serif" font-size="10.00" fill="#000000"> +_ImuController</text>
</g>
<!-- Node7 -->
<g id="node7" class="node">
<title>Node7</title>
<g id="a_node7"><a xlink:title=" ">
<polygon fill="#ffffff" stroke="#666666" points="420.5,-210 420.5,-267 561.5,-267 561.5,-210 420.5,-210"/>
<text text-anchor="middle" x="491" y="-255" font-family="Helvetica,sans-Serif" font-size="10.00" fill="#000000">Action&lt; CarStateMessage &gt;</text>
<polyline fill="none" stroke="#666666" points="420.5,-248 561.5,-248 "/>
<text text-anchor="middle" x="491" y="-236" font-family="Helvetica,sans-Serif" font-size="10.00" fill="#000000"> </text>
<polyline fill="none" stroke="#666666" points="420.5,-229 561.5,-229 "/>
<text text-anchor="middle" x="491" y="-217" font-family="Helvetica,sans-Serif" font-size="10.00" fill="#000000"> </text>
</a>
</g>
</g>
<!-- Node7&#45;&gt;Node1 -->
<g id="edge9" class="edge">
<title>Node7&#45;&gt;Node1</title>
<path fill="none" stroke="#404040" d="M477.4066,-209.608C464.897,-184.5684 444.8576,-148.0524 422,-120 418.811,-116.0863 415.3933,-112.1997 411.8357,-108.3815"/>
<polygon fill="none" stroke="#404040" points="411.683,-108.2242 404.6333,-106.7069 403.3224,-99.6159 410.3721,-101.1332 411.683,-108.2242"/>
<text text-anchor="middle" x="492" y="-139.5" font-family="Helvetica,sans-Serif" font-size="10.00" fill="#000000"> +OnNewCarState</text>
</g>
<!-- Node8 -->
<g id="node8" class="node">
<title>Node8</title>
<g id="a_node8"><a xlink:title=" ">
<polygon fill="#ffffff" stroke="#666666" points="579.5,-210 579.5,-267 640.5,-267 640.5,-210 579.5,-210"/>
<text text-anchor="middle" x="610" y="-255" font-family="Helvetica,sans-Serif" font-size="10.00" fill="#000000">Transform</text>
<polyline fill="none" stroke="#666666" points="579.5,-248 640.5,-248 "/>
<text text-anchor="middle" x="610" y="-236" font-family="Helvetica,sans-Serif" font-size="10.00" fill="#000000"> </text>
<polyline fill="none" stroke="#666666" points="579.5,-229 640.5,-229 "/>
<text text-anchor="middle" x="610" y="-217" font-family="Helvetica,sans-Serif" font-size="10.00" fill="#000000"> </text>
</a>
</g>
</g>
<!-- Node8&#45;&gt;Node1 -->
<g id="edge10" class="edge">
<title>Node8&#45;&gt;Node1</title>
<path fill="none" stroke="#404040" d="M598.9069,-209.7678C587.2375,-183.061 566.4544,-143.9083 537,-120 501.9834,-91.5769 454.3022,-74.3583 415.217,-64.2299"/>
<polygon fill="none" stroke="#404040" points="415.0369,-64.1856 408.2531,-66.6311 403.3866,-61.3097 410.1704,-58.8642 415.0369,-64.1856"/>
<text text-anchor="middle" x="611.5" y="-156" font-family="Helvetica,sans-Serif" font-size="10.00" fill="#000000"> +frontLeftWheel</text>
<text text-anchor="middle" x="611.5" y="-145" font-family="Helvetica,sans-Serif" font-size="10.00" fill="#000000">+frontRightWheel</text>
<text text-anchor="middle" x="611.5" y="-134" font-family="Helvetica,sans-Serif" font-size="10.00" fill="#000000">+rearLeftWheel</text>
<text text-anchor="middle" x="611.5" y="-123" font-family="Helvetica,sans-Serif" font-size="10.00" fill="#000000">+rearRightWheel</text>
</g>
<!-- Node9 -->
<g id="node9" class="node">
<title>Node9</title>
<g id="a_node9"><a xlink:title=" ">
<polygon fill="#ffffff" stroke="#666666" points="664.5,-210 664.5,-267 741.5,-267 741.5,-210 664.5,-210"/>
<text text-anchor="middle" x="703" y="-255" font-family="Helvetica,sans-Serif" font-size="10.00" fill="#000000">WheelCollider</text>
<polyline fill="none" stroke="#666666" points="664.5,-248 741.5,-248 "/>
<text text-anchor="middle" x="703" y="-236" font-family="Helvetica,sans-Serif" font-size="10.00" fill="#000000"> </text>
<polyline fill="none" stroke="#666666" points="664.5,-229 741.5,-229 "/>
<text text-anchor="middle" x="703" y="-217" font-family="Helvetica,sans-Serif" font-size="10.00" fill="#000000"> </text>
</a>
</g>
</g>
<!-- Node9&#45;&gt;Node1 -->
<g id="edge11" class="edge">
<title>Node9&#45;&gt;Node1</title>
<path fill="none" stroke="#404040" d="M698.8432,-209.909C693.3546,-182.724 681.0063,-142.7102 654,-120 618.3864,-90.0517 494.7234,-69.5362 415.0533,-59.0758"/>
<polygon fill="none" stroke="#404040" points="415.0514,-59.0757 408.59,-62.2774 403.1495,-57.5445 409.6108,-54.3428 415.0514,-59.0757"/>
<text text-anchor="middle" x="724" y="-156" font-family="Helvetica,sans-Serif" font-size="10.00" fill="#000000"> +frontLeftCollider</text>
<text text-anchor="middle" x="724" y="-145" font-family="Helvetica,sans-Serif" font-size="10.00" fill="#000000">+frontRightCollider</text>
<text text-anchor="middle" x="724" y="-134" font-family="Helvetica,sans-Serif" font-size="10.00" fill="#000000">+rearLeftCollider</text>
<text text-anchor="middle" x="724" y="-123" font-family="Helvetica,sans-Serif" font-size="10.00" fill="#000000">+rearRightCollider</text>
</g>
</g>
</svg>
