<?xml version="1.0" encoding="UTF-8" standalone="no"?>
<!DOCTYPE svg PUBLIC "-//W3C//DTD SVG 1.1//EN"
 "http://www.w3.org/Graphics/SVG/1.1/DTD/svg11.dtd">
<!-- Generated by graphviz version 2.40.1 (20161225.0304)
 -->
<!-- Title: Communication.InterfaceController Pages: 1 -->
<svg width="1503pt" height="535pt"
 viewBox="0.00 0.00 1502.78 535.00" xmlns="http://www.w3.org/2000/svg" xmlns:xlink="http://www.w3.org/1999/xlink">
<g id="graph0" class="graph" transform="scale(1 1) rotate(0) translate(4 531)">
<title>Communication.InterfaceController</title>
<!-- Node1 -->
<g id="node1" class="node">
<title>Node1</title>
<g id="a_node1"><a xlink:title=" ">
<polygon fill="#999999" stroke="#666666" points="390.7777,-.5 390.7777,-57.5 558.7777,-57.5 558.7777,-.5 390.7777,-.5"/>
<text text-anchor="middle" x="474.7777" y="-45.5" font-family="Helvetica,sans-Serif" font-size="10.00" fill="#000000">Communication.InterfaceController</text>
<polyline fill="none" stroke="#666666" points="390.7777,-38.5 558.7777,-38.5 "/>
<text text-anchor="middle" x="474.7777" y="-26.5" font-family="Helvetica,sans-Serif" font-size="10.00" fill="#000000"> </text>
<polyline fill="none" stroke="#666666" points="390.7777,-19.5 558.7777,-19.5 "/>
<text text-anchor="middle" x="474.7777" y="-7.5" font-family="Helvetica,sans-Serif" font-size="10.00" fill="#000000"> </text>
</a>
</g>
</g>
<!-- Node2 -->
<g id="node2" class="node">
<title>Node2</title>
<g id="a_node2"><a xlink:href="classMonoBehaviour.html" target="_top" xlink:title=" ">
<polygon fill="#ffffff" stroke="#666666" points="432.7777,-469.5 432.7777,-526.5 516.7777,-526.5 516.7777,-469.5 432.7777,-469.5"/>
<text text-anchor="middle" x="474.7777" y="-514.5" font-family="Helvetica,sans-Serif" font-size="10.00" fill="#000000">MonoBehaviour</text>
<polyline fill="none" stroke="#666666" points="432.7777,-507.5 516.7777,-507.5 "/>
<text text-anchor="middle" x="474.7777" y="-495.5" font-family="Helvetica,sans-Serif" font-size="10.00" fill="#000000"> </text>
<polyline fill="none" stroke="#666666" points="432.7777,-488.5 516.7777,-488.5 "/>
<text text-anchor="middle" x="474.7777" y="-476.5" font-family="Helvetica,sans-Serif" font-size="10.00" fill="#000000"> </text>
</a>
</g>
</g>
<!-- Node2&#45;&gt;Node1 -->
<g id="edge1" class="edge">
<title>Node2&#45;&gt;Node1</title>
<path fill="none" stroke="#63b8ff" d="M422.2149,-494.4918C314.9514,-486.1234 76.8167,-460.955 27.7777,-400 -95.7332,-246.4772 229.6337,-111.1979 390.6648,-55.7351"/>
<polygon fill="none" stroke="#63b8ff" points="422.2466,-498.0042 432.4833,-495.2726 422.7774,-491.0244 422.2466,-498.0042"/>
</g>
<!-- Node3 -->
<g id="node3" class="node">
<title>Node3</title>
<g id="a_node3"><a xlink:href="classCar_1_1CarController.html" target="_top" xlink:title=" ">
<polygon fill="#ffffff" stroke="#666666" points="416.7777,-105.5 416.7777,-206.5 532.7777,-206.5 532.7777,-105.5 416.7777,-105.5"/>
<text text-anchor="middle" x="474.7777" y="-194.5" font-family="Helvetica,sans-Serif" font-size="10.00" fill="#000000">Car.CarController</text>
<polyline fill="none" stroke="#666666" points="416.7777,-187.5 532.7777,-187.5 "/>
<text text-anchor="start" x="424.7777" y="-175.5" font-family="Helvetica,sans-Serif" font-size="10.00" fill="#000000">+ Automated</text>
<polyline fill="none" stroke="#666666" points="416.7777,-168.5 532.7777,-168.5 "/>
<text text-anchor="start" x="424.7777" y="-156.5" font-family="Helvetica,sans-Serif" font-size="10.00" fill="#000000">+ ApplyControlResult()</text>
<text text-anchor="start" x="424.7777" y="-145.5" font-family="Helvetica,sans-Serif" font-size="10.00" fill="#000000">+ ResetCar()</text>
<text text-anchor="start" x="424.7777" y="-134.5" font-family="Helvetica,sans-Serif" font-size="10.00" fill="#000000">+ onReset()</text>
<text text-anchor="start" x="424.7777" y="-123.5" font-family="Helvetica,sans-Serif" font-size="10.00" fill="#000000">+ OnMove()</text>
<text text-anchor="start" x="424.7777" y="-112.5" font-family="Helvetica,sans-Serif" font-size="10.00" fill="#000000">+ onBrake()</text>
</a>
</g>
</g>
<!-- Node2&#45;&gt;Node3 -->
<g id="edge3" class="edge">
<title>Node2&#45;&gt;Node3</title>
<path fill="none" stroke="#63b8ff" d="M474.7777,-459.2783C474.7777,-397.2092 474.7777,-275.4447 474.7777,-206.5826"/>
<polygon fill="none" stroke="#63b8ff" points="471.2778,-459.4295 474.7777,-469.4295 478.2778,-459.4295 471.2778,-459.4295"/>
</g>
<!-- Node4 -->
<g id="node4" class="node">
<title>Node4</title>
<g id="a_node4"><a xlink:href="classCar_1_1PIDController.html" target="_top" xlink:title=" ">
<polygon fill="#ffffff" stroke="#666666" points="677.2777,-304 677.2777,-383 772.2777,-383 772.2777,-304 677.2777,-304"/>
<text text-anchor="middle" x="724.7777" y="-371" font-family="Helvetica,sans-Serif" font-size="10.00" fill="#000000">Car.PIDController</text>
<polyline fill="none" stroke="#666666" points="677.2777,-364 772.2777,-364 "/>
<text text-anchor="middle" x="724.7777" y="-352" font-family="Helvetica,sans-Serif" font-size="10.00" fill="#000000"> </text>
<polyline fill="none" stroke="#666666" points="677.2777,-345 772.2777,-345 "/>
<text text-anchor="start" x="685.2777" y="-333" font-family="Helvetica,sans-Serif" font-size="10.00" fill="#000000">+ PIDController()</text>
<text text-anchor="start" x="685.2777" y="-322" font-family="Helvetica,sans-Serif" font-size="10.00" fill="#000000">+ PIDController()</text>
<text text-anchor="start" x="685.2777" y="-311" font-family="Helvetica,sans-Serif" font-size="10.00" fill="#000000">+ calcPID()</text>
</a>
</g>
</g>
<!-- Node2&#45;&gt;Node4 -->
<g id="edge5" class="edge">
<title>Node2&#45;&gt;Node4</title>
<path fill="none" stroke="#63b8ff" d="M516.0081,-463.1492C536.6887,-447.2668 562.8167,-429.488 588.7777,-418 622.1049,-403.2523 636.8926,-417.6505 668.7777,-400 676.8733,-395.5185 684.5672,-389.5128 691.5151,-383.0875"/>
<polygon fill="none" stroke="#63b8ff" points="513.7945,-460.4372 508.0736,-469.3547 518.1069,-465.9511 513.7945,-460.4372"/>
</g>
<!-- Node6 -->
<g id="node6" class="node">
<title>Node6</title>
<g id="a_node6"><a xlink:href="classCar_1_1gss_1_1GssController.html" target="_top" xlink:title=" ">
<polygon fill="#ffffff" stroke="#666666" points="196.7777,-287.5 196.7777,-399.5 310.7777,-399.5 310.7777,-287.5 196.7777,-287.5"/>
<text text-anchor="middle" x="253.7777" y="-387.5" font-family="Helvetica,sans-Serif" font-size="10.00" fill="#000000">Car.gss.GssController</text>
<polyline fill="none" stroke="#666666" points="196.7777,-380.5 310.7777,-380.5 "/>
<text text-anchor="start" x="204.7777" y="-368.5" font-family="Helvetica,sans-Serif" font-size="10.00" fill="#000000">+ Speed</text>
<text text-anchor="start" x="204.7777" y="-357.5" font-family="Helvetica,sans-Serif" font-size="10.00" fill="#000000">+ GSSoffset</text>
<text text-anchor="start" x="204.7777" y="-346.5" font-family="Helvetica,sans-Serif" font-size="10.00" fill="#000000">+ SpeedKmH</text>
<text text-anchor="start" x="204.7777" y="-335.5" font-family="Helvetica,sans-Serif" font-size="10.00" fill="#000000">+ ErrorRate</text>
<text text-anchor="start" x="204.7777" y="-324.5" font-family="Helvetica,sans-Serif" font-size="10.00" fill="#000000">+ SamplingRate</text>
<text text-anchor="start" x="204.7777" y="-313.5" font-family="Helvetica,sans-Serif" font-size="10.00" fill="#000000">+ Velocity</text>
<polyline fill="none" stroke="#666666" points="196.7777,-306.5 310.7777,-306.5 "/>
<text text-anchor="middle" x="253.7777" y="-294.5" font-family="Helvetica,sans-Serif" font-size="10.00" fill="#000000"> </text>
</a>
</g>
</g>
<!-- Node2&#45;&gt;Node6 -->
<g id="edge8" class="edge">
<title>Node2&#45;&gt;Node6</title>
<path fill="none" stroke="#63b8ff" d="M423.7241,-468.2718C392.895,-449.7008 353.2317,-424.6955 319.7777,-400 316.8652,-397.8501 313.9188,-395.6066 310.9703,-393.3062"/>
<polygon fill="none" stroke="#63b8ff" points="422.2037,-471.4409 432.5811,-473.5767 425.8007,-465.4357 422.2037,-471.4409"/>
</g>
<!-- Node7 -->
<g id="node7" class="node">
<title>Node7</title>
<g id="a_node7"><a xlink:href="classCar_1_1imu_1_1Imu__Controller.html" target="_top" xlink:title=" ">
<polygon fill="#ffffff" stroke="#666666" points="328.7777,-293 328.7777,-394 446.7777,-394 446.7777,-293 328.7777,-293"/>
<text text-anchor="middle" x="387.7777" y="-382" font-family="Helvetica,sans-Serif" font-size="10.00" fill="#000000">Car.imu.Imu_Controller</text>
<polyline fill="none" stroke="#666666" points="328.7777,-375 446.7777,-375 "/>
<text text-anchor="start" x="336.7777" y="-363" font-family="Helvetica,sans-Serif" font-size="10.00" fill="#000000">+ IMUOffset</text>
<text text-anchor="start" x="336.7777" y="-352" font-family="Helvetica,sans-Serif" font-size="10.00" fill="#000000">+ Offset</text>
<text text-anchor="start" x="336.7777" y="-341" font-family="Helvetica,sans-Serif" font-size="10.00" fill="#000000">+ ErrorRate</text>
<text text-anchor="start" x="336.7777" y="-330" font-family="Helvetica,sans-Serif" font-size="10.00" fill="#000000">+ Acceleration</text>
<text text-anchor="start" x="336.7777" y="-319" font-family="Helvetica,sans-Serif" font-size="10.00" fill="#000000">+ SamplingRate</text>
<polyline fill="none" stroke="#666666" points="328.7777,-312 446.7777,-312 "/>
<text text-anchor="middle" x="387.7777" y="-300" font-family="Helvetica,sans-Serif" font-size="10.00" fill="#000000"> </text>
</a>
</g>
</g>
<!-- Node2&#45;&gt;Node7 -->
<g id="edge10" class="edge">
<title>Node2&#45;&gt;Node7</title>
<path fill="none" stroke="#63b8ff" d="M453.6745,-460.5237C442.4629,-440.6135 428.5219,-415.8561 416.3537,-394.247"/>
<polygon fill="none" stroke="#63b8ff" points="450.6611,-462.3056 458.6175,-469.3018 456.7606,-458.871 450.6611,-462.3056"/>
</g>
<!-- Node11 -->
<g id="node11" class="node">
<title>Node11</title>
<g id="a_node11"><a xlink:href="classCar_1_1Camera_1_1CarCameraController.html" target="_top" xlink:title=" ">
<polygon fill="#ffffff" stroke="#666666" points="1073.2777,-315 1073.2777,-372 1238.2777,-372 1238.2777,-315 1073.2777,-315"/>
<text text-anchor="middle" x="1155.7777" y="-360" font-family="Helvetica,sans-Serif" font-size="10.00" fill="#000000">Car.Camera.CarCameraController</text>
<polyline fill="none" stroke="#666666" points="1073.2777,-353 1238.2777,-353 "/>
<text text-anchor="start" x="1081.2777" y="-341" font-family="Helvetica,sans-Serif" font-size="10.00" fill="#000000">+ Hz</text>
<polyline fill="none" stroke="#666666" points="1073.2777,-334 1238.2777,-334 "/>
<text text-anchor="start" x="1081.2777" y="-322" font-family="Helvetica,sans-Serif" font-size="10.00" fill="#000000">+ DrawConeRays()</text>
</a>
</g>
</g>
<!-- Node2&#45;&gt;Node11 -->
<g id="edge15" class="edge">
<title>Node2&#45;&gt;Node11</title>
<path fill="none" stroke="#63b8ff" d="M527.0099,-493.504C604.1471,-486.3138 744.4049,-470.9794 790.7777,-451 812.5796,-441.6068 811.2269,-427.9558 832.7777,-418 869.4137,-401.0753 882.3785,-408.7375 921.7777,-400 972.1671,-388.8252 1028.3976,-375.283 1073.1063,-364.2584"/>
<polygon fill="none" stroke="#63b8ff" points="526.6534,-490.0219 517.0159,-494.4229 527.2944,-496.9925 526.6534,-490.0219"/>
</g>
<!-- Node16 -->
<g id="node16" class="node">
<title>Node16</title>
<g id="a_node16"><a xlink:href="classCar_1_1Lidar_1_1LidarController.html" target="_top" xlink:title=" ">
<polygon fill="#ffffff" stroke="#666666" points="790.7777,-315 790.7777,-372 912.7777,-372 912.7777,-315 790.7777,-315"/>
<text text-anchor="middle" x="851.7777" y="-360" font-family="Helvetica,sans-Serif" font-size="10.00" fill="#000000">Car.Lidar.LidarController</text>
<polyline fill="none" stroke="#666666" points="790.7777,-353 912.7777,-353 "/>
<text text-anchor="start" x="798.7777" y="-341" font-family="Helvetica,sans-Serif" font-size="10.00" fill="#000000">+ Hz</text>
<polyline fill="none" stroke="#666666" points="790.7777,-334 912.7777,-334 "/>
<text text-anchor="middle" x="851.7777" y="-322" font-family="Helvetica,sans-Serif" font-size="10.00" fill="#000000"> </text>
</a>
</g>
</g>
<!-- Node2&#45;&gt;Node16 -->
<g id="edge22" class="edge">
<title>Node2&#45;&gt;Node16</title>
<path fill="none" stroke="#63b8ff" d="M526.071,-474.5612C566.7448,-456.7937 625.4245,-432.9596 678.7777,-418 723.5236,-405.4538 739.4604,-419.2054 781.7777,-400 796.7102,-393.223 811.1693,-382.5003 823.0314,-372.2088"/>
<polygon fill="none" stroke="#63b8ff" points="524.6476,-471.3636 516.905,-478.5956 527.4677,-477.7704 524.6476,-471.3636"/>
</g>
<!-- Node3&#45;&gt;Node1 -->
<g id="edge2" class="edge">
<title>Node3&#45;&gt;Node1</title>
<path fill="none" stroke="#404040" d="M474.7777,-105.4413C474.7777,-93.681 474.7777,-81.3021 474.7777,-70.0123"/>
<polygon fill="none" stroke="#404040" points="474.7778,-69.8195 470.7777,-63.8195 474.7777,-57.8195 478.7777,-63.8195 474.7778,-69.8195"/>
<text text-anchor="middle" x="507.2777" y="-79" font-family="Helvetica,sans-Serif" font-size="10.00" fill="#000000"> +carController</text>
</g>
<!-- Node4&#45;&gt;Node3 -->
<g id="edge4" class="edge">
<title>Node4&#45;&gt;Node3</title>
<path fill="none" stroke="#404040" d="M724.6585,-303.9185C722.5012,-278.3637 715.5707,-246.0729 695.7777,-225 674.936,-202.8106 601.3839,-182.7225 544.796,-170.0179"/>
<polygon fill="none" stroke="#404040" points="544.7225,-170.0018 538.0026,-172.6177 533.0034,-167.4208 539.7233,-164.8049 544.7225,-170.0018"/>
<text text-anchor="middle" x="762.2777" y="-244.5" font-family="Helvetica,sans-Serif" font-size="10.00" fill="#000000"> +_pidControllerTurn</text>
</g>
<!-- Node5 -->
<g id="node5" class="node">
<title>Node5</title>
<g id="a_node5"><a xlink:title=" ">
<polygon fill="#ffffff" stroke="#666666" points="820.2777,-469.5 820.2777,-526.5 855.2777,-526.5 855.2777,-469.5 820.2777,-469.5"/>
<text text-anchor="middle" x="837.7777" y="-514.5" font-family="Helvetica,sans-Serif" font-size="10.00" fill="#000000">float</text>
<polyline fill="none" stroke="#666666" points="820.2777,-507.5 855.2777,-507.5 "/>
<text text-anchor="middle" x="837.7777" y="-495.5" font-family="Helvetica,sans-Serif" font-size="10.00" fill="#000000"> </text>
<polyline fill="none" stroke="#666666" points="820.2777,-488.5 855.2777,-488.5 "/>
<text text-anchor="middle" x="837.7777" y="-476.5" font-family="Helvetica,sans-Serif" font-size="10.00" fill="#000000"> </text>
</a>
</g>
</g>
<!-- Node5&#45;&gt;Node4 -->
<g id="edge6" class="edge">
<title>Node5&#45;&gt;Node4</title>
<path fill="none" stroke="#404040" d="M820.1452,-488.0633C808.4395,-481.825 792.5626,-474.0357 777.7777,-469 740.8125,-456.4097 716.4002,-481.3096 691.7777,-451 678.6481,-434.8379 682.1877,-413.4825 690.7854,-394.0668"/>
<polygon fill="none" stroke="#404040" points="690.8352,-393.9666 689.9232,-386.8134 696.1754,-383.2204 697.0874,-390.3736 690.8352,-393.9666"/>
<text text-anchor="middle" x="732.7777" y="-443" font-family="Helvetica,sans-Serif" font-size="10.00" fill="#000000"> +_derivativeGain</text>
<text text-anchor="middle" x="732.7777" y="-432" font-family="Helvetica,sans-Serif" font-size="10.00" fill="#000000">+_integralGain</text>
<text text-anchor="middle" x="732.7777" y="-421" font-family="Helvetica,sans-Serif" font-size="10.00" fill="#000000">+_proportionalGain</text>
</g>
<!-- Node5&#45;&gt;Node11 -->
<g id="edge16" class="edge">
<title>Node5&#45;&gt;Node11</title>
<path fill="none" stroke="#404040" d="M855.4117,-494.9518C903.5808,-486.5087 1034.8604,-462.6735 1050.7777,-451 1064.4249,-440.9913 1059.0093,-431.0561 1069.7777,-418 1080.9031,-404.5109 1094.6165,-391.4432 1107.7982,-380.1182"/>
<polygon fill="none" stroke="#404040" points="1108.0567,-379.9018 1110.0896,-372.9832 1117.2579,-372.1987 1115.225,-379.1173 1108.0567,-379.9018"/>
<text text-anchor="middle" x="1099.7777" y="-432" font-family="Helvetica,sans-Serif" font-size="10.00" fill="#000000"> +rayDuration</text>
</g>
<!-- Node5&#45;&gt;Node16 -->
<g id="edge24" class="edge">
<title>Node5&#45;&gt;Node16</title>
<path fill="none" stroke="#404040" d="M837.0274,-469.4322C836.9048,-454.144 837.1974,-435.0114 838.7777,-418 839.81,-406.8868 841.5902,-394.9394 843.5078,-383.9372"/>
<polygon fill="none" stroke="#404040" points="843.5302,-383.8143 840.6802,-377.1903 845.6985,-372.0118 848.5486,-378.6358 843.5302,-383.8143"/>
<text text-anchor="middle" x="887.7777" y="-443" font-family="Helvetica,sans-Serif" font-size="10.00" fill="#000000"> +horizontalResolution</text>
<text text-anchor="middle" x="887.7777" y="-432" font-family="Helvetica,sans-Serif" font-size="10.00" fill="#000000">+rangeAccuracy</text>
<text text-anchor="middle" x="887.7777" y="-421" font-family="Helvetica,sans-Serif" font-size="10.00" fill="#000000">+verticalAngleRange</text>
</g>
<!-- Node6&#45;&gt;Node1 -->
<g id="edge26" class="edge">
<title>Node6&#45;&gt;Node1</title>
<path fill="none" stroke="#404040" d="M256.7403,-287.2649C258.9971,-267.2061 262.9334,-244.7088 269.7777,-225 290.1068,-166.4601 296.5587,-148.4152 340.7777,-105 357.2782,-88.7995 377.9179,-74.8729 398.0189,-63.5323"/>
<polygon fill="none" stroke="#404040" points="398.24,-63.4118 401.5948,-57.0285 408.7773,-57.6701 405.4226,-64.0534 398.24,-63.4118"/>
<text text-anchor="middle" x="374.2777" y="-153.5" font-family="Helvetica,sans-Serif" font-size="10.00" fill="#000000"> +gssController</text>
</g>
<!-- Node6&#45;&gt;Node3 -->
<g id="edge7" class="edge">
<title>Node6&#45;&gt;Node3</title>
<path fill="none" stroke="#404040" d="M265.7931,-287.4228C272.8695,-265.6324 283.8755,-241.9011 300.7777,-225 316.2686,-209.51 363.7047,-191.1975 405.141,-177.3319"/>
<polygon fill="none" stroke="#404040" points="405.2399,-177.2994 409.6872,-171.623 416.6375,-173.545 412.1901,-179.2214 405.2399,-177.2994"/>
<text text-anchor="middle" x="337.2777" y="-244.5" font-family="Helvetica,sans-Serif" font-size="10.00" fill="#000000"> +_gssController</text>
</g>
<!-- Node7&#45;&gt;Node3 -->
<g id="edge9" class="edge">
<title>Node7&#45;&gt;Node3</title>
<path fill="none" stroke="#404040" d="M378.2616,-292.8914C376.4993,-271.0214 377.7525,-245.7464 387.7777,-225 392.5822,-215.0574 399.5924,-206.1096 407.5807,-198.2093"/>
<polygon fill="none" stroke="#404040" points="407.6869,-198.113 409.4432,-191.119 416.5746,-190.0502 414.8184,-197.0441 407.6869,-198.113"/>
<text text-anchor="middle" x="424.2777" y="-244.5" font-family="Helvetica,sans-Serif" font-size="10.00" fill="#000000"> +_ImuController</text>
</g>
<!-- Node8 -->
<g id="node8" class="node">
<title>Node8</title>
<g id="a_node8"><a xlink:title=" ">
<polygon fill="#ffffff" stroke="#666666" points="37.2777,-315 37.2777,-372 178.2777,-372 178.2777,-315 37.2777,-315"/>
<text text-anchor="middle" x="107.7777" y="-360" font-family="Helvetica,sans-Serif" font-size="10.00" fill="#000000">Action&lt; CarStateMessage &gt;</text>
<polyline fill="none" stroke="#666666" points="37.2777,-353 178.2777,-353 "/>
<text text-anchor="middle" x="107.7777" y="-341" font-family="Helvetica,sans-Serif" font-size="10.00" fill="#000000"> </text>
<polyline fill="none" stroke="#666666" points="37.2777,-334 178.2777,-334 "/>
<text text-anchor="middle" x="107.7777" y="-322" font-family="Helvetica,sans-Serif" font-size="10.00" fill="#000000"> </text>
</a>
</g>
</g>
<!-- Node8&#45;&gt;Node3 -->
<g id="edge11" class="edge">
<title>Node8&#45;&gt;Node3</title>
<path fill="none" stroke="#404040" d="M118.8354,-314.8111C131.1859,-286.9429 153.9886,-245.8718 187.7777,-225 240.4005,-192.4944 265.55,-221.0856 325.7777,-207 352.0934,-200.8455 380.301,-191.8403 405.0163,-183.1034"/>
<polygon fill="none" stroke="#404040" points="405.1819,-183.044 409.4753,-177.2502 416.4746,-178.985 412.1813,-184.7787 405.1819,-183.044"/>
<text text-anchor="middle" x="228.7777" y="-244.5" font-family="Helvetica,sans-Serif" font-size="10.00" fill="#000000"> +OnNewCarState</text>
</g>
<!-- Node9 -->
<g id="node9" class="node">
<title>Node9</title>
<g id="a_node9"><a xlink:title=" ">
<polygon fill="#ffffff" stroke="#666666" points="503.2777,-315 503.2777,-372 564.2777,-372 564.2777,-315 503.2777,-315"/>
<text text-anchor="middle" x="533.7777" y="-360" font-family="Helvetica,sans-Serif" font-size="10.00" fill="#000000">Transform</text>
<polyline fill="none" stroke="#666666" points="503.2777,-353 564.2777,-353 "/>
<text text-anchor="middle" x="533.7777" y="-341" font-family="Helvetica,sans-Serif" font-size="10.00" fill="#000000"> </text>
<polyline fill="none" stroke="#666666" points="503.2777,-334 564.2777,-334 "/>
<text text-anchor="middle" x="533.7777" y="-322" font-family="Helvetica,sans-Serif" font-size="10.00" fill="#000000"> </text>
</a>
</g>
</g>
<!-- Node9&#45;&gt;Node3 -->
<g id="edge12" class="edge">
<title>Node9&#45;&gt;Node3</title>
<path fill="none" stroke="#404040" d="M524.6882,-314.614C516.6562,-289.0885 504.6646,-250.9797 494.4486,-218.5137"/>
<polygon fill="none" stroke="#404040" points="494.3778,-218.2883 488.7612,-213.7656 490.7758,-206.8416 496.3924,-211.3643 494.3778,-218.2883"/>
<text text-anchor="middle" x="547.2777" y="-261" font-family="Helvetica,sans-Serif" font-size="10.00" fill="#000000"> +frontLeftWheel</text>
<text text-anchor="middle" x="547.2777" y="-250" font-family="Helvetica,sans-Serif" font-size="10.00" fill="#000000">+frontRightWheel</text>
<text text-anchor="middle" x="547.2777" y="-239" font-family="Helvetica,sans-Serif" font-size="10.00" fill="#000000">+rearLeftWheel</text>
<text text-anchor="middle" x="547.2777" y="-228" font-family="Helvetica,sans-Serif" font-size="10.00" fill="#000000">+rearRightWheel</text>
</g>
<!-- Node10 -->
<g id="node10" class="node">
<title>Node10</title>
<g id="a_node10"><a xlink:title=" ">
<polygon fill="#ffffff" stroke="#666666" points="582.2777,-315 582.2777,-372 659.2777,-372 659.2777,-315 582.2777,-315"/>
<text text-anchor="middle" x="620.7777" y="-360" font-family="Helvetica,sans-Serif" font-size="10.00" fill="#000000">WheelCollider</text>
<polyline fill="none" stroke="#666666" points="582.2777,-353 659.2777,-353 "/>
<text text-anchor="middle" x="620.7777" y="-341" font-family="Helvetica,sans-Serif" font-size="10.00" fill="#000000"> </text>
<polyline fill="none" stroke="#666666" points="582.2777,-334 659.2777,-334 "/>
<text text-anchor="middle" x="620.7777" y="-322" font-family="Helvetica,sans-Serif" font-size="10.00" fill="#000000"> </text>
</a>
</g>
</g>
<!-- Node10&#45;&gt;Node3 -->
<g id="edge13" class="edge">
<title>Node10&#45;&gt;Node3</title>
<path fill="none" stroke="#404040" d="M619.3143,-314.786C616.6927,-289.0096 609.4806,-251.2913 589.7777,-225 577.7521,-208.9532 560.802,-195.894 543.6019,-185.6283"/>
<polygon fill="none" stroke="#404040" points="543.355,-185.4892 536.164,-186.0268 532.9019,-179.5957 540.0929,-179.0581 543.355,-185.4892"/>
<text text-anchor="middle" x="650.7777" y="-261" font-family="Helvetica,sans-Serif" font-size="10.00" fill="#000000"> +frontLeftCollider</text>
<text text-anchor="middle" x="650.7777" y="-250" font-family="Helvetica,sans-Serif" font-size="10.00" fill="#000000">+frontRightCollider</text>
<text text-anchor="middle" x="650.7777" y="-239" font-family="Helvetica,sans-Serif" font-size="10.00" fill="#000000">+rearLeftCollider</text>
<text text-anchor="middle" x="650.7777" y="-228" font-family="Helvetica,sans-Serif" font-size="10.00" fill="#000000">+rearRightCollider</text>
</g>
<!-- Node11&#45;&gt;Node1 -->
<g id="edge14" class="edge">
<title>Node11&#45;&gt;Node1</title>
<path fill="none" stroke="#404040" d="M1130.1206,-314.6468C1082.9848,-263.6055 977.0919,-157.8089 864.7777,-105 770.8647,-60.8432 652.6468,-42.3386 571.1215,-34.586"/>
<polygon fill="none" stroke="#404040" points="571.0666,-34.5811 564.7297,-38.0225 559.1157,-33.4967 565.4527,-30.0552 571.0666,-34.5811"/>
<text text-anchor="middle" x="1065.7777" y="-153.5" font-family="Helvetica,sans-Serif" font-size="10.00" fill="#000000"> +carCameraController</text>
</g>
<!-- Node12 -->
<g id="node12" class="node">
<title>Node12</title>
<g id="a_node12"><a xlink:title=" ">
<polygon fill="#ffffff" stroke="#666666" points="1009.7777,-469.5 1009.7777,-526.5 1093.7777,-526.5 1093.7777,-469.5 1009.7777,-469.5"/>
<text text-anchor="middle" x="1051.7777" y="-514.5" font-family="Helvetica,sans-Serif" font-size="10.00" fill="#000000">Action&lt; byte[]&gt;</text>
<polyline fill="none" stroke="#666666" points="1009.7777,-507.5 1093.7777,-507.5 "/>
<text text-anchor="middle" x="1051.7777" y="-495.5" font-family="Helvetica,sans-Serif" font-size="10.00" fill="#000000"> </text>
<polyline fill="none" stroke="#666666" points="1009.7777,-488.5 1093.7777,-488.5 "/>
<text text-anchor="middle" x="1051.7777" y="-476.5" font-family="Helvetica,sans-Serif" font-size="10.00" fill="#000000"> </text>
</a>
</g>
</g>
<!-- Node12&#45;&gt;Node11 -->
<g id="edge17" class="edge">
<title>Node12&#45;&gt;Node11</title>
<path fill="none" stroke="#404040" d="M1094.0239,-482.3783C1108.6653,-474.9785 1123.8738,-464.6952 1133.7777,-451 1147.6819,-431.773 1153.264,-405.8078 1155.3307,-384.2127"/>
<polygon fill="none" stroke="#404040" points="1155.3415,-384.0576 1151.7693,-377.7934 1156.1777,-372.0867 1159.7499,-378.3509 1155.3415,-384.0576"/>
<text text-anchor="middle" x="1183.7777" y="-432" font-family="Helvetica,sans-Serif" font-size="10.00" fill="#000000"> +OnNewImage</text>
</g>
<!-- Node12&#45;&gt;Node16 -->
<g id="edge25" class="edge">
<title>Node12&#45;&gt;Node16</title>
<path fill="none" stroke="#404040" d="M1009.722,-481.8032C993.0313,-474.0863 974.3763,-463.732 959.7777,-451 946.3044,-439.2494 948.6985,-431.3229 936.7777,-418 924.9852,-404.8205 910.9609,-391.6872 897.7378,-380.201"/>
<polygon fill="none" stroke="#404040" points="897.4268,-379.9359 890.2657,-379.0877 888.2944,-372.1513 895.4554,-372.9994 897.4268,-379.9359"/>
<text text-anchor="middle" x="1005.2777" y="-432" font-family="Helvetica,sans-Serif" font-size="10.00" fill="#000000"> +OnNewPointCloud</text>
</g>
<!-- Node13 -->
<g id="node13" class="node">
<title>Node13</title>
<g id="a_node13"><a xlink:title=" ">
<polygon fill="#ffffff" stroke="#666666" points="1205.7777,-469.5 1205.7777,-526.5 1275.7777,-526.5 1275.7777,-469.5 1205.7777,-469.5"/>
<text text-anchor="middle" x="1240.7777" y="-514.5" font-family="Helvetica,sans-Serif" font-size="10.00" fill="#000000">UnityEngine</text>
<polyline fill="none" stroke="#666666" points="1205.7777,-507.5 1275.7777,-507.5 "/>
<text text-anchor="middle" x="1240.7777" y="-495.5" font-family="Helvetica,sans-Serif" font-size="10.00" fill="#000000"> </text>
<polyline fill="none" stroke="#666666" points="1205.7777,-488.5 1275.7777,-488.5 "/>
<text text-anchor="middle" x="1240.7777" y="-476.5" font-family="Helvetica,sans-Serif" font-size="10.00" fill="#000000"> </text>
</a>
</g>
</g>
<!-- Node13&#45;&gt;Node11 -->
<g id="edge18" class="edge">
<title>Node13&#45;&gt;Node11</title>
<path fill="none" stroke="#404040" d="M1239.805,-469.3332C1238.2973,-453.489 1234.7808,-433.8612 1226.7777,-418 1219.9867,-404.541 1209.9594,-391.861 1199.567,-380.9085"/>
<polygon fill="none" stroke="#404040" points="1199.2899,-380.6308 1192.2204,-379.2083 1190.8144,-372.1356 1197.8839,-373.558 1199.2899,-380.6308"/>
<text text-anchor="middle" x="1265.7777" y="-432" font-family="Helvetica,sans-Serif" font-size="10.00" fill="#000000"> +carCamera</text>
</g>
<!-- Node14 -->
<g id="node14" class="node">
<title>Node14</title>
<g id="a_node14"><a xlink:title=" ">
<polygon fill="#ffffff" stroke="#666666" points="1294.2777,-469.5 1294.2777,-526.5 1381.2777,-526.5 1381.2777,-469.5 1294.2777,-469.5"/>
<text text-anchor="middle" x="1337.7777" y="-514.5" font-family="Helvetica,sans-Serif" font-size="10.00" fill="#000000">ComputeShader</text>
<polyline fill="none" stroke="#666666" points="1294.2777,-507.5 1381.2777,-507.5 "/>
<text text-anchor="middle" x="1337.7777" y="-495.5" font-family="Helvetica,sans-Serif" font-size="10.00" fill="#000000"> </text>
<polyline fill="none" stroke="#666666" points="1294.2777,-488.5 1381.2777,-488.5 "/>
<text text-anchor="middle" x="1337.7777" y="-476.5" font-family="Helvetica,sans-Serif" font-size="10.00" fill="#000000"> </text>
</a>
</g>
</g>
<!-- Node14&#45;&gt;Node11 -->
<g id="edge19" class="edge">
<title>Node14&#45;&gt;Node11</title>
<path fill="none" stroke="#404040" d="M1328.9183,-469.3966C1322.6285,-452.7968 1312.7904,-432.3918 1298.7777,-418 1282.9691,-401.7638 1262.8595,-388.3464 1242.7497,-377.5887"/>
<polygon fill="none" stroke="#404040" points="1242.6114,-377.5179 1235.4475,-378.3414 1231.932,-372.0452 1239.0959,-371.2217 1242.6114,-377.5179"/>
<text text-anchor="middle" x="1358.7777" y="-432" font-family="Helvetica,sans-Serif" font-size="10.00" fill="#000000"> +computeShader</text>
</g>
<!-- Node15 -->
<g id="node15" class="node">
<title>Node15</title>
<g id="a_node15"><a xlink:title=" ">
<polygon fill="#ffffff" stroke="#666666" points="1399.2777,-469.5 1399.2777,-526.5 1480.2777,-526.5 1480.2777,-469.5 1399.2777,-469.5"/>
<text text-anchor="middle" x="1439.7777" y="-514.5" font-family="Helvetica,sans-Serif" font-size="10.00" fill="#000000">RenderTexture</text>
<polyline fill="none" stroke="#666666" points="1399.2777,-507.5 1480.2777,-507.5 "/>
<text text-anchor="middle" x="1439.7777" y="-495.5" font-family="Helvetica,sans-Serif" font-size="10.00" fill="#000000"> </text>
<polyline fill="none" stroke="#666666" points="1399.2777,-488.5 1480.2777,-488.5 "/>
<text text-anchor="middle" x="1439.7777" y="-476.5" font-family="Helvetica,sans-Serif" font-size="10.00" fill="#000000"> </text>
</a>
</g>
</g>
<!-- Node15&#45;&gt;Node11 -->
<g id="edge20" class="edge">
<title>Node15&#45;&gt;Node11</title>
<path fill="none" stroke="#404040" d="M1432.4952,-469.194C1426.7827,-452.0965 1417.1604,-431.2408 1401.7777,-418 1378.5129,-397.9746 1309.2054,-377.9564 1250.0625,-363.7213"/>
<polygon fill="none" stroke="#404040" points="1250.0624,-363.7214 1243.3015,-366.2294 1238.3861,-360.9531 1245.147,-358.4451 1250.0624,-363.7214"/>
<text text-anchor="middle" x="1459.7777" y="-432" font-family="Helvetica,sans-Serif" font-size="10.00" fill="#000000"> +renderTexture</text>
</g>
<!-- Node16&#45;&gt;Node1 -->
<g id="edge21" class="edge">
<title>Node16&#45;&gt;Node1</title>
<path fill="none" stroke="#404040" d="M847.6721,-314.8922C842.7129,-289.0111 832.2018,-251.0688 810.7777,-225 746.746,-147.0864 643.0839,-93.3774 567.8159,-62.1466"/>
<polygon fill="none" stroke="#404040" points="567.5694,-62.0462 560.5031,-63.4841 556.458,-57.5144 563.5243,-56.0765 567.5694,-62.0462"/>
<text text-anchor="middle" x="825.7777" y="-153.5" font-family="Helvetica,sans-Serif" font-size="10.00" fill="#000000"> +lidarController</text>
</g>
<!-- Node17 -->
<g id="node17" class="node">
<title>Node17</title>
<g id="a_node17"><a xlink:title=" ">
<polygon fill="#ffffff" stroke="#666666" points="739.2777,-469.5 739.2777,-526.5 768.2777,-526.5 768.2777,-469.5 739.2777,-469.5"/>
<text text-anchor="middle" x="753.7777" y="-514.5" font-family="Helvetica,sans-Serif" font-size="10.00" fill="#000000">int</text>
<polyline fill="none" stroke="#666666" points="739.2777,-507.5 768.2777,-507.5 "/>
<text text-anchor="middle" x="753.7777" y="-495.5" font-family="Helvetica,sans-Serif" font-size="10.00" fill="#000000"> </text>
<polyline fill="none" stroke="#666666" points="739.2777,-488.5 768.2777,-488.5 "/>
<text text-anchor="middle" x="753.7777" y="-476.5" font-family="Helvetica,sans-Serif" font-size="10.00" fill="#000000"> </text>
</a>
</g>
</g>
<!-- Node17&#45;&gt;Node16 -->
<g id="edge23" class="edge">
<title>Node17&#45;&gt;Node16</title>
<path fill="none" stroke="#404040" d="M767.941,-469.3007C775.9006,-453.804 786.3161,-434.5182 796.7777,-418 804.4287,-405.9194 813.4025,-393.2401 821.8564,-381.8364"/>
<polygon fill="none" stroke="#404040" points="821.8961,-381.7835 822.303,-374.5839 829.1053,-372.1904 828.6984,-379.3901 821.8961,-381.7835"/>
<text text-anchor="middle" x="814.7777" y="-432" font-family="Helvetica,sans-Serif" font-size="10.00" fill="#000000"> +layers</text>
</g>
</g>
</svg>
