<?xml version="1.0" encoding="UTF-8" standalone="no"?>
<!DOCTYPE svg PUBLIC "-//W3C//DTD SVG 1.1//EN"
 "http://www.w3.org/Graphics/SVG/1.1/DTD/svg11.dtd">
<!-- Generated by graphviz version 2.40.1 (20161225.0304)
 -->
<!-- Title: Car.Lidar.LidarController Pages: 1 -->
<svg width="383pt" height="193pt"
 viewBox="0.00 0.00 383.00 193.00" xmlns="http://www.w3.org/2000/svg" xmlns:xlink="http://www.w3.org/1999/xlink">
<g id="graph0" class="graph" transform="scale(1 1) rotate(0) translate(4 189)">
<title>Car.Lidar.LidarController</title>
<!-- Node1 -->
<g id="node1" class="node">
<title>Node1</title>
<g id="a_node1"><a xlink:title=" ">
<polygon fill="#999999" stroke="#666666" points="84,-.5 84,-57.5 206,-57.5 206,-.5 84,-.5"/>
<text text-anchor="middle" x="145" y="-45.5" font-family="Helvetica,sans-Serif" font-size="10.00" fill="#000000">Car.Lidar.LidarController</text>
<polyline fill="none" stroke="#666666" points="84,-38.5 206,-38.5 "/>
<text text-anchor="start" x="92" y="-26.5" font-family="Helvetica,sans-Serif" font-size="10.00" fill="#000000">+ Hz</text>
<polyline fill="none" stroke="#666666" points="84,-19.5 206,-19.5 "/>
<text text-anchor="middle" x="145" y="-7.5" font-family="Helvetica,sans-Serif" font-size="10.00" fill="#000000"> </text>
</a>
</g>
</g>
<!-- Node2 -->
<g id="node2" class="node">
<title>Node2</title>
<g id="a_node2"><a xlink:href="classMonoBehaviour.html" target="_top" xlink:title=" ">
<polygon fill="#ffffff" stroke="#666666" points="0,-127.5 0,-184.5 84,-184.5 84,-127.5 0,-127.5"/>
<text text-anchor="middle" x="42" y="-172.5" font-family="Helvetica,sans-Serif" font-size="10.00" fill="#000000">MonoBehaviour</text>
<polyline fill="none" stroke="#666666" points="0,-165.5 84,-165.5 "/>
<text text-anchor="middle" x="42" y="-153.5" font-family="Helvetica,sans-Serif" font-size="10.00" fill="#000000"> </text>
<polyline fill="none" stroke="#666666" points="0,-146.5 84,-146.5 "/>
<text text-anchor="middle" x="42" y="-134.5" font-family="Helvetica,sans-Serif" font-size="10.00" fill="#000000"> </text>
</a>
</g>
</g>
<!-- Node2&#45;&gt;Node1 -->
<g id="edge1" class="edge">
<title>Node2&#45;&gt;Node1</title>
<path fill="none" stroke="#63b8ff" d="M71.4729,-119.6596C87.3809,-100.0449 106.7439,-76.1701 121.6056,-57.8456"/>
<polygon fill="none" stroke="#63b8ff" points="68.6959,-117.5273 65.1152,-127.4987 74.1326,-121.9366 68.6959,-117.5273"/>
</g>
<!-- Node3 -->
<g id="node3" class="node">
<title>Node3</title>
<g id="a_node3"><a xlink:title=" ">
<polygon fill="#ffffff" stroke="#666666" points="101.5,-127.5 101.5,-184.5 130.5,-184.5 130.5,-127.5 101.5,-127.5"/>
<text text-anchor="middle" x="116" y="-172.5" font-family="Helvetica,sans-Serif" font-size="10.00" fill="#000000">int</text>
<polyline fill="none" stroke="#666666" points="101.5,-165.5 130.5,-165.5 "/>
<text text-anchor="middle" x="116" y="-153.5" font-family="Helvetica,sans-Serif" font-size="10.00" fill="#000000"> </text>
<polyline fill="none" stroke="#666666" points="101.5,-146.5 130.5,-146.5 "/>
<text text-anchor="middle" x="116" y="-134.5" font-family="Helvetica,sans-Serif" font-size="10.00" fill="#000000"> </text>
</a>
</g>
</g>
<!-- Node3&#45;&gt;Node1 -->
<g id="edge2" class="edge">
<title>Node3&#45;&gt;Node1</title>
<path fill="none" stroke="#404040" d="M112.7944,-127.3475C111.9441,-111.8645 112.3248,-92.5769 117,-76 117.7227,-73.4376 118.6228,-70.8728 119.6529,-68.3369"/>
<polygon fill="none" stroke="#404040" points="119.6613,-68.3191 118.6512,-61.1791 124.8535,-57.5005 125.8636,-64.6405 119.6613,-68.3191"/>
<text text-anchor="middle" x="135" y="-90" font-family="Helvetica,sans-Serif" font-size="10.00" fill="#000000"> +layers</text>
</g>
<!-- Node4 -->
<g id="node4" class="node">
<title>Node4</title>
<g id="a_node4"><a xlink:title=" ">
<polygon fill="#ffffff" stroke="#666666" points="157.5,-127.5 157.5,-184.5 192.5,-184.5 192.5,-127.5 157.5,-127.5"/>
<text text-anchor="middle" x="175" y="-172.5" font-family="Helvetica,sans-Serif" font-size="10.00" fill="#000000">float</text>
<polyline fill="none" stroke="#666666" points="157.5,-165.5 192.5,-165.5 "/>
<text text-anchor="middle" x="175" y="-153.5" font-family="Helvetica,sans-Serif" font-size="10.00" fill="#000000"> </text>
<polyline fill="none" stroke="#666666" points="157.5,-146.5 192.5,-146.5 "/>
<text text-anchor="middle" x="175" y="-134.5" font-family="Helvetica,sans-Serif" font-size="10.00" fill="#000000"> </text>
</a>
</g>
</g>
<!-- Node4&#45;&gt;Node1 -->
<g id="edge3" class="edge">
<title>Node4&#45;&gt;Node1</title>
<path fill="none" stroke="#404040" d="M168.2674,-127.4987C164.2428,-110.4611 159.0634,-88.5351 154.6134,-69.6968"/>
<polygon fill="none" stroke="#404040" points="154.5727,-69.5242 149.3004,-64.6045 151.8139,-57.8456 157.0862,-62.7653 154.5727,-69.5242"/>
<text text-anchor="middle" x="212" y="-101" font-family="Helvetica,sans-Serif" font-size="10.00" fill="#000000"> +horizontalResolution</text>
<text text-anchor="middle" x="212" y="-90" font-family="Helvetica,sans-Serif" font-size="10.00" fill="#000000">+rangeAccuracy</text>
<text text-anchor="middle" x="212" y="-79" font-family="Helvetica,sans-Serif" font-size="10.00" fill="#000000">+verticalAngleRange</text>
</g>
<!-- Node5 -->
<g id="node5" class="node">
<title>Node5</title>
<g id="a_node5"><a xlink:title=" ">
<polygon fill="#ffffff" stroke="#666666" points="254,-127.5 254,-184.5 338,-184.5 338,-127.5 254,-127.5"/>
<text text-anchor="middle" x="296" y="-172.5" font-family="Helvetica,sans-Serif" font-size="10.00" fill="#000000">Action&lt; byte[]&gt;</text>
<polyline fill="none" stroke="#666666" points="254,-165.5 338,-165.5 "/>
<text text-anchor="middle" x="296" y="-153.5" font-family="Helvetica,sans-Serif" font-size="10.00" fill="#000000"> </text>
<polyline fill="none" stroke="#666666" points="254,-146.5 338,-146.5 "/>
<text text-anchor="middle" x="296" y="-134.5" font-family="Helvetica,sans-Serif" font-size="10.00" fill="#000000"> </text>
</a>
</g>
</g>
<!-- Node5&#45;&gt;Node1 -->
<g id="edge4" class="edge">
<title>Node5&#45;&gt;Node1</title>
<path fill="none" stroke="#404040" d="M290.8957,-127.2926C286.5673,-110.447 278.7726,-89.8225 265,-76 251.9158,-62.8684 234.7316,-53.3137 217.4718,-46.3961"/>
<polygon fill="none" stroke="#404040" points="217.4183,-46.3763 210.4042,-48.0505 206.161,-42.2199 213.1751,-40.5457 217.4183,-46.3763"/>
<text text-anchor="middle" x="329.5" y="-90" font-family="Helvetica,sans-Serif" font-size="10.00" fill="#000000"> +OnNewPointCloud</text>
</g>
</g>
</svg>
