<?xml version="1.0" encoding="UTF-8" standalone="no"?>
<!DOCTYPE svg PUBLIC "-//W3C//DTD SVG 1.1//EN"
 "http://www.w3.org/Graphics/SVG/1.1/DTD/svg11.dtd">
<!-- Generated by graphviz version 2.40.1 (20161225.0304)
 -->
<!-- Title: Car.Lidar.LidarController Pages: 1 -->
<svg width="130pt" height="215pt"
 viewBox="0.00 0.00 130.00 215.00" xmlns="http://www.w3.org/2000/svg" xmlns:xlink="http://www.w3.org/1999/xlink">
<g id="graph0" class="graph" transform="scale(1 1) rotate(0) translate(4 211)">
<title>Car.Lidar.LidarController</title>
<!-- Node1 -->
<g id="node1" class="node">
<title>Node1</title>
<g id="a_node1"><a xlink:title=" ">
<polygon fill="#999999" stroke="#666666" points="0,-.5 0,-112.5 122,-112.5 122,-.5 0,-.5"/>
<text text-anchor="middle" x="61" y="-100.5" font-family="Helvetica,sans-Serif" font-size="10.00" fill="#000000">Car.Lidar.LidarController</text>
<polyline fill="none" stroke="#666666" points="0,-93.5 122,-93.5 "/>
<text text-anchor="start" x="8" y="-81.5" font-family="Helvetica,sans-Serif" font-size="10.00" fill="#000000">+ layers</text>
<text text-anchor="start" x="8" y="-70.5" font-family="Helvetica,sans-Serif" font-size="10.00" fill="#000000">+ verticalAngleRange</text>
<text text-anchor="start" x="8" y="-59.5" font-family="Helvetica,sans-Serif" font-size="10.00" fill="#000000">+ horizontalResolution</text>
<text text-anchor="start" x="8" y="-48.5" font-family="Helvetica,sans-Serif" font-size="10.00" fill="#000000">+ rangeAccuracy</text>
<text text-anchor="start" x="8" y="-37.5" font-family="Helvetica,sans-Serif" font-size="10.00" fill="#000000">+ OnNewPointCloud</text>
<text text-anchor="start" x="8" y="-26.5" font-family="Helvetica,sans-Serif" font-size="10.00" fill="#000000">+ Hz</text>
<polyline fill="none" stroke="#666666" points="0,-19.5 122,-19.5 "/>
<text text-anchor="middle" x="61" y="-7.5" font-family="Helvetica,sans-Serif" font-size="10.00" fill="#000000"> </text>
</a>
</g>
</g>
<!-- Node2 -->
<g id="node2" class="node">
<title>Node2</title>
<g id="a_node2"><a xlink:href="classMonoBehaviour.html" target="_top" xlink:title=" ">
<polygon fill="#ffffff" stroke="#666666" points="19,-149.5 19,-206.5 103,-206.5 103,-149.5 19,-149.5"/>
<text text-anchor="middle" x="61" y="-194.5" font-family="Helvetica,sans-Serif" font-size="10.00" fill="#000000">MonoBehaviour</text>
<polyline fill="none" stroke="#666666" points="19,-187.5 103,-187.5 "/>
<text text-anchor="middle" x="61" y="-175.5" font-family="Helvetica,sans-Serif" font-size="10.00" fill="#000000"> </text>
<polyline fill="none" stroke="#666666" points="19,-168.5 103,-168.5 "/>
<text text-anchor="middle" x="61" y="-156.5" font-family="Helvetica,sans-Serif" font-size="10.00" fill="#000000"> </text>
</a>
</g>
</g>
<!-- Node2&#45;&gt;Node1 -->
<g id="edge1" class="edge">
<title>Node2&#45;&gt;Node1</title>
<path fill="none" stroke="#63b8ff" d="M61,-139.0021C61,-130.6329 61,-121.6292 61,-112.7541"/>
<polygon fill="none" stroke="#63b8ff" points="57.5001,-139.2062 61,-149.2062 64.5001,-139.2062 57.5001,-139.2062"/>
</g>
</g>
</svg>
