<?xml version="1.0" encoding="UTF-8" standalone="no"?>
<!DOCTYPE svg PUBLIC "-//W3C//DTD SVG 1.1//EN"
 "http://www.w3.org/Graphics/SVG/1.1/DTD/svg11.dtd">
<!-- Generated by graphviz version 2.40.1 (20161225.0304)
 -->
<!-- Title: Communication.Messages.PerceivedConesMessage Pages: 1 -->
<svg width="282pt" height="298pt"
 viewBox="0.00 0.00 281.50 298.00" xmlns="http://www.w3.org/2000/svg" xmlns:xlink="http://www.w3.org/1999/xlink">
<g id="graph0" class="graph" transform="scale(1 1) rotate(0) translate(4 294)">
<title>Communication.Messages.PerceivedConesMessage</title>
<!-- Node1 -->
<g id="node1" class="node">
<title>Node1</title>
<g id="a_node1"><a xlink:title=" ">
<polygon fill="#999999" stroke="#666666" points="30.5,-.5 30.5,-68.5 209.5,-68.5 209.5,-.5 30.5,-.5"/>
<text text-anchor="start" x="38.5" y="-56.5" font-family="Helvetica,sans-Serif" font-size="10.00" fill="#000000">Communication.Messages.Perceived</text>
<text text-anchor="middle" x="120" y="-45.5" font-family="Helvetica,sans-Serif" font-size="10.00" fill="#000000">ConesMessage</text>
<polyline fill="none" stroke="#666666" points="30.5,-38.5 209.5,-38.5 "/>
<text text-anchor="middle" x="120" y="-26.5" font-family="Helvetica,sans-Serif" font-size="10.00" fill="#000000"> </text>
<polyline fill="none" stroke="#666666" points="30.5,-19.5 209.5,-19.5 "/>
<text text-anchor="middle" x="120" y="-7.5" font-family="Helvetica,sans-Serif" font-size="10.00" fill="#000000"> </text>
</a>
</g>
</g>
<!-- Node2 -->
<g id="node2" class="node">
<title>Node2</title>
<g id="a_node2"><a xlink:href="classCommunication_1_1Messages_1_1BaseMessage.html" target="_top" xlink:title=" ">
<polygon fill="#ffffff" stroke="#666666" points="0,-122 0,-179 94,-179 94,-122 0,-122"/>
<text text-anchor="middle" x="47" y="-167" font-family="Helvetica,sans-Serif" font-size="10.00" fill="#000000">BaseMessage</text>
<polyline fill="none" stroke="#666666" points="0,-160 94,-160 "/>
<text text-anchor="middle" x="47" y="-148" font-family="Helvetica,sans-Serif" font-size="10.00" fill="#000000"> </text>
<polyline fill="none" stroke="#666666" points="0,-141 94,-141 "/>
<text text-anchor="start" x="8" y="-129" font-family="Helvetica,sans-Serif" font-size="10.00" fill="#000000">+ BaseMessage()</text>
</a>
</g>
</g>
<!-- Node2&#45;&gt;Node1 -->
<g id="edge1" class="edge">
<title>Node2&#45;&gt;Node1</title>
<path fill="none" stroke="#63b8ff" d="M70.4745,-113.198C79.4856,-98.8791 89.7157,-82.6229 98.5293,-68.6178"/>
<polygon fill="none" stroke="#63b8ff" points="67.4089,-111.4981 65.0449,-121.8258 73.3334,-115.2265 67.4089,-111.4981"/>
</g>
<!-- Node3 -->
<g id="node3" class="node">
<title>Node3</title>
<g id="a_node3"><a xlink:title=" ">
<polygon fill="#ffffff" stroke="#666666" points="29.5,-232.5 29.5,-289.5 64.5,-289.5 64.5,-232.5 29.5,-232.5"/>
<text text-anchor="middle" x="47" y="-277.5" font-family="Helvetica,sans-Serif" font-size="10.00" fill="#000000">long</text>
<polyline fill="none" stroke="#666666" points="29.5,-270.5 64.5,-270.5 "/>
<text text-anchor="middle" x="47" y="-258.5" font-family="Helvetica,sans-Serif" font-size="10.00" fill="#000000"> </text>
<polyline fill="none" stroke="#666666" points="29.5,-251.5 64.5,-251.5 "/>
<text text-anchor="middle" x="47" y="-239.5" font-family="Helvetica,sans-Serif" font-size="10.00" fill="#000000"> </text>
</a>
</g>
</g>
<!-- Node3&#45;&gt;Node2 -->
<g id="edge2" class="edge">
<title>Node3&#45;&gt;Node2</title>
<path fill="none" stroke="#404040" d="M47,-232.2559C47,-219.7224 47,-204.8039 47,-191.1631"/>
<polygon fill="none" stroke="#404040" points="47.0001,-191.1002 43,-185.1002 47,-179.1002 51,-185.1002 47.0001,-191.1002"/>
<text text-anchor="middle" x="77.5" y="-206" font-family="Helvetica,sans-Serif" font-size="10.00" fill="#000000"> +time_stamp</text>
</g>
<!-- Node4 -->
<g id="node4" class="node">
<title>Node4</title>
<g id="a_node4"><a xlink:title=" ">
<polygon fill="#ffffff" stroke="#666666" points="112.5,-116.5 112.5,-184.5 273.5,-184.5 273.5,-116.5 112.5,-116.5"/>
<text text-anchor="start" x="120.5" y="-172.5" font-family="Helvetica,sans-Serif" font-size="10.00" fill="#000000">List&lt; Communication.Messages.</text>
<text text-anchor="middle" x="193" y="-161.5" font-family="Helvetica,sans-Serif" font-size="10.00" fill="#000000">Cone &gt;</text>
<polyline fill="none" stroke="#666666" points="112.5,-154.5 273.5,-154.5 "/>
<text text-anchor="middle" x="193" y="-142.5" font-family="Helvetica,sans-Serif" font-size="10.00" fill="#000000"> </text>
<polyline fill="none" stroke="#666666" points="112.5,-135.5 273.5,-135.5 "/>
<text text-anchor="middle" x="193" y="-123.5" font-family="Helvetica,sans-Serif" font-size="10.00" fill="#000000"> </text>
</a>
</g>
</g>
<!-- Node4&#45;&gt;Node1 -->
<g id="edge3" class="edge">
<title>Node4&#45;&gt;Node1</title>
<path fill="none" stroke="#404040" d="M171.4924,-116.3236C164.206,-104.7452 155.9549,-91.6338 148.2262,-79.3525"/>
<polygon fill="none" stroke="#404040" points="147.9976,-78.9893 141.4164,-76.0416 141.6061,-68.833 148.1873,-71.7806 147.9976,-78.9893"/>
<text text-anchor="middle" x="177" y="-90" font-family="Helvetica,sans-Serif" font-size="10.00" fill="#000000"> +cones</text>
</g>
</g>
</svg>
