<?xml version="1.0" encoding="UTF-8" standalone="no"?>
<!DOCTYPE svg PUBLIC "-//W3C//DTD SVG 1.1//EN"
 "http://www.w3.org/Graphics/SVG/1.1/DTD/svg11.dtd">
<!-- Generated by graphviz version 2.40.1 (20161225.0304)
 -->
<!-- Title: Communication.InterfaceController Pages: 1 -->
<svg width="176pt" height="193pt"
 viewBox="0.00 0.00 176.00 193.00" xmlns="http://www.w3.org/2000/svg" xmlns:xlink="http://www.w3.org/1999/xlink">
<g id="graph0" class="graph" transform="scale(1 1) rotate(0) translate(4 189)">
<title>Communication.InterfaceController</title>
<!-- Node1 -->
<g id="node1" class="node">
<title>Node1</title>
<g id="a_node1"><a xlink:title=" ">
<polygon fill="#999999" stroke="#666666" points="0,-.5 0,-90.5 168,-90.5 168,-.5 0,-.5"/>
<text text-anchor="middle" x="84" y="-78.5" font-family="Helvetica,sans-Serif" font-size="10.00" fill="#000000">Communication.InterfaceController</text>
<polyline fill="none" stroke="#666666" points="0,-71.5 168,-71.5 "/>
<text text-anchor="start" x="8" y="-59.5" font-family="Helvetica,sans-Serif" font-size="10.00" fill="#000000">+ carController</text>
<text text-anchor="start" x="8" y="-48.5" font-family="Helvetica,sans-Serif" font-size="10.00" fill="#000000">+ carCameraController</text>
<text text-anchor="start" x="8" y="-37.5" font-family="Helvetica,sans-Serif" font-size="10.00" fill="#000000">+ lidarController</text>
<text text-anchor="start" x="8" y="-26.5" font-family="Helvetica,sans-Serif" font-size="10.00" fill="#000000">+ gssController</text>
<polyline fill="none" stroke="#666666" points="0,-19.5 168,-19.5 "/>
<text text-anchor="middle" x="84" y="-7.5" font-family="Helvetica,sans-Serif" font-size="10.00" fill="#000000"> </text>
</a>
</g>
</g>
<!-- Node2 -->
<g id="node2" class="node">
<title>Node2</title>
<g id="a_node2"><a xlink:href="classMonoBehaviour.html" target="_top" xlink:title=" ">
<polygon fill="#ffffff" stroke="#666666" points="42,-127.5 42,-184.5 126,-184.5 126,-127.5 42,-127.5"/>
<text text-anchor="middle" x="84" y="-172.5" font-family="Helvetica,sans-Serif" font-size="10.00" fill="#000000">MonoBehaviour</text>
<polyline fill="none" stroke="#666666" points="42,-165.5 126,-165.5 "/>
<text text-anchor="middle" x="84" y="-153.5" font-family="Helvetica,sans-Serif" font-size="10.00" fill="#000000"> </text>
<polyline fill="none" stroke="#666666" points="42,-146.5 126,-146.5 "/>
<text text-anchor="middle" x="84" y="-134.5" font-family="Helvetica,sans-Serif" font-size="10.00" fill="#000000"> </text>
</a>
</g>
</g>
<!-- Node2&#45;&gt;Node1 -->
<g id="edge1" class="edge">
<title>Node2&#45;&gt;Node1</title>
<path fill="none" stroke="#63b8ff" d="M84,-117.1977C84,-108.667 84,-99.5607 84,-90.7995"/>
<polygon fill="none" stroke="#63b8ff" points="80.5001,-117.2559 84,-127.2559 87.5001,-117.2559 80.5001,-117.2559"/>
</g>
</g>
</svg>
