<?xml version="1.0" encoding="UTF-8" standalone="no"?>
<!DOCTYPE svg PUBLIC "-//W3C//DTD SVG 1.1//EN"
 "http://www.w3.org/Graphics/SVG/1.1/DTD/svg11.dtd">
<!-- Generated by graphviz version 2.40.1 (20161225.0304)
 -->
<!-- Title: getRenderTexture Pages: 1 -->
<svg width="174pt" height="171pt"
 viewBox="0.00 0.00 174.00 171.00" xmlns="http://www.w3.org/2000/svg" xmlns:xlink="http://www.w3.org/1999/xlink">
<g id="graph0" class="graph" transform="scale(1 1) rotate(0) translate(4 167)">
<title>getRenderTexture</title>
<!-- Node1 -->
<g id="node1" class="node">
<title>Node1</title>
<g id="a_node1"><a xlink:title=" ">
<polygon fill="#999999" stroke="#666666" points="36.5,-.5 36.5,-57.5 131.5,-57.5 131.5,-.5 36.5,-.5"/>
<text text-anchor="middle" x="84" y="-45.5" font-family="Helvetica,sans-Serif" font-size="10.00" fill="#000000">getRenderTexture</text>
<polyline fill="none" stroke="#666666" points="36.5,-38.5 131.5,-38.5 "/>
<text text-anchor="middle" x="84" y="-26.5" font-family="Helvetica,sans-Serif" font-size="10.00" fill="#000000"> </text>
<polyline fill="none" stroke="#666666" points="36.5,-19.5 131.5,-19.5 "/>
<text text-anchor="middle" x="84" y="-7.5" font-family="Helvetica,sans-Serif" font-size="10.00" fill="#000000"> </text>
</a>
</g>
</g>
<!-- Node2 -->
<g id="node2" class="node">
<title>Node2</title>
<g id="a_node2"><a xlink:href="classMonoBehaviour.html" target="_top" xlink:title=" ">
<polygon fill="#ffffff" stroke="#666666" points="0,-105.5 0,-162.5 84,-162.5 84,-105.5 0,-105.5"/>
<text text-anchor="middle" x="42" y="-150.5" font-family="Helvetica,sans-Serif" font-size="10.00" fill="#000000">MonoBehaviour</text>
<polyline fill="none" stroke="#666666" points="0,-143.5 84,-143.5 "/>
<text text-anchor="middle" x="42" y="-131.5" font-family="Helvetica,sans-Serif" font-size="10.00" fill="#000000"> </text>
<polyline fill="none" stroke="#666666" points="0,-124.5 84,-124.5 "/>
<text text-anchor="middle" x="42" y="-112.5" font-family="Helvetica,sans-Serif" font-size="10.00" fill="#000000"> </text>
</a>
</g>
</g>
<!-- Node2&#45;&gt;Node1 -->
<g id="edge1" class="edge">
<title>Node2&#45;&gt;Node1</title>
<path fill="none" stroke="#63b8ff" d="M57.2254,-95.9366C62.279,-83.3026 67.8163,-69.4592 72.5372,-57.657"/>
<polygon fill="none" stroke="#63b8ff" points="53.941,-94.7236 53.4767,-105.3083 60.4403,-97.3234 53.941,-94.7236"/>
</g>
<!-- Node3 -->
<g id="node3" class="node">
<title>Node3</title>
<g id="a_node3"><a xlink:title=" ">
<polygon fill="#ffffff" stroke="#666666" points="101.5,-105.5 101.5,-162.5 152.5,-162.5 152.5,-105.5 101.5,-105.5"/>
<text text-anchor="middle" x="127" y="-150.5" font-family="Helvetica,sans-Serif" font-size="10.00" fill="#000000">Camera</text>
<polyline fill="none" stroke="#666666" points="101.5,-143.5 152.5,-143.5 "/>
<text text-anchor="middle" x="127" y="-131.5" font-family="Helvetica,sans-Serif" font-size="10.00" fill="#000000"> </text>
<polyline fill="none" stroke="#666666" points="101.5,-124.5 152.5,-124.5 "/>
<text text-anchor="middle" x="127" y="-112.5" font-family="Helvetica,sans-Serif" font-size="10.00" fill="#000000"> </text>
</a>
</g>
</g>
<!-- Node3&#45;&gt;Node1 -->
<g id="edge2" class="edge">
<title>Node3&#45;&gt;Node1</title>
<path fill="none" stroke="#404040" d="M115.2501,-105.3083C110.6521,-94.0808 105.2994,-81.0103 100.3368,-68.8922"/>
<polygon fill="none" stroke="#404040" points="100.2835,-68.7619 94.308,-64.7254 95.7357,-57.657 101.7112,-61.6935 100.2835,-68.7619"/>
<text text-anchor="middle" x="136" y="-79" font-family="Helvetica,sans-Serif" font-size="10.00" fill="#000000"> +CarCamera</text>
</g>
</g>
</svg>
