<?xml version="1.0" encoding="UTF-8" standalone="no"?>
<!DOCTYPE svg PUBLIC "-//W3C//DTD SVG 1.1//EN"
 "http://www.w3.org/Graphics/SVG/1.1/DTD/svg11.dtd">
<!-- Generated by graphviz version 2.40.1 (20161225.0304)
 -->
<!-- Title: MiniMapCameraController Pages: 1 -->
<svg width="182pt" height="171pt"
 viewBox="0.00 0.00 181.50 171.00" xmlns="http://www.w3.org/2000/svg" xmlns:xlink="http://www.w3.org/1999/xlink">
<g id="graph0" class="graph" transform="scale(1 1) rotate(0) translate(4 167)">
<title>MiniMapCameraController</title>
<!-- Node1 -->
<g id="node1" class="node">
<title>Node1</title>
<g id="a_node1"><a xlink:title=" ">
<polygon fill="#999999" stroke="#666666" points="25,-.5 25,-57.5 155,-57.5 155,-.5 25,-.5"/>
<text text-anchor="middle" x="90" y="-45.5" font-family="Helvetica,sans-Serif" font-size="10.00" fill="#000000">MiniMapCameraController</text>
<polyline fill="none" stroke="#666666" points="25,-38.5 155,-38.5 "/>
<text text-anchor="middle" x="90" y="-26.5" font-family="Helvetica,sans-Serif" font-size="10.00" fill="#000000"> </text>
<polyline fill="none" stroke="#666666" points="25,-19.5 155,-19.5 "/>
<text text-anchor="middle" x="90" y="-7.5" font-family="Helvetica,sans-Serif" font-size="10.00" fill="#000000"> </text>
</a>
</g>
</g>
<!-- Node2 -->
<g id="node2" class="node">
<title>Node2</title>
<g id="a_node2"><a xlink:href="classMonoBehaviour.html" target="_top" xlink:title=" ">
<polygon fill="#ffffff" stroke="#666666" points="0,-105.5 0,-162.5 84,-162.5 84,-105.5 0,-105.5"/>
<text text-anchor="middle" x="42" y="-150.5" font-family="Helvetica,sans-Serif" font-size="10.00" fill="#000000">MonoBehaviour</text>
<polyline fill="none" stroke="#666666" points="0,-143.5 84,-143.5 "/>
<text text-anchor="middle" x="42" y="-131.5" font-family="Helvetica,sans-Serif" font-size="10.00" fill="#000000"> </text>
<polyline fill="none" stroke="#666666" points="0,-124.5 84,-124.5 "/>
<text text-anchor="middle" x="42" y="-112.5" font-family="Helvetica,sans-Serif" font-size="10.00" fill="#000000"> </text>
</a>
</g>
</g>
<!-- Node2&#45;&gt;Node1 -->
<g id="edge1" class="edge">
<title>Node2&#45;&gt;Node1</title>
<path fill="none" stroke="#63b8ff" d="M59.4004,-95.9366C65.1759,-83.3026 71.5043,-69.4592 76.8996,-57.657"/>
<polygon fill="none" stroke="#63b8ff" points="56.0907,-94.7584 55.1162,-105.3083 62.457,-97.6687 56.0907,-94.7584"/>
</g>
<!-- Node3 -->
<g id="node3" class="node">
<title>Node3</title>
<g id="a_node3"><a xlink:title=" ">
<polygon fill="#ffffff" stroke="#666666" points="102.5,-105.5 102.5,-162.5 173.5,-162.5 173.5,-105.5 102.5,-105.5"/>
<text text-anchor="middle" x="138" y="-150.5" font-family="Helvetica,sans-Serif" font-size="10.00" fill="#000000">GameObject</text>
<polyline fill="none" stroke="#666666" points="102.5,-143.5 173.5,-143.5 "/>
<text text-anchor="middle" x="138" y="-131.5" font-family="Helvetica,sans-Serif" font-size="10.00" fill="#000000"> </text>
<polyline fill="none" stroke="#666666" points="102.5,-124.5 173.5,-124.5 "/>
<text text-anchor="middle" x="138" y="-112.5" font-family="Helvetica,sans-Serif" font-size="10.00" fill="#000000"> </text>
</a>
</g>
</g>
<!-- Node3&#45;&gt;Node1 -->
<g id="edge2" class="edge">
<title>Node3&#45;&gt;Node1</title>
<path fill="none" stroke="#404040" d="M124.8838,-105.3083C119.7512,-94.0808 113.7761,-81.0103 108.2364,-68.8922"/>
<polygon fill="none" stroke="#404040" points="108.0895,-68.5707 101.957,-64.7769 103.1004,-57.657 109.2328,-61.4508 108.0895,-68.5707"/>
<text text-anchor="middle" x="126.5" y="-79" font-family="Helvetica,sans-Serif" font-size="10.00" fill="#000000"> +car</text>
</g>
</g>
</svg>
