<?xml version="1.0" encoding="UTF-8" standalone="no"?>
<!DOCTYPE svg PUBLIC "-//W3C//DTD SVG 1.1//EN"
 "http://www.w3.org/Graphics/SVG/1.1/DTD/svg11.dtd">
<!-- Generated by graphviz version 2.40.1 (20161225.0304)
 -->
<!-- Title: FollowCar Pages: 1 -->
<svg width="361pt" height="204pt"
 viewBox="0.00 0.00 361.00 204.00" xmlns="http://www.w3.org/2000/svg" xmlns:xlink="http://www.w3.org/1999/xlink">
<g id="graph0" class="graph" transform="scale(1 1) rotate(0) translate(4 200)">
<title>FollowCar</title>
<!-- Node1 -->
<g id="node1" class="node">
<title>Node1</title>
<g id="a_node1"><a xlink:title=" ">
<polygon fill="#999999" stroke="#666666" points="148.5,-.5 148.5,-57.5 209.5,-57.5 209.5,-.5 148.5,-.5"/>
<text text-anchor="middle" x="179" y="-45.5" font-family="Helvetica,sans-Serif" font-size="10.00" fill="#000000">FollowCar</text>
<polyline fill="none" stroke="#666666" points="148.5,-38.5 209.5,-38.5 "/>
<text text-anchor="middle" x="179" y="-26.5" font-family="Helvetica,sans-Serif" font-size="10.00" fill="#000000"> </text>
<polyline fill="none" stroke="#666666" points="148.5,-19.5 209.5,-19.5 "/>
<text text-anchor="middle" x="179" y="-7.5" font-family="Helvetica,sans-Serif" font-size="10.00" fill="#000000"> </text>
</a>
</g>
</g>
<!-- Node2 -->
<g id="node2" class="node">
<title>Node2</title>
<g id="a_node2"><a xlink:href="classMonoBehaviour.html" target="_top" xlink:title=" ">
<polygon fill="#ffffff" stroke="#666666" points="0,-138.5 0,-195.5 84,-195.5 84,-138.5 0,-138.5"/>
<text text-anchor="middle" x="42" y="-183.5" font-family="Helvetica,sans-Serif" font-size="10.00" fill="#000000">MonoBehaviour</text>
<polyline fill="none" stroke="#666666" points="0,-176.5 84,-176.5 "/>
<text text-anchor="middle" x="42" y="-164.5" font-family="Helvetica,sans-Serif" font-size="10.00" fill="#000000"> </text>
<polyline fill="none" stroke="#666666" points="0,-157.5 84,-157.5 "/>
<text text-anchor="middle" x="42" y="-145.5" font-family="Helvetica,sans-Serif" font-size="10.00" fill="#000000"> </text>
</a>
</g>
</g>
<!-- Node2&#45;&gt;Node1 -->
<g id="edge1" class="edge">
<title>Node2&#45;&gt;Node1</title>
<path fill="none" stroke="#63b8ff" d="M71.879,-130.3614C86.4014,-113.261 104.4727,-92.9817 122,-76 130.1984,-68.0568 139.5856,-59.956 148.3442,-52.7672"/>
<polygon fill="none" stroke="#63b8ff" points="68.814,-128.5677 65.0528,-138.4724 74.1697,-133.0751 68.814,-128.5677"/>
</g>
<!-- Node3 -->
<g id="node3" class="node">
<title>Node3</title>
<g id="a_node3"><a xlink:title=" ">
<polygon fill="#ffffff" stroke="#666666" points="102.5,-138.5 102.5,-195.5 163.5,-195.5 163.5,-138.5 102.5,-138.5"/>
<text text-anchor="middle" x="133" y="-183.5" font-family="Helvetica,sans-Serif" font-size="10.00" fill="#000000">Transform</text>
<polyline fill="none" stroke="#666666" points="102.5,-176.5 163.5,-176.5 "/>
<text text-anchor="middle" x="133" y="-164.5" font-family="Helvetica,sans-Serif" font-size="10.00" fill="#000000"> </text>
<polyline fill="none" stroke="#666666" points="102.5,-157.5 163.5,-157.5 "/>
<text text-anchor="middle" x="133" y="-145.5" font-family="Helvetica,sans-Serif" font-size="10.00" fill="#000000"> </text>
</a>
</g>
</g>
<!-- Node3&#45;&gt;Node1 -->
<g id="edge2" class="edge">
<title>Node3&#45;&gt;Node1</title>
<path fill="none" stroke="#404040" d="M128.0595,-138.465C126.1061,-119.9757 125.9436,-95.7494 134,-76 135.7228,-71.7768 138.0215,-67.7167 140.6715,-63.8732"/>
<polygon fill="none" stroke="#404040" points="140.8705,-63.6237 141.4846,-56.4387 148.353,-54.2421 147.739,-61.4271 140.8705,-63.6237"/>
<text text-anchor="middle" x="169" y="-101" font-family="Helvetica,sans-Serif" font-size="10.00" fill="#000000"> +Target</text>
<text text-anchor="middle" x="169" y="-90" font-family="Helvetica,sans-Serif" font-size="10.00" fill="#000000">+camTransform</text>
</g>
<!-- Node4 -->
<g id="node4" class="node">
<title>Node4</title>
<g id="a_node4"><a xlink:title=" ">
<polygon fill="#ffffff" stroke="#666666" points="201,-138.5 201,-195.5 251,-195.5 251,-138.5 201,-138.5"/>
<text text-anchor="middle" x="226" y="-183.5" font-family="Helvetica,sans-Serif" font-size="10.00" fill="#000000">Vector3</text>
<polyline fill="none" stroke="#666666" points="201,-176.5 251,-176.5 "/>
<text text-anchor="middle" x="226" y="-164.5" font-family="Helvetica,sans-Serif" font-size="10.00" fill="#000000"> </text>
<polyline fill="none" stroke="#666666" points="201,-157.5 251,-157.5 "/>
<text text-anchor="middle" x="226" y="-145.5" font-family="Helvetica,sans-Serif" font-size="10.00" fill="#000000"> </text>
</a>
</g>
</g>
<!-- Node4&#45;&gt;Node1 -->
<g id="edge3" class="edge">
<title>Node4&#45;&gt;Node1</title>
<path fill="none" stroke="#404040" d="M220.9606,-138.1601C217.3148,-119.9812 211.6765,-96.2086 204,-76 203.0533,-73.5079 202.0027,-70.9808 200.8834,-68.4581"/>
<polygon fill="none" stroke="#404040" points="200.8398,-68.3673 194.6373,-64.6891 195.647,-57.549 201.8495,-61.2272 200.8398,-68.3673"/>
<text text-anchor="middle" x="234.5" y="-95.5" font-family="Helvetica,sans-Serif" font-size="10.00" fill="#000000"> +Offset</text>
</g>
<!-- Node5 -->
<g id="node5" class="node">
<title>Node5</title>
<g id="a_node5"><a xlink:title=" ">
<polygon fill="#ffffff" stroke="#666666" points="269.5,-138.5 269.5,-195.5 304.5,-195.5 304.5,-138.5 269.5,-138.5"/>
<text text-anchor="middle" x="287" y="-183.5" font-family="Helvetica,sans-Serif" font-size="10.00" fill="#000000">float</text>
<polyline fill="none" stroke="#666666" points="269.5,-176.5 304.5,-176.5 "/>
<text text-anchor="middle" x="287" y="-164.5" font-family="Helvetica,sans-Serif" font-size="10.00" fill="#000000"> </text>
<polyline fill="none" stroke="#666666" points="269.5,-157.5 304.5,-157.5 "/>
<text text-anchor="middle" x="287" y="-145.5" font-family="Helvetica,sans-Serif" font-size="10.00" fill="#000000"> </text>
</a>
</g>
</g>
<!-- Node5&#45;&gt;Node1 -->
<g id="edge4" class="edge">
<title>Node5&#45;&gt;Node1</title>
<path fill="none" stroke="#404040" d="M282.8803,-138.2585C278.917,-118.9857 271.3179,-93.944 257,-76 247.3703,-63.9315 233.737,-54.2312 220.5559,-46.8484"/>
<polygon fill="none" stroke="#404040" points="220.3321,-46.7319 213.163,-47.5094 209.6879,-41.1909 216.857,-40.4134 220.3321,-46.7319"/>
<text text-anchor="middle" x="315" y="-112" font-family="Helvetica,sans-Serif" font-size="10.00" fill="#000000"> +SmoothTime</text>
<text text-anchor="middle" x="315" y="-101" font-family="Helvetica,sans-Serif" font-size="10.00" fill="#000000">+horizontalSpeed</text>
<text text-anchor="middle" x="315" y="-90" font-family="Helvetica,sans-Serif" font-size="10.00" fill="#000000">+verticalSpeed</text>
<text text-anchor="middle" x="315" y="-79" font-family="Helvetica,sans-Serif" font-size="10.00" fill="#000000">+zoomSpeed</text>
</g>
</g>
</svg>
