<?xml version="1.0" encoding="UTF-8" standalone="no"?>
<!DOCTYPE svg PUBLIC "-//W3C//DTD SVG 1.1//EN"
 "http://www.w3.org/Graphics/SVG/1.1/DTD/svg11.dtd">
<!-- Generated by graphviz version 2.40.1 (20161225.0304)
 -->
<!-- Title: Graphical Class Hierarchy Pages: 1 -->
<svg width="381pt" height="134pt"
 viewBox="0.00 0.00 381.00 134.00" xmlns="http://www.w3.org/2000/svg" xmlns:xlink="http://www.w3.org/1999/xlink">
<g id="graph0" class="graph" transform="scale(1 1) rotate(0) translate(4 130)">
<title>Graphical Class Hierarchy</title>
<!-- Node0 -->
<g id="node1" class="node">
<title>Node0</title>
<g id="a_node1"><a xlink:href="classCommunication_1_1Messages_1_1BaseMessage.html" target="_top" xlink:title=" ">
<polygon fill="#ffffff" stroke="#666666" points="158,-78 0,-78 0,-48 158,-48 158,-78"/>
<text text-anchor="start" x="8" y="-66" font-family="Helvetica,sans-Serif" font-size="10.00" fill="#000000">Communication.Messages.Base</text>
<text text-anchor="middle" x="79" y="-55" font-family="Helvetica,sans-Serif" font-size="10.00" fill="#000000">Message</text>
</a>
</g>
</g>
<!-- Node1 -->
<g id="node2" class="node">
<title>Node1</title>
<g id="a_node2"><a xlink:href="classCommunication_1_1Messages_1_1CarStateMessage.html" target="_top" xlink:title=" ">
<polygon fill="#ffffff" stroke="#666666" points="359.5,-126 207.5,-126 207.5,-96 359.5,-96 359.5,-126"/>
<text text-anchor="start" x="215.5" y="-114" font-family="Helvetica,sans-Serif" font-size="10.00" fill="#000000">Communication.Messages.Car</text>
<text text-anchor="middle" x="283.5" y="-103" font-family="Helvetica,sans-Serif" font-size="10.00" fill="#000000">StateMessage</text>
</a>
</g>
</g>
<!-- Node0&#45;&gt;Node1 -->
<g id="edge1" class="edge">
<title>Node0&#45;&gt;Node1</title>
<path fill="none" stroke="#63b8ff" d="M153.014,-80.3725C174.8147,-85.4895 198.4736,-91.0427 219.5836,-95.9976"/>
<polygon fill="#63b8ff" stroke="#63b8ff" points="153.6792,-76.9336 143.144,-78.0558 152.0796,-83.7484 153.6792,-76.9336"/>
</g>
<!-- Node2 -->
<g id="node3" class="node">
<title>Node2</title>
<g id="a_node3"><a xlink:href="classCommunication_1_1Messages_1_1ControlResultMessage.html" target="_top" xlink:title=" ">
<polygon fill="#ffffff" stroke="#666666" points="367,-78 200,-78 200,-48 367,-48 367,-78"/>
<text text-anchor="start" x="208" y="-66" font-family="Helvetica,sans-Serif" font-size="10.00" fill="#000000">Communication.Messages.Control</text>
<text text-anchor="middle" x="283.5" y="-55" font-family="Helvetica,sans-Serif" font-size="10.00" fill="#000000">ResultMessage</text>
</a>
</g>
</g>
<!-- Node0&#45;&gt;Node2 -->
<g id="edge2" class="edge">
<title>Node0&#45;&gt;Node2</title>
<path fill="none" stroke="#63b8ff" d="M168.1161,-63C178.6759,-63 189.4257,-63 199.9049,-63"/>
<polygon fill="#63b8ff" stroke="#63b8ff" points="168.0651,-59.5001 158.065,-63 168.065,-66.5001 168.0651,-59.5001"/>
</g>
<!-- Node3 -->
<g id="node4" class="node">
<title>Node3</title>
<g id="a_node4"><a xlink:href="classCommunication_1_1Messages_1_1PerceivedConesMessage.html" target="_top" xlink:title=" ">
<polygon fill="#ffffff" stroke="#666666" points="373,-30 194,-30 194,0 373,0 373,-30"/>
<text text-anchor="start" x="202" y="-18" font-family="Helvetica,sans-Serif" font-size="10.00" fill="#000000">Communication.Messages.Perceived</text>
<text text-anchor="middle" x="283.5" y="-7" font-family="Helvetica,sans-Serif" font-size="10.00" fill="#000000">ConesMessage</text>
</a>
</g>
</g>
<!-- Node0&#45;&gt;Node3 -->
<g id="edge3" class="edge">
<title>Node0&#45;&gt;Node3</title>
<path fill="none" stroke="#63b8ff" d="M153.014,-45.6275C174.8147,-40.5105 198.4736,-34.9573 219.5836,-30.0024"/>
<polygon fill="#63b8ff" stroke="#63b8ff" points="152.0796,-42.2516 143.144,-47.9442 153.6792,-49.0664 152.0796,-42.2516"/>
</g>
</g>
</svg>
