<?xml version="1.0" encoding="UTF-8" standalone="no"?>
<!DOCTYPE svg PUBLIC "-//W3C//DTD SVG 1.1//EN"
 "http://www.w3.org/Graphics/SVG/1.1/DTD/svg11.dtd">
<!-- Generated by graphviz version 2.40.1 (20161225.0304)
 -->
<!-- Title: Graphical Class Hierarchy Pages: 1 -->
<svg width="296pt" height="520pt"
 viewBox="0.00 0.00 296.00 520.00" xmlns="http://www.w3.org/2000/svg" xmlns:xlink="http://www.w3.org/1999/xlink">
<g id="graph0" class="graph" transform="scale(1 1) rotate(0) translate(4 516)">
<title>Graphical Class Hierarchy</title>
<!-- Node0 -->
<g id="node1" class="node">
<title>Node0</title>
<g id="a_node1"><a xlink:href="classMonoBehaviour.html" target="_top" xlink:title=" ">
<polygon fill="#ffffff" stroke="#666666" points="84,-259 0,-259 0,-240 84,-240 84,-259"/>
<text text-anchor="middle" x="42" y="-247" font-family="Helvetica,sans-Serif" font-size="10.00" fill="#000000">MonoBehaviour</text>
</a>
</g>
</g>
<!-- Node1 -->
<g id="node2" class="node">
<title>Node1</title>
<g id="a_node2"><a xlink:href="classAddTracks.html" target="_top" xlink:title="Helper class to add all tracks to the list of tracks when the simulator starts.">
<polygon fill="#ffffff" stroke="#666666" points="236,-512 172,-512 172,-493 236,-493 236,-512"/>
<text text-anchor="middle" x="204" y="-500" font-family="Helvetica,sans-Serif" font-size="10.00" fill="#000000">AddTracks</text>
</a>
</g>
</g>
<!-- Node0&#45;&gt;Node1 -->
<g id="edge1" class="edge">
<title>Node0&#45;&gt;Node1</title>
<path fill="none" stroke="#63b8ff" d="M45.9615,-269.1153C56.6047,-319.9099 87.24,-453.8417 120,-483.5 133.9661,-496.1437 154.5332,-500.944 171.8201,-502.5588"/>
<polygon fill="#63b8ff" stroke="#63b8ff" points="49.3436,-268.186 43.8974,-259.0982 42.4876,-269.5988 49.3436,-268.186"/>
</g>
<!-- Node2 -->
<g id="node3" class="node">
<title>Node2</title>
<g id="a_node3"><a xlink:href="classCar_1_1Camera_1_1CameraExternalCalibration.html" target="_top" xlink:title=" ">
<polygon fill="#ffffff" stroke="#666666" points="275.5,-474.5 132.5,-474.5 132.5,-444.5 275.5,-444.5 275.5,-474.5"/>
<text text-anchor="start" x="140.5" y="-462.5" font-family="Helvetica,sans-Serif" font-size="10.00" fill="#000000">Car.Camera.CameraExternal</text>
<text text-anchor="middle" x="204" y="-451.5" font-family="Helvetica,sans-Serif" font-size="10.00" fill="#000000">Calibration</text>
</a>
</g>
</g>
<!-- Node0&#45;&gt;Node2 -->
<g id="edge2" class="edge">
<title>Node0&#45;&gt;Node2</title>
<path fill="none" stroke="#63b8ff" d="M44.6613,-269.5793C50.786,-307.6728 69.4526,-390.6263 120,-435.5 123.8564,-438.9235 128.1701,-441.861 132.7516,-444.3812"/>
<polygon fill="#63b8ff" stroke="#63b8ff" points="48.0651,-268.6706 43.1417,-259.2892 41.1402,-269.6932 48.0651,-268.6706"/>
</g>
<!-- Node3 -->
<g id="node4" class="node">
<title>Node3</title>
<g id="a_node4"><a xlink:href="classCar_1_1Camera_1_1CarCameraController.html" target="_top" xlink:title=" ">
<polygon fill="#ffffff" stroke="#666666" points="286.5,-426 121.5,-426 121.5,-407 286.5,-407 286.5,-426"/>
<text text-anchor="middle" x="204" y="-414" font-family="Helvetica,sans-Serif" font-size="10.00" fill="#000000">Car.Camera.CarCameraController</text>
</a>
</g>
</g>
<!-- Node0&#45;&gt;Node3 -->
<g id="edge3" class="edge">
<title>Node0&#45;&gt;Node3</title>
<path fill="none" stroke="#63b8ff" d="M46.5988,-269.4259C55.1628,-301.8314 76.7452,-365.6302 120,-398.5 124.3937,-401.8388 129.272,-404.5885 134.4031,-406.8496"/>
<polygon fill="#63b8ff" stroke="#63b8ff" points="49.9091,-268.2342 44.0983,-259.375 43.1161,-269.9242 49.9091,-268.2342"/>
</g>
<!-- Node4 -->
<g id="node5" class="node">
<title>Node4</title>
<g id="a_node5"><a xlink:href="classCar_1_1CarController.html" target="_top" xlink:title=" ">
<polygon fill="#ffffff" stroke="#666666" points="250.5,-389 157.5,-389 157.5,-370 250.5,-370 250.5,-389"/>
<text text-anchor="middle" x="204" y="-377" font-family="Helvetica,sans-Serif" font-size="10.00" fill="#000000">Car.CarController</text>
</a>
</g>
</g>
<!-- Node0&#45;&gt;Node4 -->
<g id="edge4" class="edge">
<title>Node0&#45;&gt;Node4</title>
<path fill="none" stroke="#63b8ff" d="M49.7877,-268.4265C61.2493,-293.7984 85.1421,-338.3228 120,-361.5 130.9293,-368.7669 144.2704,-373.1648 157.0739,-375.8074"/>
<polygon fill="#63b8ff" stroke="#63b8ff" points="52.9495,-266.9201 45.762,-259.1361 46.5265,-269.7033 52.9495,-266.9201"/>
</g>
<!-- Node5 -->
<g id="node6" class="node">
<title>Node5</title>
<g id="a_node6"><a xlink:href="classCar_1_1Lidar_1_1LidarController.html" target="_top" xlink:title=" ">
<polygon fill="#ffffff" stroke="#666666" points="265,-352 143,-352 143,-333 265,-333 265,-352"/>
<text text-anchor="middle" x="204" y="-340" font-family="Helvetica,sans-Serif" font-size="10.00" fill="#000000">Car.Lidar.LidarController</text>
</a>
</g>
</g>
<!-- Node0&#45;&gt;Node5 -->
<g id="edge5" class="edge">
<title>Node0&#45;&gt;Node5</title>
<path fill="none" stroke="#63b8ff" d="M55.457,-267.2496C69.5961,-284.5944 93.4415,-310.3871 120,-324.5 127.112,-328.2792 134.9612,-331.265 142.9201,-333.6239"/>
<polygon fill="#63b8ff" stroke="#63b8ff" points="57.93,-264.7338 48.985,-259.056 52.4369,-269.0727 57.93,-264.7338"/>
</g>
<!-- Node6 -->
<g id="node7" class="node">
<title>Node6</title>
<g id="a_node7"><a xlink:href="classCar_1_1PIDController.html" target="_top" xlink:title=" ">
<polygon fill="#ffffff" stroke="#666666" points="251.5,-315 156.5,-315 156.5,-296 251.5,-296 251.5,-315"/>
<text text-anchor="middle" x="204" y="-303" font-family="Helvetica,sans-Serif" font-size="10.00" fill="#000000">Car.PIDController</text>
</a>
</g>
</g>
<!-- Node0&#45;&gt;Node6 -->
<g id="edge6" class="edge">
<title>Node0&#45;&gt;Node6</title>
<path fill="none" stroke="#63b8ff" d="M67.6289,-263.9423C82.5327,-271.838 101.8946,-281.2536 120,-287.5 131.5611,-291.4886 144.3343,-294.7688 156.3569,-297.3852"/>
<polygon fill="#63b8ff" stroke="#63b8ff" points="68.9972,-260.7031 58.5366,-259.0217 65.6655,-266.8594 68.9972,-260.7031"/>
</g>
<!-- Node7 -->
<g id="node8" class="node">
<title>Node7</title>
<g id="a_node8"><a xlink:href="classCar_1_1gss_1_1GssController.html" target="_top" xlink:title=" ">
<polygon fill="#ffffff" stroke="#666666" points="261,-278 147,-278 147,-259 261,-259 261,-278"/>
<text text-anchor="middle" x="204" y="-266" font-family="Helvetica,sans-Serif" font-size="10.00" fill="#000000">Car.gss.GssController</text>
</a>
</g>
</g>
<!-- Node0&#45;&gt;Node7 -->
<g id="edge7" class="edge">
<title>Node0&#45;&gt;Node7</title>
<path fill="none" stroke="#63b8ff" d="M94.3069,-255.6348C111.0749,-257.6014 129.7269,-259.789 146.8243,-261.7942"/>
<polygon fill="#63b8ff" stroke="#63b8ff" points="94.4803,-252.1312 84.1407,-254.4424 93.6649,-259.0835 94.4803,-252.1312"/>
</g>
<!-- Node8 -->
<g id="node9" class="node">
<title>Node8</title>
<g id="a_node9"><a xlink:href="classCar_1_1imu_1_1Imu__Controller.html" target="_top" xlink:title=" ">
<polygon fill="#ffffff" stroke="#666666" points="263,-241 145,-241 145,-222 263,-222 263,-241"/>
<text text-anchor="middle" x="204" y="-229" font-family="Helvetica,sans-Serif" font-size="10.00" fill="#000000">Car.imu.Imu_Controller</text>
</a>
</g>
</g>
<!-- Node0&#45;&gt;Node8 -->
<g id="edge8" class="edge">
<title>Node0&#45;&gt;Node8</title>
<path fill="none" stroke="#63b8ff" d="M94.4605,-243.6711C110.5928,-241.8786 128.4569,-239.8937 144.9969,-238.0559"/>
<polygon fill="#63b8ff" stroke="#63b8ff" points="93.693,-240.2347 84.1407,-244.8177 94.4661,-247.1919 93.693,-240.2347"/>
</g>
<!-- Node9 -->
<g id="node10" class="node">
<title>Node9</title>
<g id="a_node10"><a xlink:href="classCommunication_1_1InterfaceController.html" target="_top" xlink:title=" ">
<polygon fill="#ffffff" stroke="#666666" points="288,-204 120,-204 120,-185 288,-185 288,-204"/>
<text text-anchor="middle" x="204" y="-192" font-family="Helvetica,sans-Serif" font-size="10.00" fill="#000000">Communication.InterfaceController</text>
</a>
</g>
</g>
<!-- Node0&#45;&gt;Node9 -->
<g id="edge9" class="edge">
<title>Node0&#45;&gt;Node9</title>
<path fill="none" stroke="#63b8ff" d="M68.9079,-235.377C83.6815,-228.0614 102.5074,-219.4414 120,-213.5 130.7596,-209.8455 142.534,-206.6862 153.7724,-204.0503"/>
<polygon fill="#63b8ff" stroke="#63b8ff" points="67.1892,-232.3238 59.8394,-239.9547 70.3437,-238.5728 67.1892,-232.3238"/>
</g>
<!-- Node10 -->
<g id="node11" class="node">
<title>Node10</title>
<g id="a_node11"><a xlink:href="classFollowCar.html" target="_top" xlink:title=" ">
<polygon fill="#ffffff" stroke="#666666" points="234.5,-167 173.5,-167 173.5,-148 234.5,-148 234.5,-167"/>
<text text-anchor="middle" x="204" y="-155" font-family="Helvetica,sans-Serif" font-size="10.00" fill="#000000">FollowCar</text>
</a>
</g>
</g>
<!-- Node0&#45;&gt;Node10 -->
<g id="edge10" class="edge">
<title>Node0&#45;&gt;Node10</title>
<path fill="none" stroke="#63b8ff" d="M55.8211,-232.0256C70.0927,-215.2016 93.904,-190.3314 120,-176.5 136.5136,-167.7475 156.9278,-163.0124 173.4962,-160.4583"/>
<polygon fill="#63b8ff" stroke="#63b8ff" points="52.9192,-230.0438 49.266,-239.9889 58.3237,-234.4926 52.9192,-230.0438"/>
</g>
<!-- Node11 -->
<g id="node12" class="node">
<title>Node11</title>
<g id="a_node12"><a xlink:href="classMiniMapCameraController.html" target="_top" xlink:title=" ">
<polygon fill="#ffffff" stroke="#666666" points="269,-130 139,-130 139,-111 269,-111 269,-130"/>
<text text-anchor="middle" x="204" y="-118" font-family="Helvetica,sans-Serif" font-size="10.00" fill="#000000">MiniMapCameraController</text>
</a>
</g>
</g>
<!-- Node0&#45;&gt;Node11 -->
<g id="edge11" class="edge">
<title>Node0&#45;&gt;Node11</title>
<path fill="none" stroke="#63b8ff" d="M50.0918,-230.5925C61.7685,-205.6737 85.7642,-162.3347 120,-139.5 125.8462,-135.6007 132.3772,-132.4927 139.1443,-130.0169"/>
<polygon fill="#63b8ff" stroke="#63b8ff" points="46.8867,-229.1862 45.9725,-239.7415 53.2695,-232.0601 46.8867,-229.1862"/>
</g>
<!-- Node12 -->
<g id="node13" class="node">
<title>Node12</title>
<g id="a_node13"><a xlink:href="classTrack_1_1AutoPathFollower.html" target="_top" xlink:title=" ">
<polygon fill="#ffffff" stroke="#666666" points="265,-93 143,-93 143,-74 265,-74 265,-93"/>
<text text-anchor="middle" x="204" y="-81" font-family="Helvetica,sans-Serif" font-size="10.00" fill="#000000">Track.AutoPathFollower</text>
</a>
</g>
</g>
<!-- Node0&#45;&gt;Node12 -->
<g id="edge12" class="edge">
<title>Node0&#45;&gt;Node12</title>
<path fill="none" stroke="#63b8ff" d="M46.7218,-229.8906C55.4629,-197.9906 77.2944,-135.1476 120,-102.5 126.7706,-97.324 134.6906,-93.511 142.9124,-90.7106"/>
<polygon fill="#63b8ff" stroke="#63b8ff" points="43.2787,-229.2255 44.1631,-239.7834 50.0557,-230.9784 43.2787,-229.2255"/>
</g>
<!-- Node13 -->
<g id="node14" class="node">
<title>Node13</title>
<g id="a_node14"><a xlink:href="classTrackManager.html" target="_top" xlink:title="This Class is Responsible for changing the Track.">
<polygon fill="#ffffff" stroke="#666666" points="243.5,-56 164.5,-56 164.5,-37 243.5,-37 243.5,-56"/>
<text text-anchor="middle" x="204" y="-44" font-family="Helvetica,sans-Serif" font-size="10.00" fill="#000000">TrackManager</text>
</a>
</g>
</g>
<!-- Node0&#45;&gt;Node13 -->
<g id="edge13" class="edge">
<title>Node0&#45;&gt;Node13</title>
<path fill="none" stroke="#63b8ff" d="M44.5082,-229.3748C50.3711,-191.243 68.6093,-108.4484 120,-65.5 132.2758,-55.2408 148.9645,-50.2384 164.2325,-47.8907"/>
<polygon fill="#63b8ff" stroke="#63b8ff" points="40.9856,-229.2922 43.063,-239.6813 47.9178,-230.2643 40.9856,-229.2922"/>
</g>
<!-- Node14 -->
<g id="node15" class="node">
<title>Node14</title>
<g id="a_node15"><a xlink:href="classgetRenderTexture.html" target="_top" xlink:title=" ">
<polygon fill="#ffffff" stroke="#666666" points="251.5,-19 156.5,-19 156.5,0 251.5,0 251.5,-19"/>
<text text-anchor="middle" x="204" y="-7" font-family="Helvetica,sans-Serif" font-size="10.00" fill="#000000">getRenderTexture</text>
</a>
</g>
</g>
<!-- Node0&#45;&gt;Node14 -->
<g id="edge14" class="edge">
<title>Node0&#45;&gt;Node14</title>
<path fill="none" stroke="#63b8ff" d="M42.8718,-229.6441C45.8995,-186.2133 59.4408,-82.3665 120,-28.5 129.9429,-19.656 143.125,-14.6649 156.0923,-11.9166"/>
<polygon fill="#63b8ff" stroke="#63b8ff" points="39.37,-229.5755 42.286,-239.7611 46.3583,-229.9802 39.37,-229.5755"/>
</g>
</g>
</svg>
